<svg width="64" height="64" viewBox="0 0 64 64" fill="none" xmlns="http://www.w3.org/2000/svg">
<path fill-rule="evenodd" clip-rule="evenodd" d="M31.8505 60.606C26.4277 57.3325 21.8525 53.1297 18.2515 48.1141C14.9331 43.49 12.5761 38.3682 11.2436 32.8849L11.1253 32.4019L10.7007 30.3189C9.75369 25.0918 9.76646 19.7661 10.7399 14.4799L10.8964 13.632L11.7303 13.4572C11.7882 13.4452 17.3036 12.2744 22.2031 9.50626C29.1863 5.55271 31.545 3.0492 31.5688 3.02436L32.5022 2L33.4365 3.02864C33.4552 3.05005 35.8113 5.55014 42.798 9.50626C47.7025 12.277 53.2129 13.4452 53.2674 13.4572L54.1038 13.632L54.2595 14.4782C55.2338 19.7661 55.2465 25.0918 54.2986 30.3189L54.1659 31.0683L53.7566 32.8849C52.4241 38.369 50.0672 43.4908 46.747 48.1141C43.1469 53.1297 38.5725 57.3325 33.1498 60.606L32.5005 61L31.8505 60.606Z" fill="black"/>
<path fill-rule="evenodd" clip-rule="evenodd" d="M53.18 14.498C53.18 14.498 47.4246 13.3024 42.2572 10.3963C34.8315 6.21066 32.5 3.64291 32.5 3.64291C32.5 3.64291 30.1677 6.21066 22.7429 10.3963C17.5746 13.3024 11.8208 14.498 11.8208 14.498C10.7589 20.2314 10.8832 25.975 12.0846 31.4454H52.9154C54.1169 25.9741 54.2411 20.2314 53.18 14.498Z" fill="#FBB900"/>
<path fill-rule="evenodd" clip-rule="evenodd" d="M32.4947 59.8811C43.2457 53.4189 50.32 43.3081 52.7944 32.0402H12.195C14.6703 43.3081 21.7437 53.4189 32.4947 59.8811Z" fill="#98092B"/>
<path fill-rule="evenodd" clip-rule="evenodd" d="M17.9201 39.2767C17.9201 37.8849 17.9201 37.6279 17.9022 37.335C17.8843 37.0232 17.8111 36.8768 17.5108 36.8125C17.4384 36.7946 17.2836 36.786 17.1568 36.786C17.0564 36.786 17.0011 36.7672 17.0011 36.7038C17.0011 36.6387 17.0649 36.6207 17.2019 36.6207C17.6852 36.6207 18.2562 36.6481 18.4485 36.6481C18.7573 36.6481 19.45 36.6207 19.7316 36.6207C20.3042 36.6207 20.9143 36.6755 21.4053 37.0138C21.6606 37.1885 22.0239 37.6553 22.0239 38.2686C22.0239 38.9469 21.7414 39.5696 20.8233 40.3207C21.6325 41.3468 22.2613 42.1622 22.7974 42.7292C23.307 43.261 23.6797 43.3253 23.8176 43.3518C23.9171 43.3707 23.9988 43.3801 24.072 43.3801C24.1452 43.3801 24.1809 43.4075 24.1809 43.4529C24.1809 43.5266 24.1162 43.5445 24.0073 43.5445H23.1437C22.6348 43.5445 22.4059 43.4983 22.1694 43.3707C21.7788 43.1608 21.4325 42.7292 20.9228 42.0243C20.5595 41.5207 20.1409 40.898 20.0226 40.7601C19.9767 40.7053 19.9222 40.6967 19.8584 40.6967L19.0679 40.6779C19.022 40.6779 18.9947 40.6967 18.9947 40.7515V40.8792C18.9947 41.7314 18.9947 42.4551 19.0398 42.8388C19.0679 43.1052 19.1207 43.3064 19.3946 43.3441C19.5316 43.3613 19.7316 43.3801 19.8405 43.3801C19.9137 43.3801 19.9494 43.4075 19.9494 43.4529C19.9494 43.518 19.8865 43.5445 19.7673 43.5445C19.2398 43.5445 18.5667 43.518 18.4297 43.518C18.2562 43.518 17.6852 43.5445 17.3202 43.5445C17.2019 43.5445 17.1381 43.518 17.1381 43.4529C17.1381 43.4075 17.1747 43.3801 17.2836 43.3801C17.4197 43.3801 17.5295 43.3613 17.6112 43.3441C17.7924 43.3064 17.8384 43.1052 17.875 42.8388C17.9201 42.4551 17.9201 41.7314 17.9201 40.8886V39.2767ZM18.9947 40.0004C18.9947 40.1006 19.0134 40.1374 19.0764 40.1648C19.2679 40.2291 19.5401 40.2565 19.7673 40.2565C20.1315 40.2565 20.2498 40.2205 20.414 40.1006C20.6871 39.8993 20.9509 39.4779 20.9509 38.7277C20.9509 37.4266 20.0958 37.0507 19.5589 37.0507C19.3317 37.0507 19.1666 37.0601 19.0764 37.0875C19.0134 37.1055 18.9947 37.1423 18.9947 37.216V40.0004Z" fill="black"/>
<path fill-rule="evenodd" clip-rule="evenodd" d="M23.7982 40.0826C23.7982 38.5161 24.8261 36.4922 27.5566 36.4922C29.8216 36.4922 31.2316 37.8206 31.2316 39.9173C31.2316 42.0148 29.7757 43.6738 27.4655 43.6738C24.8533 43.6738 23.7982 41.7039 23.7982 40.0826ZM29.9586 40.2565C29.9586 38.2043 28.7844 36.9316 27.2928 36.9316C26.2453 36.9316 25.0549 37.5183 25.0549 39.7991C25.0549 41.7039 26.0998 43.2148 27.8476 43.2148C28.484 43.2148 29.9586 42.9039 29.9586 40.2565Z" fill="black"/>
<path fill-rule="evenodd" clip-rule="evenodd" d="M32.6517 36.7301C32.6789 36.5751 32.7333 36.492 32.8057 36.492C32.8788 36.492 32.9333 36.5374 33.0516 36.7764L35.5362 41.8682L38.0106 36.7121C38.0837 36.5657 38.1288 36.492 38.2105 36.492C38.2931 36.492 38.3475 36.5837 38.3756 36.7764L39.2018 42.3812C39.2844 42.9576 39.3754 43.2231 39.6477 43.3062C39.9123 43.3893 40.0944 43.3979 40.2127 43.3979C40.2944 43.3979 40.3582 43.4073 40.3582 43.4621C40.3582 43.5358 40.2493 43.5632 40.1216 43.5632C39.8944 43.5632 38.6394 43.5443 38.2743 43.5169C38.065 43.4981 38.0106 43.4715 38.0106 43.4159C38.0106 43.3705 38.0472 43.3431 38.111 43.3156C38.1654 43.2977 38.1935 43.1786 38.1561 42.9217L37.6098 38.9373H37.5732L35.5906 43.0227C35.3805 43.4535 35.3354 43.5358 35.2537 43.5358C35.172 43.5358 35.0801 43.3525 34.9346 43.0767C34.7168 42.6561 33.9978 41.2541 33.888 40.998C33.8063 40.8061 33.26 39.7252 32.9427 39.0383H32.9061L32.433 42.6099C32.4151 42.7743 32.4058 42.8943 32.4058 43.0407C32.4058 43.2146 32.5232 43.2977 32.6789 43.3336C32.8431 43.3705 32.9699 43.3799 33.0609 43.3799C33.1333 43.3799 33.1979 43.3979 33.1979 43.4441C33.1979 43.5263 33.1145 43.5443 32.9784 43.5443C32.5972 43.5443 32.1871 43.5169 32.0237 43.5169C31.8501 43.5169 31.4136 43.5443 31.1226 43.5443C31.0324 43.5443 30.9592 43.5263 30.9592 43.4441C30.9592 43.3979 31.0128 43.3799 31.1047 43.3799C31.1779 43.3799 31.24 43.3799 31.377 43.3525C31.6323 43.2977 31.7055 42.9396 31.7497 42.6287L32.6517 36.7301Z" fill="black"/>
<path fill-rule="evenodd" clip-rule="evenodd" d="M42.6236 41.2091C42.5785 41.2091 42.5598 41.2279 42.5419 41.2819L42.0501 42.5366C41.959 42.7662 41.9131 42.9854 41.9131 43.0959C41.9131 43.2603 41.9956 43.3803 42.2781 43.3803H42.4142C42.5232 43.3803 42.5512 43.3982 42.5512 43.4531C42.5512 43.5259 42.4959 43.5447 42.3972 43.5447C42.1054 43.5447 41.7148 43.5173 41.4315 43.5173C41.3311 43.5173 40.8316 43.5447 40.3576 43.5447C40.2394 43.5447 40.1858 43.5259 40.1858 43.4531C40.1858 43.3982 40.2215 43.3803 40.2938 43.3803C40.3755 43.3803 40.504 43.3708 40.5763 43.3614C40.9941 43.3066 41.1668 42.9948 41.3489 42.5366L43.6336 36.859C43.7425 36.5926 43.7969 36.4924 43.8888 36.4924C43.9705 36.4924 44.0241 36.5746 44.1152 36.7853C44.3339 37.2889 45.7897 40.953 46.3726 42.3448C46.7189 43.1687 46.9827 43.2972 47.1724 43.3434C47.3086 43.3708 47.4464 43.3803 47.5553 43.3803C47.6285 43.3803 47.6744 43.3897 47.6744 43.4531C47.6744 43.5259 47.5911 43.5447 47.2558 43.5447C46.9291 43.5447 46.2628 43.5447 45.5353 43.5259C45.3711 43.5173 45.2622 43.5173 45.2622 43.4531C45.2622 43.3982 45.2979 43.3803 45.3907 43.3708C45.4536 43.352 45.5174 43.2698 45.4723 43.1601L44.744 41.2724C44.7261 41.2279 44.698 41.2091 44.6529 41.2091H42.6236ZM44.4794 40.7508C44.5245 40.7508 44.5347 40.7226 44.5245 40.6969L43.7067 38.4435C43.6974 38.4058 43.6872 38.3604 43.6608 38.3604C43.6336 38.3604 43.6157 38.4058 43.6072 38.4435L42.7691 40.6875C42.7606 40.7226 42.7691 40.7508 42.8048 40.7508H44.4794Z" fill="black"/>
<path fill-rule="evenodd" clip-rule="evenodd" d="M18.1595 39.0721C18.1595 37.6794 18.1595 37.4234 18.1416 37.1304C18.1237 36.8187 18.0506 36.6722 17.7511 36.608C17.677 36.59 17.523 36.5806 17.3962 36.5806C17.2958 36.5806 17.2405 36.5626 17.2405 36.4983C17.2405 36.4341 17.3043 36.4161 17.4413 36.4161C17.9238 36.4161 18.4973 36.4435 18.6879 36.4435C18.9968 36.4435 19.6885 36.4161 19.971 36.4161C20.5437 36.4161 21.1538 36.4709 21.6447 36.8101C21.9 36.9831 22.2633 37.4508 22.2633 38.064C22.2633 38.7423 21.9825 39.365 21.0627 40.1153C21.8728 41.1414 22.5007 41.9576 23.0368 42.5246C23.5465 43.0556 23.92 43.1207 24.057 43.1473C24.1557 43.1661 24.2382 43.1755 24.3114 43.1755C24.3846 43.1755 24.4203 43.2029 24.4203 43.2483C24.4203 43.3211 24.3565 43.34 24.2476 43.34H23.3831C22.8743 43.34 22.6454 43.2946 22.4088 43.1661C22.0183 42.9563 21.672 42.5246 21.1631 41.8189C20.7989 41.3161 20.3803 40.6926 20.262 40.5555C20.2161 40.5007 20.1616 40.4913 20.0978 40.4913L19.3073 40.4733C19.2614 40.4733 19.2342 40.4913 19.2342 40.5461V40.6746C19.2342 41.5268 19.2342 42.2497 19.2793 42.6351C19.3073 42.8997 19.3609 43.1019 19.6341 43.1387C19.7711 43.1567 19.971 43.1755 20.0799 43.1755C20.1531 43.1755 20.1889 43.2029 20.1889 43.2483C20.1889 43.3134 20.1259 43.34 20.0076 43.34C19.4792 43.34 18.8062 43.3134 18.6692 43.3134C18.4973 43.3134 17.9238 43.34 17.5596 43.34C17.4413 43.34 17.3775 43.3134 17.3775 43.2483C17.3775 43.2029 17.4133 43.1755 17.523 43.1755C17.66 43.1755 17.7689 43.1567 17.8506 43.1387C18.0327 43.1019 18.0778 42.8997 18.1152 42.6351C18.1595 42.2497 18.1595 41.5268 18.1595 40.684V39.0721ZM19.2342 39.7958C19.2342 39.896 19.252 39.9329 19.3158 39.9603C19.5073 40.0245 19.7804 40.0519 20.0076 40.0519C20.3718 40.0519 20.4892 40.0151 20.6534 39.896C20.9266 39.6948 21.1912 39.2734 21.1912 38.5231C21.1912 37.2221 20.3352 36.8461 19.7974 36.8461C19.5703 36.8461 19.4069 36.8555 19.3158 36.8829C19.252 36.9009 19.2342 36.9377 19.2342 37.0122V39.7958Z" fill="#FBB900"/>
<path fill-rule="evenodd" clip-rule="evenodd" d="M24.0376 39.8784C24.0376 38.3119 25.0664 36.288 27.796 36.288C30.0611 36.288 31.4719 37.6156 31.4719 39.7131C31.4719 41.8107 30.016 43.4688 27.705 43.4688C25.0936 43.4688 24.0376 41.4989 24.0376 39.8784ZM30.1981 40.0523C30.1981 38.0001 29.0239 36.7274 27.5323 36.7274C26.4848 36.7274 25.2936 37.3141 25.2936 39.5941C25.2936 41.4989 26.3393 43.0106 28.087 43.0106C28.7226 43.0106 30.1981 42.6997 30.1981 40.0523Z" fill="#FBB900"/>
<path fill-rule="evenodd" clip-rule="evenodd" d="M32.8906 36.5259C32.9187 36.3709 32.9723 36.2878 33.0455 36.2878C33.1178 36.2878 33.1731 36.3332 33.2905 36.5713L35.7751 41.664L38.2503 36.5071C38.3235 36.3615 38.3678 36.2878 38.4494 36.2878C38.532 36.2878 38.5864 36.3795 38.6145 36.5713L39.4416 42.177C39.5241 42.7535 39.6143 43.0198 39.8875 43.1021C40.1512 43.1851 40.3342 43.1937 40.4516 43.1937C40.5333 43.1937 40.5979 43.2031 40.5979 43.2579C40.5979 43.3316 40.4882 43.3581 40.3614 43.3581C40.1334 43.3581 38.8783 43.3402 38.515 43.3127C38.3048 43.2948 38.2503 43.2674 38.2503 43.2117C38.2503 43.1663 38.2861 43.1389 38.3508 43.1115C38.4044 43.0935 38.4324 42.9736 38.3958 42.7175L37.8504 38.7331H37.8138L35.8296 42.8186C35.6202 43.2494 35.5751 43.3316 35.4935 43.3316C35.4126 43.3316 35.3199 43.1474 35.1744 42.8734C34.9565 42.4528 34.2375 41.0499 34.1278 40.7938C34.0461 40.6011 33.5007 39.5211 33.1824 38.8333H33.1459L32.6719 42.4066C32.654 42.5702 32.6455 42.6892 32.6455 42.8365C32.6455 43.0104 32.763 43.0935 32.9187 43.1303C33.082 43.1663 33.2097 43.1766 33.2999 43.1766C33.3739 43.1766 33.4377 43.1937 33.4377 43.2399C33.4377 43.3213 33.356 43.3402 33.2182 43.3402C32.8361 43.3402 32.426 43.3127 32.2635 43.3127C32.0899 43.3127 31.6525 43.3402 31.3624 43.3402C31.2713 43.3402 31.199 43.3213 31.199 43.2399C31.199 43.1937 31.2526 43.1766 31.3437 43.1766C31.4168 43.1766 31.4798 43.1766 31.6168 43.1474C31.8721 43.0935 31.9444 42.7355 31.9895 42.4237L32.8906 36.5259Z" fill="#FBB900"/>
<path fill-rule="evenodd" clip-rule="evenodd" d="M42.8633 41.0051C42.8174 41.0051 42.8004 41.0231 42.7808 41.0779L42.2898 42.3326C42.1988 42.5622 42.1537 42.7814 42.1537 42.8919C42.1537 43.0564 42.2354 43.1763 42.517 43.1763H42.6532C42.7621 43.1763 42.7901 43.1943 42.7901 43.2491C42.7901 43.321 42.7357 43.3407 42.6361 43.3407C42.3443 43.3407 41.9529 43.3133 41.6712 43.3133C41.5708 43.3133 41.0705 43.3407 40.5983 43.3407C40.4791 43.3407 40.4247 43.321 40.4247 43.2491C40.4247 43.1943 40.4613 43.1763 40.5336 43.1763C40.6153 43.1763 40.7429 43.1669 40.8152 43.1574C41.233 43.1026 41.4066 42.7909 41.5887 42.3326L43.8733 36.655C43.9822 36.3886 44.0367 36.2884 44.1286 36.2884C44.2094 36.2884 44.2639 36.3706 44.3549 36.5805C44.5736 37.0849 46.0295 40.749 46.6123 42.1399C46.9578 42.9647 47.2216 43.0932 47.413 43.1386C47.5492 43.1669 47.6862 43.1763 47.7951 43.1763C47.8674 43.1763 47.9125 43.1848 47.9125 43.2491C47.9125 43.321 47.8308 43.3407 47.4947 43.3407C47.168 43.3407 46.5026 43.3407 45.7742 43.321C45.61 43.3133 45.5019 43.3133 45.5019 43.2491C45.5019 43.1943 45.5377 43.1763 45.6296 43.1669C45.6925 43.148 45.7572 43.0658 45.7113 42.9562L44.9829 41.0685C44.965 41.0231 44.9386 41.0051 44.8918 41.0051H42.8633ZM44.7191 40.5469C44.7651 40.5469 44.7744 40.5186 44.7651 40.492L43.9465 38.2386C43.9371 38.2018 43.9278 38.1564 43.9006 38.1564C43.8733 38.1564 43.8555 38.2018 43.8461 38.2386L43.0088 40.4835C42.9995 40.5186 43.0088 40.5469 43.0454 40.5469H44.7191Z" fill="#FBB900"/>
<path fill-rule="evenodd" clip-rule="evenodd" d="M29.2603 48.8688C29.2603 49.292 29.5564 49.8392 30.2686 49.8392C30.5204 49.8392 30.7782 49.7639 30.9203 49.608C30.9305 49.5977 30.9459 49.5677 30.9459 49.5532C30.9459 49.5283 30.9263 49.5069 30.9067 49.5069C30.8872 49.5069 30.8616 49.5326 30.8072 49.5626C30.7434 49.5934 30.6446 49.6226 30.4711 49.6226C30.3034 49.6226 29.8142 49.4427 29.8142 48.6736C29.8142 48.2462 30.0516 47.925 30.4073 47.925C30.7884 47.925 31.1586 48.3164 31.1586 49.2054C31.1586 50.3925 30.3868 51.2156 29.8737 51.5325C29.8491 51.5531 29.8142 51.5822 29.8142 51.6182C29.8142 51.6439 29.8389 51.6687 29.8584 51.6687C29.8976 51.6687 29.9231 51.6636 29.9469 51.6481C30.5596 51.3569 31.7712 50.473 31.7712 49.065C31.7712 48.301 31.3313 47.698 30.5255 47.698C29.7648 47.698 29.2603 48.1914 29.2603 48.8688Z" fill="black"/>
<path fill-rule="evenodd" clip-rule="evenodd" d="M26.5991 48.608C26.5991 48.638 26.6238 48.6628 26.6391 48.6628C26.6579 48.6628 26.6834 48.6534 26.7081 48.644C26.8161 48.5977 27.188 48.4024 27.2816 48.4024C27.3556 48.4024 27.3556 48.4615 27.3556 48.5823V49.2418L27.3615 50.0409C27.3649 50.5231 27.3556 50.9496 27.3369 51.1715C27.3216 51.3316 27.296 51.4027 27.1395 51.437C27.0493 51.4575 26.7966 51.4712 26.7429 51.4712C26.7225 51.4712 26.703 51.4866 26.703 51.5226C26.703 51.5577 26.7327 51.568 26.7872 51.568C27.1037 51.568 27.5198 51.5535 27.633 51.5535C27.7657 51.5535 28.0814 51.568 28.4592 51.568C28.5119 51.568 28.5375 51.5577 28.5375 51.5226C28.5375 51.4866 28.5119 51.4712 28.4924 51.4712C28.4532 51.4712 28.2405 51.4575 28.1665 51.4421C28.0082 51.407 27.9835 51.3316 27.9691 51.1715C27.9487 50.9496 27.9487 50.5231 27.9487 50.0409V49.1099C27.9487 48.3416 27.9793 47.844 27.9793 47.8046C27.9793 47.7541 27.9648 47.6984 27.9197 47.6984C27.8806 47.6984 27.8355 47.7335 27.7912 47.7644C27.6177 47.8954 26.6689 48.5275 26.6485 48.5378C26.6238 48.5532 26.5991 48.578 26.5991 48.608Z" fill="black"/>
<path fill-rule="evenodd" clip-rule="evenodd" d="M32.2126 51.4825C32.2126 51.5227 32.2467 51.5527 32.2815 51.5527H34.219C34.5313 51.5527 34.6104 51.5373 34.6496 51.4028C34.6981 51.2307 34.7925 50.763 34.7925 50.6834C34.7925 50.6328 34.7874 50.5883 34.7525 50.5883C34.7236 50.5883 34.7091 50.608 34.6938 50.6688C34.6342 50.9052 34.47 51.0756 34.1305 51.1159C33.9467 51.1407 33.3639 51.1459 33.2805 51.1459H32.9435C32.9189 51.1459 32.9095 51.1296 32.9333 51.1108C33.5715 50.5926 34.6342 49.7438 34.6342 48.7691C34.6342 48.1799 34.2641 47.6977 33.3937 47.6977C32.9588 47.6977 32.6917 47.7893 32.4985 47.8887C32.4449 47.9246 32.4398 47.9452 32.4398 47.9897C32.4398 48.1362 32.4645 48.5533 32.4696 48.5978C32.4738 48.6578 32.4892 48.6938 32.5138 48.6938C32.5632 48.6938 32.5785 48.6484 32.5785 48.5978C32.5785 48.4668 32.6661 48.2313 32.7853 48.1156C32.9333 47.9752 33.0975 47.9349 33.3103 47.9349C33.5562 47.9349 33.9867 48.0951 33.9867 48.8899C33.9867 49.9494 33.0022 50.7339 32.3105 51.3523C32.262 51.3968 32.2126 51.4422 32.2126 51.4825Z" fill="black"/>
<path fill-rule="evenodd" clip-rule="evenodd" d="M35.3328 48.6281C35.3328 48.6787 35.3362 48.7035 35.3719 48.7035C35.4026 48.7035 35.417 48.6787 35.4213 48.6384C35.4315 48.557 35.4945 48.3969 35.5847 48.3361C35.7029 48.2564 35.9114 48.2461 36.0484 48.2461H37.3298C36.6474 49.4067 36.0144 50.8893 35.8774 51.3715C35.8518 51.452 35.8425 51.5273 35.8425 51.5779C35.8425 51.6233 35.857 51.6378 35.9114 51.6378C36.1335 51.6378 36.5334 51.4323 36.5334 51.3321C36.5334 51.2661 36.5241 51.231 36.5334 51.1462C36.6074 50.5021 37.3792 48.5074 37.7893 47.9147C37.8046 47.895 37.8234 47.8547 37.8234 47.8247C37.8234 47.7991 37.7987 47.7845 37.7042 47.7845H36.1233C35.6 47.7845 35.4851 47.734 35.4553 47.734C35.4264 47.734 35.4068 47.7537 35.4068 47.8042C35.4068 47.8547 35.3328 48.4423 35.3328 48.6281Z" fill="black"/>
<path fill-rule="evenodd" clip-rule="evenodd" d="M29.4157 48.7234C29.4157 49.1465 29.7126 49.693 30.424 49.693C30.6758 49.693 30.9337 49.6176 31.0758 49.4626C31.086 49.4523 31.1013 49.4223 31.1013 49.4078C31.1013 49.3829 31.0817 49.3615 31.0621 49.3615C31.0426 49.3615 31.0162 49.3864 30.9626 49.4172C30.8988 49.448 30.8001 49.4771 30.6265 49.4771C30.4589 49.4771 29.9696 49.2964 29.9696 48.5282C29.9696 48.1008 30.207 47.7796 30.5627 47.7796C30.9439 47.7796 31.3132 48.171 31.3132 49.06C31.3132 50.2471 30.5423 51.0711 30.0292 51.3863C30.0045 51.4077 29.9696 51.4376 29.9696 51.4728C29.9696 51.4976 29.9943 51.5233 30.0139 51.5233C30.053 51.5233 30.0785 51.5182 30.1023 51.5027C30.715 51.2115 31.9267 50.3276 31.9267 48.9196C31.9267 48.1556 31.4867 47.5526 30.681 47.5526C29.9203 47.5526 29.4157 48.046 29.4157 48.7234Z" fill="#C7C2C1"/>
<path fill-rule="evenodd" clip-rule="evenodd" d="M26.7546 48.4624C26.7546 48.4924 26.7784 48.5172 26.7946 48.5172C26.8133 48.5172 26.8388 48.5078 26.8635 48.4984C26.9716 48.4521 27.3434 48.2568 27.4361 48.2568C27.511 48.2568 27.511 48.3177 27.511 48.4367V49.0962L27.517 49.8944C27.5204 50.3775 27.511 50.804 27.4923 51.025C27.477 51.186 27.4515 51.2571 27.2949 51.2914C27.2038 51.3119 26.952 51.3256 26.8984 51.3256C26.878 51.3256 26.8584 51.3411 26.8584 51.377C26.8584 51.4121 26.8882 51.4224 26.9426 51.4224C27.2583 51.4224 27.6744 51.4079 27.7884 51.4079C27.922 51.4079 28.2368 51.4224 28.6146 51.4224C28.6674 51.4224 28.6929 51.4121 28.6929 51.377C28.6929 51.3411 28.6674 51.3256 28.6487 51.3256C28.6087 51.3256 28.3959 51.3119 28.3219 51.2965C28.1637 51.2614 28.139 51.186 28.1237 51.025C28.1041 50.804 28.1041 50.3775 28.1041 49.8944V48.9652C28.1041 48.196 28.1347 47.6984 28.1347 47.659C28.1347 47.6085 28.1194 47.5528 28.0752 47.5528C28.036 47.5528 27.9909 47.5879 27.9467 47.6188C27.7739 47.7498 26.8235 48.3819 26.8039 48.3922C26.7784 48.4076 26.7546 48.4324 26.7546 48.4624Z" fill="#C7C2C1"/>
<path fill-rule="evenodd" clip-rule="evenodd" d="M32.3682 51.3373C32.3682 51.3767 32.4023 51.4075 32.4372 51.4075H34.3746C34.6869 51.4075 34.7661 51.3921 34.8043 51.2567C34.8537 51.0854 34.9473 50.6187 34.9473 50.5373C34.9473 50.4868 34.943 50.4431 34.9082 50.4431C34.8784 50.4431 34.8639 50.4628 34.8486 50.5227C34.7899 50.76 34.6257 50.9296 34.2862 50.9698C34.1024 50.9947 33.5195 51.0007 33.4361 51.0007H33.0992C33.0736 51.0007 33.0651 50.9844 33.089 50.9655C33.7271 50.4474 34.7899 49.5977 34.7899 48.6239C34.7899 48.0346 34.4197 47.5524 33.5493 47.5524C33.1145 47.5524 32.8473 47.6441 32.6541 47.7443C32.6005 47.7794 32.5946 47.7991 32.5946 47.8445C32.5946 47.9901 32.6201 48.4081 32.6252 48.4517C32.6295 48.5126 32.6439 48.5477 32.6695 48.5477C32.7188 48.5477 32.7341 48.5031 32.7341 48.4517C32.7341 48.3216 32.8226 48.0852 32.9409 47.9704C33.089 47.8291 33.2532 47.7888 33.465 47.7888C33.7118 47.7888 34.1424 47.9498 34.1424 48.7447C34.1424 49.805 33.1579 50.5887 32.4661 51.2062C32.4167 51.2507 32.3682 51.297 32.3682 51.3373Z" fill="#C7C2C1"/>
<path fill-rule="evenodd" clip-rule="evenodd" d="M35.4882 48.4825C35.4882 48.533 35.4924 48.5578 35.5273 48.5578C35.5579 48.5578 35.5724 48.533 35.5766 48.4927C35.5869 48.4122 35.6498 48.2512 35.74 48.1904C35.8583 48.1108 36.0668 48.1005 36.2038 48.1005H37.4852C36.8028 49.261 36.1697 50.7436 36.0327 51.2267C36.0072 51.3072 35.9978 51.3817 35.9978 51.4322C35.9978 51.4776 36.0123 51.493 36.0668 51.493C36.2888 51.493 36.6888 51.2866 36.6888 51.1864C36.6888 51.1205 36.6794 51.0853 36.6888 51.0005C36.7628 50.3565 37.5345 48.3617 37.9447 47.769C37.96 47.7493 37.9787 47.7091 37.9787 47.6782C37.9787 47.6534 37.954 47.6388 37.8604 47.6388H36.2786C35.7553 47.6388 35.6413 47.5883 35.6107 47.5883C35.5826 47.5883 35.5622 47.608 35.5622 47.6585C35.5622 47.7091 35.4882 48.2966 35.4882 48.4825Z" fill="#C7C2C1"/>
<path fill-rule="evenodd" clip-rule="evenodd" d="M49.2221 27.966C49.1107 27.8213 48.9839 27.6697 48.8537 27.5095C48.2657 26.7943 46.9647 25.0325 46.9647 25.0325C46.9647 19.3138 45.9454 18.2492 44.9005 17.3507C43.9764 16.5593 42.5078 16.1551 40.9268 15.9101C40.498 15.8433 40.0249 15.8116 39.4811 15.8116C38.9578 15.8116 38.4252 15.8399 37.9113 15.869C37.4867 15.8938 30.078 16.2064 27.7006 15.8022C26.6667 15.6275 25.2287 15.8296 24.3761 15.9324C23.9839 15.9803 21.8456 16.3238 21.592 15.9144C21.5444 15.8373 21.5503 15.6686 21.5674 15.4793C21.5971 15.1778 21.7205 14.8129 21.4865 14.4875C21.1666 14.0387 20.816 13.5548 20.6246 13.5548C20.565 13.5548 20.0341 13.9907 19.9047 14.1226C19.6903 14.3402 19.6222 14.7007 19.6307 15.117C19.6384 15.3748 19.6197 15.326 19.6018 15.3431C19.5695 15.3774 18.2072 15.3774 17.8609 15.4031C17.8609 15.332 17.8498 14.9765 17.6184 14.6382C17.4686 14.4198 17.3444 13.6952 17.3444 13.6952C17.3444 13.6952 16.8509 14.556 16.6841 14.7864C16.4978 15.039 16.3089 15.3028 16.1948 15.606C16.1514 15.7208 16.1446 15.8604 16.1361 15.9975C16.1302 16.0934 16.1166 16.2972 16.0774 16.3289C15.8162 16.5208 15.6707 16.7871 15.6452 17.1186C15.6384 17.2145 15.6622 17.3447 15.6928 17.4937C15.7132 17.5897 15.7405 17.7421 15.7405 17.8141C15.7183 17.8295 15.6894 17.8466 15.6622 17.8655C15.4307 18.0162 15.1117 18.2243 15.1312 18.5943C15.1619 19.1536 15.2895 19.372 15.4673 19.6735C15.5175 19.7592 15.566 19.8439 15.6239 19.9493C15.7013 20.1 15.7354 20.3124 15.7677 20.5197C15.8145 20.8109 15.5448 21.1304 15.7294 21.312C15.9702 21.5501 16.5931 21.5655 16.8645 21.5655C16.9394 21.5655 17.2244 21.5561 17.2933 21.5561C17.398 21.5561 17.4805 21.5621 17.5486 21.574C18.071 21.6768 18.5926 21.7222 19.0981 21.7616C19.7924 21.819 20.4501 21.8712 21.107 22.0674C22.328 22.4271 23.5295 22.9282 24.7795 23.6031C24.8492 23.6399 24.9105 23.6733 24.9743 23.7058C25.4372 23.9439 25.5368 23.9114 25.7537 24.5555C25.9716 25.197 25.5699 30.2177 25.4797 30.735C25.3419 31.5718 25.0781 32.0806 24.6442 32.2382C24.0664 32.448 23.8282 32.9054 23.5993 33.3473C23.5261 33.4912 23.538 33.6617 23.4478 33.8073C23.4478 33.8073 23.2589 34.0137 23.3236 34.0685C23.3857 34.1233 23.9728 33.9786 23.9728 33.9786C24.1728 33.9914 23.955 34.0985 24.1583 34.0985C24.6493 34.0985 25.2509 34.0959 25.8567 33.7413C26.1128 33.7413 25.9426 34.0711 26.1775 34.0265C26.9041 33.892 26.9731 33.3302 27.0607 32.794C27.2105 31.8853 27.1875 31.7269 27.287 31.6446C27.3883 31.565 27.7099 31.6986 27.7959 31.5992C27.8622 31.5256 27.7899 30.8678 27.8248 30.27C27.8793 29.4195 28.1133 28.4251 28.3651 27.6011L28.377 27.5583C28.4323 27.3768 28.5166 27.1575 28.6051 26.9245C28.8416 26.2967 29.1292 25.537 29.0952 24.9246C29.3556 24.97 29.3981 24.9871 29.5444 25.1919C29.5674 25.2244 29.6074 25.2895 29.6491 25.3606C29.9359 25.8325 30.0865 25.9644 30.2728 25.9644C30.2924 25.9644 30.312 25.9593 30.329 25.9558C30.637 25.8753 30.8038 25.6115 30.9782 25.2672C31.1509 24.9263 31.3313 24.5735 31.6198 24.5084C31.6325 24.5049 31.6453 24.5041 31.6615 24.5041C31.8963 24.5041 32.3107 24.7139 32.5481 25.0839C33.068 25.8959 33.5139 25.3272 33.5564 25.2595C33.616 25.1662 34.0312 24.4724 34.1367 24.3131C34.2618 24.1204 34.3409 24.0981 34.3664 24.0981C34.3715 24.0981 34.375 24.0981 34.3784 24.0981C34.6302 24.1375 35.7372 25.4762 36.1303 25.3854C36.5149 25.3426 36.9378 23.8754 37.1718 23.8754C37.1846 23.8754 37.1948 23.8789 37.2084 23.8823C37.2654 23.9302 37.3956 24.1289 37.4824 24.2634C37.7785 24.7114 37.8415 25.0103 38.0755 25.0103C38.1487 25.0103 38.2788 24.946 38.3571 24.7508C38.3792 24.6994 38.4686 24.4784 38.4805 24.4553C38.4933 24.4715 38.6873 25.137 39.1706 24.5478C39.1646 24.5383 39.1629 24.5298 39.1595 24.5212C39.2242 24.3705 40.1091 25.2484 40.5328 25.5944C40.9183 25.9507 41.2433 26.2625 41.2706 26.2864C42.1827 27.1061 43.3153 28.1236 43.5382 29.2328C43.6616 29.8683 43.6335 30.6031 43.4539 31.302C43.4157 31.4511 43.3791 31.5359 43.3459 31.559C43.3084 31.5838 43.208 31.5872 43.0821 31.5932C43.0268 31.5932 42.9613 31.5958 42.889 31.5992C42.5792 31.6198 42.3665 31.9538 42.1768 32.2493C42.0908 32.3898 41.9802 32.4994 41.9215 32.6005C41.8619 32.7032 41.9564 32.872 42.0117 32.9054C42.0696 32.9413 42.632 33.075 42.8013 33.075C42.8515 33.075 42.8966 33.0698 42.9375 33.0595C43.0574 33.1049 43.2046 33.1281 43.368 33.1281C43.8598 33.1281 44.4716 32.9225 44.6469 32.5791C44.9413 31.9984 45.1404 31.3628 45.3387 30.7513C45.3582 30.6811 45.3804 30.6126 45.4033 30.5449C45.4467 30.4079 45.5037 30.2571 45.5642 30.1012C45.7786 29.5394 46.1428 28.9364 45.9828 28.3857C45.8952 28.0928 45.6016 27.8084 45.4144 27.5583C45.251 27.3356 44.6299 26.5185 44.4393 26.2342C45.023 26.7986 46.6346 27.6388 47.0439 28.6212C47.1877 28.9672 47.0405 30.4053 47.0124 30.7933C47.0005 30.9757 46.9911 31.1607 46.986 31.3491C46.9698 31.9401 46.7979 32.0463 46.2108 32.1063C45.6969 32.1585 45.4638 32.9208 45.3387 33.3268C45.331 33.349 45.3242 33.3713 45.32 33.3919L45.2595 33.5811L45.4569 33.6163C45.5335 33.6291 45.6186 33.6445 45.7088 33.6617C46.0781 33.7319 46.695 33.9614 47.1298 33.9614C47.6446 33.9614 48.0071 33.8389 48.2377 33.5863C48.5329 33.2625 48.6478 32.6784 48.7482 32.1671C48.789 31.9744 48.9966 31.2858 49.0749 31.0357C49.5599 29.4674 50.0415 28.8653 49.2221 27.966ZM16.342 20.4084C16.1651 20.5197 16.0987 20.208 16.0987 20.208C16.0502 20.0855 16.0451 19.9519 16.1166 19.9013C16.2493 19.9853 16.4127 19.9835 16.4578 20.0623C16.5097 20.1497 16.4365 20.351 16.342 20.4084Z" fill="black"/>
<path fill-rule="evenodd" clip-rule="evenodd" d="M26.1428 33.2739C26.1258 33.2842 26.1062 33.2868 26.1003 33.2782L26.0544 33.2123C26.0467 33.2038 26.0561 33.1866 26.0722 33.1747L26.1096 33.1473C26.1258 33.137 26.1445 33.1344 26.1522 33.1447L26.1981 33.2106C26.204 33.2192 26.1964 33.2354 26.1802 33.25L26.1428 33.2739Z" fill="#C7C2C1"/>
<path fill-rule="evenodd" clip-rule="evenodd" d="M39.8591 24.623C39.8114 24.6435 39.7689 24.6521 39.7349 24.6607C39.7689 24.6743 39.7995 24.6855 39.831 24.6863C39.831 24.6658 39.8463 24.6435 39.8591 24.623Z" fill="#C7C2C1"/>
<path fill-rule="evenodd" clip-rule="evenodd" d="M39.5586 24.6459C39.5569 24.6441 39.487 24.5833 39.4266 24.5721C39.4078 24.5679 39.3934 24.5661 39.3823 24.5661C39.3542 24.5661 39.3431 24.5721 39.3431 24.5721L39.315 24.5859L39.3201 24.5576C39.3252 24.5379 39.3499 24.4984 39.4061 24.4984C39.4266 24.4984 39.4487 24.5036 39.47 24.5121C39.5543 24.5413 39.5833 24.6287 39.5833 24.6287L39.5969 24.6801L39.5586 24.6459Z" fill="black"/>
<path fill-rule="evenodd" clip-rule="evenodd" d="M38.9418 24.5263C38.9469 24.5058 38.9733 24.4698 39.0286 24.4698C39.0456 24.4698 39.0694 24.4732 39.0932 24.4835C39.1051 24.4895 39.1289 24.5006 39.1289 24.5006L39.1476 24.5109L39.0898 24.5571L39.083 24.5537C39.083 24.5537 39.0575 24.5451 39.049 24.5408C39.0303 24.5391 39.0158 24.5383 39.0031 24.5383C38.9759 24.5383 38.9623 24.5434 38.9623 24.5434L38.9342 24.5571L38.9418 24.5263Z" fill="black"/>
<path fill-rule="evenodd" clip-rule="evenodd" d="M39.0886 24.4951C39.1005 24.5003 39.1226 24.5122 39.1226 24.5122L39.0886 24.5396C39.0886 24.5396 39.0631 24.5294 39.0504 24.5259C38.9857 24.5157 38.9568 24.5294 38.9568 24.5294C38.9568 24.5294 38.9764 24.4575 39.0886 24.4951Z" fill="black"/>
<path fill-rule="evenodd" clip-rule="evenodd" d="M40.2629 32.8065C39.5022 32.8065 39.4035 31.5646 39.3848 31.3402C39.2018 31.3291 39.0044 31.2006 38.8683 31.0927C38.8632 31.0875 38.8487 31.079 38.8317 31.0704C38.8376 31.1612 38.8402 31.258 38.8419 31.3488C38.8521 31.4901 38.8776 31.8635 38.8896 31.9612L38.893 31.9714C38.9074 32.1127 38.9474 32.4399 38.6258 32.6198C38.533 32.6729 38.4267 32.6986 38.3126 32.6986C38.2139 32.6986 38.1289 32.678 38.0701 32.666C38.0582 32.6626 38.0463 32.6618 38.0361 32.6618L37.9791 32.6523C37.8974 32.6421 37.7876 32.6301 37.7 32.6241H37.677C37.5179 32.6241 37.0669 32.6515 36.9946 32.6618H36.9461C36.69 32.6618 36.4832 32.4562 36.4798 32.4536C36.3513 32.3286 36.3403 32.1247 36.4535 31.9637L36.4832 31.92L36.5258 31.8918C36.5513 31.8721 36.6304 31.819 36.7453 31.8001C36.8406 31.7385 36.9853 31.6554 37.2082 31.5295C37.0133 31.1423 36.1488 29.8105 36.901 29.3891C37.1801 29.2375 37.609 29.0868 38.0131 28.99C38.0174 28.9634 38.025 28.9369 38.0302 28.9121C38.0387 28.8795 38.0506 28.7784 38.0387 28.6945C37.9187 28.7596 37.8004 28.7947 37.7 28.7947C37.6685 28.7947 37.6379 28.7913 37.6073 28.7827C37.3494 28.7288 37.0167 28.3493 36.981 28.2971C36.9214 28.2183 36.7045 27.8166 36.5003 27.4389C35.9497 27.4132 35.9029 27.3961 35.8621 27.3849C35.8093 27.3652 35.7438 27.3481 35.3881 27.0466C35.269 26.9456 35.212 26.8111 35.2299 26.6741C35.2469 26.561 35.3158 26.4642 35.4162 26.4128C35.4222 26.4103 35.4298 26.4051 35.4383 26.4025C35.4843 26.3383 35.5617 26.2784 35.6902 26.2501L35.7259 26.2415L35.7685 26.2398C35.8561 26.2398 35.9327 26.2715 35.9948 26.3109C35.9982 26.2689 36.0101 26.2253 36.0323 26.1859C36.0978 26.0557 36.2331 25.9786 36.393 25.9786C36.4832 25.9786 36.5785 26.0009 36.6857 26.0488L36.7019 26.0574L36.7189 26.0694C36.7547 26.0899 36.7598 26.0899 36.764 26.0899C36.8261 26.1036 36.9887 26.155 37.0389 26.1739C37.1325 26.2141 37.1954 26.2655 37.3673 26.5661L37.6421 26.8428C37.7664 26.5499 37.917 26.4188 37.9714 26.3691C38.0514 26.3006 38.1459 26.2715 38.2446 26.2415C38.2667 26.2338 38.2956 26.2253 38.3152 26.2201C38.3552 26.1824 38.4028 26.1516 38.4522 26.1208C38.4564 26.1062 38.4616 26.0916 38.4675 26.0779C38.4258 26.0197 38.3773 25.9478 38.3373 25.8818C38.2259 25.6942 38.2403 25.5238 38.2488 25.4184L38.2505 25.3876C38.2676 25.0947 38.6309 24.8463 38.6317 24.8446C38.6734 24.8189 38.7194 24.7966 38.7585 24.7795C38.8317 24.6956 38.9593 24.5525 39.0478 24.4712C39.1227 24.4018 39.2197 24.353 39.3141 24.3196C39.3907 24.1568 39.5567 24.078 39.8085 24.078C39.8902 24.078 40.1531 24.0952 40.2408 24.1089C40.428 24.138 40.5547 24.2596 40.6194 24.4026C40.7794 24.4566 40.884 24.6039 40.9036 24.8035L40.9598 24.8652C41.0006 24.9046 41.0917 25.0125 41.1214 25.1743C41.2184 25.3653 41.2031 25.5983 41.1912 25.6985C41.1895 26.0094 41.1078 26.1927 41.0227 26.2972C41.0108 26.334 41.0006 26.3649 40.9912 26.3906C41.2857 26.5721 41.3776 26.9901 41.4039 27.1494C41.4303 27.2453 41.5452 27.6513 41.6056 27.9194C41.689 28.2945 41.5588 28.6465 41.5452 28.6859L41.5307 28.7279L41.5026 28.763C41.4771 28.7973 41.3529 28.966 41.2993 29.0303C41.1997 29.1476 41.0917 29.2007 40.9972 29.223C41.0304 29.3514 41.0619 29.4868 41.084 29.6127C41.3222 29.9116 41.449 30.3227 41.449 30.4709C41.449 30.5676 41.4209 30.6696 41.392 30.7458C41.4175 30.8203 41.4235 30.9111 41.4184 31.1132C41.5197 31.2237 41.6073 31.3822 41.6983 31.5646C41.7085 31.5826 41.7171 31.598 41.7196 31.6066C42.1723 32.5992 41.0397 32.6746 40.9683 32.6506C40.8219 32.7894 40.342 32.8065 40.2629 32.8065Z" fill="black"/>
<path fill-rule="evenodd" clip-rule="evenodd" d="M40.1901 24.4282C40.1203 24.418 39.8795 24.3991 39.8089 24.3991C39.4745 24.3991 39.6481 24.5704 39.6481 24.5704C39.6481 24.5704 39.3809 24.6064 39.2694 24.7075C39.1571 24.8102 38.9554 25.0518 38.9554 25.0518C38.9554 25.0518 38.8644 25.0835 38.8091 25.1169C38.7546 25.1528 38.6006 25.271 38.5759 25.4046C38.5606 25.4937 38.5504 25.6008 38.6168 25.7156C38.6848 25.832 38.8006 25.9871 38.8006 25.9871C38.8006 25.9871 38.8321 26.0436 38.8006 26.1095C38.7742 26.1746 38.7274 26.3391 38.7274 26.3391C38.7274 26.3391 38.5666 26.4196 38.5189 26.4761C38.4704 26.5309 38.2415 26.5652 38.1879 26.6114C38.1318 26.6611 37.9854 26.7896 37.8833 27.1348C37.7676 27.2401 37.7055 27.3703 37.7055 27.3703L37.1056 26.7613C37.1056 26.7613 37.0282 26.5155 36.9158 26.4761C36.8784 26.4607 36.6121 26.3716 36.5483 26.3442C36.3253 26.262 36.2879 26.3271 36.3321 26.387C36.3772 26.4504 36.5142 26.5155 36.5483 26.5352C36.5823 26.5549 36.5976 26.793 36.0318 26.7014C36.0088 26.6971 35.8565 26.6029 35.7637 26.5669C35.5212 26.4855 35.5638 26.7194 35.6131 26.7622C35.6642 26.8067 35.9075 27.0577 35.9646 27.0765C36.0173 27.0919 36.7048 27.1219 36.7048 27.1219C36.7048 27.1219 37.1762 28.0152 37.2409 28.106C37.309 28.1951 37.5702 28.4452 37.6765 28.4674C37.7829 28.4914 38.0977 28.3732 38.256 28.0855L38.3156 29.2546C38.3156 29.2546 37.24 29.4961 37.0418 29.6605C36.6359 29.9826 37.3532 31.2151 37.5966 31.5422C37.6714 31.6502 37.6153 31.6724 37.6153 31.6724C37.6153 31.6724 36.8631 32.0904 36.8529 32.1264C36.7823 32.1041 36.721 32.1512 36.721 32.1512C36.721 32.1512 36.6861 32.2009 36.7116 32.2266C36.7372 32.2506 36.8631 32.3456 36.9601 32.3362C37.0571 32.3259 37.5898 32.2951 37.714 32.3002C37.8382 32.3062 37.9965 32.3285 38.0756 32.3362C38.1573 32.3456 38.3292 32.4141 38.4645 32.3362C38.6032 32.26 38.5819 32.1298 38.5666 31.9996C38.5521 31.8694 38.5164 31.3624 38.5164 31.3624C38.5164 31.3624 38.5019 30.7757 38.4908 30.7046C38.6372 30.7234 38.8746 30.7808 38.9197 30.7517C38.9963 30.7089 39.0712 30.8382 39.0712 30.8382C39.0712 30.8382 39.3205 31.0335 39.4302 31.0155C39.5434 30.9932 39.563 30.9847 39.6191 30.8194C39.6583 30.7585 39.6923 30.774 39.6923 30.9281C39.6923 31.0849 39.6191 32.5092 40.2905 32.4827C40.7057 32.4655 41.0027 32.2668 41.0027 32.2668C41.0027 32.2668 41.1184 32.4261 41.2818 32.3713C41.7055 32.2154 41.4741 31.8283 41.4375 31.7683C41.4026 31.7101 41.2111 31.2801 41.0869 31.2707C41.0937 31.0892 41.0648 30.8202 41.0325 30.7466C41.052 30.7054 41.126 30.5479 41.126 30.4708C41.126 30.3971 41.0027 29.9929 40.7738 29.7547C40.7261 29.3753 40.5389 28.8066 40.5389 28.8066C40.5389 28.8066 40.7857 28.8991 40.8606 28.9077C40.938 28.9188 40.9984 28.882 41.0478 28.822C41.0988 28.7629 41.2401 28.5711 41.2401 28.5711C41.2401 28.5711 41.3524 28.2799 41.2852 27.9878C41.2196 27.6975 41.0852 27.2187 41.0852 27.2187C41.0852 27.2187 41.0197 26.757 40.7908 26.6517C40.5628 26.5463 40.5168 26.5549 40.5168 26.5549C40.5168 26.5549 40.4436 26.4556 40.4989 26.435C40.5543 26.4162 40.6393 26.3511 40.664 26.3194C40.6895 26.2894 40.7312 26.1284 40.7312 26.1284C40.7312 26.1284 40.864 26.0616 40.864 25.6753C40.864 25.6753 40.9065 25.4055 40.8061 25.2796C40.8061 25.1631 40.7261 25.0886 40.7261 25.0886L40.5781 24.9302C40.5781 24.9302 40.5985 24.7314 40.5083 24.7075C40.4181 24.6852 40.3517 24.6604 40.3517 24.6604C40.3517 24.6604 40.3458 24.4557 40.1901 24.4282Z" fill="#C7C2C1"/>
<path fill-rule="evenodd" clip-rule="evenodd" d="M40.3067 25.5634C40.2965 25.5351 40.2863 25.5205 40.2658 25.5205L40.2522 25.524L40.2445 25.5325C40.2122 25.5702 40.179 25.5908 40.1389 25.5908C40.0887 25.5908 40.0487 25.5582 40.0487 25.5582C40.0487 25.5582 40.0402 25.6688 40.1577 25.6688C40.2462 25.6688 40.3024 25.5891 40.305 25.5848L40.311 25.5754L40.3067 25.5634Z" fill="black"/>
<path fill-rule="evenodd" clip-rule="evenodd" d="M37.3668 31.7949C37.0707 31.3838 36.4215 31.3666 36.2071 31.5748C36.1952 31.5653 36.1841 31.5533 36.1739 31.5448C36.0854 31.4754 35.8199 31.317 35.6957 31.2433C35.4966 31.0343 35.414 30.9829 35.3706 30.9624C35.209 30.863 34.8967 30.75 34.6312 30.6866C34.5776 30.1187 34.5351 29.9851 34.5061 29.9252C34.507 29.9072 34.5683 29.4061 34.558 29.0892C34.7265 29.1184 34.9512 29.1552 35.1281 29.1552C35.2294 29.1552 35.3102 29.1423 35.3766 29.1184C35.5502 29.073 35.8361 28.9728 35.9552 28.7835L35.9816 28.7406L35.9926 28.6918C36.0037 28.6524 36.082 28.2807 35.8599 27.9278C35.7067 27.6863 35.2839 27.2384 35.0482 27.0131C35.0584 26.8795 35.066 26.7485 35.066 26.7476C35.0754 26.6405 35.0431 26.5266 34.9222 26.3964C34.8822 26.3588 34.5972 26.0324 34.5172 25.9845C34.4398 25.9356 34.3155 25.9031 34.2134 25.9031C34.1768 25.9031 34.1437 25.9082 34.1096 25.9177C33.8305 25.9785 33.8586 26.405 33.868 26.4418C33.8339 26.4221 33.7965 26.4024 33.7565 26.387C33.6604 26.2817 33.5225 26.22 33.3813 26.1917C33.3106 26.1395 33.206 26.0872 33.0707 26.0872C33.0622 26.0872 33.0511 26.0872 33.0409 26.0881C32.8614 26.0984 32.8588 26.1155 32.772 26.1857C32.6359 26.2149 32.5159 26.2928 32.424 26.4076C32.3449 26.453 32.2521 26.5309 32.1756 26.6637C32.0964 26.7296 32.0071 26.8392 31.9365 27.0302L31.9084 27.1013C31.8454 27.2675 31.7748 27.4559 31.825 27.6512C31.8284 27.6546 31.8292 27.6606 31.8309 27.67C31.6778 27.7111 31.4574 27.8002 31.3374 28.04C31.2838 28.1437 31.2277 28.2884 31.18 28.4135C31.1136 28.4195 30.3334 28.5128 30.3504 28.8854C30.358 28.9993 30.4117 29.1158 30.5155 29.192C30.4457 29.3171 30.4397 29.4481 30.5044 29.5586C30.5614 29.6554 30.6371 29.7265 30.7256 29.759C30.7529 29.8541 30.798 29.9509 30.8635 30.0365C30.9392 30.1341 31.0243 30.2061 31.0949 30.2575C30.9486 30.3063 30.7937 30.3757 30.6456 30.4853C30.4304 30.6326 30.1087 30.9538 30.3887 31.454C30.4338 31.5336 30.5691 31.6844 31.2532 32.361C31.2294 32.3859 30.6882 33.3837 31.5706 33.4248C31.7705 33.7639 32.4546 33.2757 32.4785 33.2629C32.5295 33.2723 33.4485 33.2783 33.206 32.5623C33.2681 32.5554 33.5872 32.4629 33.6008 32.4629C33.7046 32.5075 33.9309 32.6008 34.0654 32.6137C34.1266 32.6214 34.2253 32.6214 34.2968 32.6214C34.3904 32.6214 34.6176 32.6188 34.7282 32.5991C34.7554 32.594 34.7895 32.5846 34.8269 32.5769C34.9222 32.7327 35.072 32.9263 35.2634 33.0368C35.4957 33.1695 36.025 33.4059 36.2028 33.4856C36.2394 33.5224 36.6095 33.8325 36.8529 33.8325C37.6323 33.8325 37.3924 33.119 37.4051 33.0788C37.4689 32.8946 37.5847 32.0895 37.3668 31.7949Z" fill="black"/>
<path fill-rule="evenodd" clip-rule="evenodd" d="M34.6399 28.0171C34.6068 27.9794 34.3047 27.898 34.1805 27.8852C34.1371 27.844 33.9992 27.7995 33.9992 27.7995C33.9992 27.7995 34.189 27.6573 34.183 27.558C34.0511 26.8796 33.8231 26.8274 33.8231 26.8274C33.8231 26.8274 33.7533 26.6715 33.5576 26.6492C33.5253 26.5045 33.2453 26.478 33.2453 26.478C33.2453 26.478 33.1739 26.3837 33.0615 26.3906C32.9773 26.3957 32.9518 26.4283 32.9101 26.4797C32.9101 26.4797 32.7442 26.4531 32.6276 26.6492C32.6276 26.6492 32.4949 26.6775 32.4132 26.8762C32.4132 26.8762 32.3145 26.8993 32.2243 27.1323C32.1647 27.2976 32.0907 27.4535 32.1222 27.5725C32.1528 27.6933 32.2498 27.8201 32.2498 27.8201C32.2498 27.8201 32.1605 27.8937 32.0592 27.9246C31.9588 27.9554 31.7095 27.9759 31.6116 28.1764C31.507 28.3794 31.3827 28.7648 31.3827 28.7648C31.3827 28.7648 31.3215 28.7279 31.2475 28.7202C31.1836 28.7142 30.8858 28.7262 30.8177 28.7759C30.7812 28.8025 30.6544 28.8187 30.6561 28.8684C30.6646 29.0132 30.8926 28.9592 30.8926 28.9592L30.8399 29.2718C30.8399 29.2718 30.7446 29.366 30.7684 29.4088C30.7956 29.4534 30.8399 29.4705 30.8688 29.4585C30.9088 29.4534 30.9735 29.378 30.9735 29.378C30.9735 29.378 30.9735 29.6778 31.1045 29.8482C31.2372 30.017 31.3887 30.0821 31.3887 30.0821C31.3887 30.0821 31.4908 30.118 31.5784 30.0821C31.6678 30.0427 31.8312 29.9108 31.8448 29.8611C31.8567 29.8097 31.9026 29.641 31.9026 29.641C31.9026 29.641 31.9707 29.3712 32.003 29.366C32.032 29.3575 32.066 29.402 32.066 29.402V29.9484C32.066 29.9484 31.8507 30.357 31.8507 30.4649C31.7376 30.4769 31.244 30.4264 30.8212 30.7347C30.4723 30.9737 30.5914 31.1921 30.6561 31.3077C30.719 31.4199 31.7801 32.4511 31.8133 32.4879C31.7988 32.5265 31.8312 32.5684 31.7801 32.5684H31.6678C31.6678 32.5684 31.5053 32.5085 31.4755 32.5684C31.4091 32.7269 31.5801 32.7098 31.587 32.7406C31.5912 32.768 31.45 32.7157 31.427 32.8005C31.3998 32.8982 31.4312 32.9967 31.4968 33.0798C31.5419 33.1363 31.6525 33.1089 31.6831 33.1209C31.7154 33.1329 31.7282 33.1868 31.8116 33.2048C31.9996 33.2785 32.4098 32.941 32.4642 32.9453C32.6659 33.0489 32.8956 32.8656 32.9101 32.7517C32.9263 32.6404 32.9084 32.5813 32.8675 32.4939C32.8276 32.4083 32.6974 32.2695 32.6974 32.2695C32.6974 32.2695 32.859 32.2181 32.8931 32.2053C32.8931 32.2053 32.9135 32.1864 32.9688 32.2121C33.0199 32.2395 33.2573 32.2824 33.3253 32.2789C33.3959 32.2789 33.6597 32.1513 33.7006 32.1727C33.7414 32.195 34.0026 32.3029 34.0988 32.3115C34.1941 32.3235 34.5659 32.3201 34.6697 32.3004C34.7727 32.2807 34.9803 32.2181 34.9803 32.2181C34.9803 32.2181 35.1547 32.6232 35.4168 32.7748C35.6789 32.923 36.3834 33.2322 36.3834 33.2322C36.3834 33.2322 36.6668 33.5286 36.8531 33.5286C37.0395 33.5286 37.0871 33.371 37.0863 33.3307C37.0837 33.2922 37.0786 33.09 37.116 32.9821C37.1526 32.8742 37.1875 32.5504 37.1977 32.4023C37.2088 32.2524 37.259 31.8336 36.8591 31.7736C36.7953 31.7633 36.6583 31.7359 36.6327 31.7376C36.5766 31.7436 36.6047 31.8832 36.5842 31.8284C36.5621 31.7668 36.4949 31.7496 36.4694 31.7599C36.3936 31.7942 36.3613 31.8575 36.3656 31.8884C36.369 31.9518 36.3953 32.1162 36.3953 32.1162C36.3953 32.1162 36.0711 31.8575 35.981 31.7839C35.8899 31.7102 35.5036 31.4858 35.5036 31.4858C35.5036 31.4858 35.2926 31.2606 35.2296 31.2323C35.1939 31.1921 34.6459 30.9385 34.3464 30.9428C34.3413 30.7184 34.3294 30.1865 34.2 29.9253C34.2017 29.8542 34.2809 29.1065 34.2349 28.9104C34.2137 28.8256 34.3438 28.7571 34.4119 28.7571C34.4766 28.7571 35.1122 28.9052 35.2841 28.8299C35.2841 28.8299 35.6193 28.7459 35.6959 28.6226C35.6959 28.6226 35.7606 28.3442 35.6015 28.089C35.4389 27.8355 34.8748 27.2565 34.7276 27.1323C34.748 26.9876 34.7608 26.7229 34.7608 26.7229C34.7608 26.7229 34.7608 26.6664 34.7233 26.6278C34.6825 26.5859 34.4255 26.2912 34.3915 26.2604C34.3609 26.2347 34.2451 26.1936 34.1966 26.209C34.1498 26.2227 34.1652 26.3264 34.1924 26.3538C34.223 26.3837 34.2979 26.4488 34.2979 26.4488L34.3387 26.5619C34.3387 26.5619 34.2877 26.5893 34.2766 26.615C34.2673 26.6373 34.2673 26.7709 34.2877 26.8C34.3055 26.8274 34.3694 26.8411 34.3694 26.8411C34.3694 26.8411 34.3098 26.967 34.2536 26.973C34.206 26.9019 34.1252 26.6921 34.0545 26.7597C34.0222 26.7931 34.0052 26.8522 34.0222 26.9105C34.0392 26.9644 34.1311 27.2325 34.1805 27.2822C34.2307 27.3336 34.263 27.3593 34.263 27.3593C34.263 27.3593 34.6195 27.9177 34.6399 28.0171Z" fill="#C7C2C1"/>
<path fill-rule="evenodd" clip-rule="evenodd" d="M38.8827 24.6261C38.7678 24.6261 38.6232 24.5575 38.5857 24.3563C38.5738 24.316 38.4751 24.0831 38.3858 23.8749C37.8974 22.7272 37.9374 23.1461 37.9825 22.9628C38.0658 22.6313 38.516 22.5945 38.847 22.5945C38.9252 22.5945 38.9848 22.5953 39.0035 22.597C39.1652 22.5988 39.3081 22.6604 39.4154 22.7701C39.6 22.9499 39.6459 23.2137 39.6451 23.3422C39.6442 23.3559 39.3992 24.0976 39.2767 24.322L39.2707 24.3331C39.092 24.6244 38.9363 24.6261 38.8827 24.6261Z" fill="black"/>
<path fill-rule="evenodd" clip-rule="evenodd" d="M19.6607 18.9346C19.4165 18.6476 19.2387 18.1646 19.3986 18.0764C19.5577 17.9882 19.71 18.1106 19.8087 18.1646C19.9525 18.2442 20.0266 18.1903 20.0147 17.9976C20.0096 17.846 19.9925 17.7038 19.9755 17.5693C19.9279 17.1556 19.71 16.7017 19.5433 16.521C19.2633 16.2178 18.4626 15.8675 17.9632 16.2092C17.8168 16.3077 17.7088 16.4687 17.616 16.6623C17.5811 16.73 17.6807 16.825 17.6509 16.9004C17.4654 17.3526 17.1863 17.8751 16.8613 18.2083C16.8451 18.2254 17.9683 18.3179 19.5577 19.4921C19.6973 19.5941 19.4301 20.1653 19.3374 20.1362C19.2889 20.1311 19.5007 19.6566 19.3425 19.5684C18.6149 19.1555 18.1827 19.105 17.6356 18.9054C17.5037 18.8583 17.1225 19.1024 17.0229 19.0117C16.8876 18.8309 16.4699 18.6262 16.429 18.6065C16.4443 18.6151 16.4954 18.6528 16.5158 18.8309C16.5686 19.284 15.7296 18.8309 16.4409 19.5555C16.6417 19.7559 16.8306 19.9118 16.9804 19.8467C17.2067 19.8442 17.1046 19.8758 17.1267 19.929L17.2476 20.2176C17.2714 20.2733 17.2978 20.2673 17.3071 20.2099L17.3624 19.9067C17.3726 19.8493 17.428 19.803 17.4884 19.8039C17.4884 19.8039 18.5639 19.8279 18.7809 19.8493C18.9996 19.8724 19.0132 19.9521 19.0132 19.9521C19.0208 20.0103 19.1085 20.1362 18.9289 20.281C18.7953 20.3863 18.4763 20.1653 18.2201 20.3726C17.9649 20.5816 17.456 20.6758 17.456 20.6758C17.3999 20.6844 17.3335 20.651 17.3088 20.597L17.1795 20.3024C17.1574 20.2467 17.1344 20.2518 17.1267 20.3109L17.0961 20.6929C17.0902 20.7529 17.0748 20.8009 17.0595 20.8009C17.0417 20.8026 17.0119 20.7597 16.9863 20.7075L16.977 20.6878C16.9506 20.6338 16.8987 20.6261 16.8613 20.6724L16.7932 20.7478C16.7558 20.7923 16.7004 20.7872 16.6698 20.7358L16.6443 20.6929C16.6162 20.645 16.5652 20.645 16.5345 20.6929L16.4945 20.7615C16.4639 20.8111 16.4231 20.8077 16.4043 20.7529L16.3899 20.7084C16.3712 20.6535 16.3363 20.651 16.3141 20.7049C16.2971 20.7443 16.2716 20.7529 16.2529 20.7289C16.2163 20.7649 16.1899 20.7923 16.1789 20.8009C16.1482 20.8325 16.0716 20.9002 16.0699 20.9619C16.0665 21.0235 16.1448 21.0578 16.5158 21.1332C16.8876 21.2103 18.609 20.5028 19.1536 20.6193C19.7832 20.7503 20.0249 20.2304 20.0691 19.5564C20.0691 19.5401 20.0632 19.5016 20.0555 19.4485C19.9449 19.2712 19.7866 19.0853 19.6607 18.9346Z" fill="#C7C2C1"/>
<path fill-rule="evenodd" clip-rule="evenodd" d="M46.8263 32.5136C46.7668 32.6198 46.5694 32.6421 46.5004 32.6678C46.3541 32.7295 46.2222 32.8151 46.2282 32.917C46.2282 32.9556 46.2052 33.4335 46.2282 33.4772C46.2528 33.5311 46.4511 33.5979 46.4928 33.5311C46.5234 33.49 46.4902 33.1517 46.5268 32.9213C46.5345 32.887 46.5583 32.75 46.6238 32.7175C46.6485 32.7098 46.8774 32.6095 46.8263 32.5136Z" fill="#C7C2C1"/>
<path fill-rule="evenodd" clip-rule="evenodd" d="M30.259 24.157C30.4326 24.1399 30.6802 24.0945 30.7619 24.157C30.8461 24.217 30.9687 24.4388 30.9602 24.5716C30.9533 24.7052 30.5194 25.4083 30.4922 25.4409C30.4624 25.4726 30.4198 25.5745 30.3407 25.47C30.2624 25.3612 30.1263 24.2821 30.1263 24.2821C30.1263 24.2821 30.1042 24.1741 30.259 24.157Z" fill="#C7C2C1"/>
<path fill-rule="evenodd" clip-rule="evenodd" d="M49.0364 28.3254C48.8007 27.9794 48.2068 27.3653 47.9685 27.075C47.6512 26.6801 46.2021 24.9723 46.2021 24.9723C46.2021 24.9723 45.7877 22.3866 45.6099 21.7999C45.4967 21.4222 45.1836 18.6985 43.0861 17.2168C43.2019 17.025 44.5599 18.099 45.0491 18.9341C45.94 20.4458 46.3178 24.401 46.3178 24.401C46.3178 24.401 46.8862 18.3619 43.709 17.084C41.432 16.1265 40.2944 16.2789 40.2944 16.2789C40.2944 16.2789 38.7177 17.2322 39.6673 19.0454C39.8536 19.3966 41.9255 22.5973 42.0591 22.8499C43.2393 25.0742 46.9917 27.6694 47.6733 28.3768C47.7099 28.4128 48.3557 28.8393 48.4017 29.3113C48.4102 29.3995 47.5235 28.8034 47.5346 28.9113C47.6546 30.0273 47.5261 32.1728 47.5074 32.4177C47.4869 32.7004 47.4725 32.7415 47.2997 32.8032C47.1279 32.8665 46.9534 32.703 46.8488 32.995C46.7331 33.3205 46.7756 33.5594 47.0734 33.5594C47.3712 33.5594 47.823 33.7179 48.1081 32.6164C48.394 31.5047 49.0228 29.5305 49.21 28.8051C49.2568 28.6304 49.1181 28.4419 49.0364 28.3254Z" fill="#C7C2C1"/>
<path fill-rule="evenodd" clip-rule="evenodd" d="M17.3088 14.6724C17.3088 14.6724 17.559 15.4116 17.553 15.6171C17.5505 15.8295 17.4858 15.8432 17.4858 15.8432L16.7464 16.1687C16.7464 16.1687 16.9072 15.9811 16.9914 15.7456C17.0757 15.5083 17.3131 14.8968 17.3088 14.6724Z" fill="#C7C2C1"/>
<path fill-rule="evenodd" clip-rule="evenodd" d="M43.234 32.0849C43.234 32.0849 43.143 32.0557 43.0911 32.1242C43.0213 32.2185 42.9906 32.579 42.9906 32.579C42.9906 32.579 43.0774 32.687 43.234 32.6244C43.3906 32.5628 43.7156 32.3204 43.6109 32.2407C43.5097 32.1645 43.234 32.0849 43.234 32.0849Z" fill="#C7C2C1"/>
<path fill-rule="evenodd" clip-rule="evenodd" d="M42.9504 31.9124C42.9504 31.9124 42.8091 31.9106 42.7444 31.9826C42.6755 32.0597 42.5496 32.2747 42.5572 32.3603C42.5657 32.4451 42.6908 32.5847 42.7529 32.4991C42.8176 32.4143 43.1086 31.9038 42.9504 31.9124Z" fill="#C7C2C1"/>
<path fill-rule="evenodd" clip-rule="evenodd" d="M15.795 18.4719C15.6289 18.7359 16.1084 18.9656 16.231 18.8242C16.3204 18.4659 15.9585 18.3321 15.795 18.4719Z" fill="#C7C2C1"/>
<path fill-rule="evenodd" clip-rule="evenodd" d="M24.3224 32.9343C24.3224 32.9343 24.0459 33.491 24.0399 33.5492C24.0314 33.604 24.0459 33.6443 24.0774 33.6443C24.1097 33.6443 24.2067 33.6726 24.2799 33.622C24.3471 33.5706 24.61 33.0199 24.644 32.9463C24.6534 32.924 24.4381 32.8007 24.3224 32.9343Z" fill="#C7C2C1"/>
<path fill-rule="evenodd" clip-rule="evenodd" d="M45.7353 28.837C45.8749 28.3428 45.4163 28.2914 45.258 28.9312C45.2035 29.1496 44.5705 31.4673 44.5007 32.0788C44.4973 32.1105 44.5186 32.1379 44.5483 32.1002C44.5569 32.3126 45.6741 29.0588 45.7353 28.837Z" fill="#C7C2C1"/>
<path fill-rule="evenodd" clip-rule="evenodd" d="M25.2089 16.2266C24.0942 16.4425 22.5328 16.5333 21.6862 16.4185C21.014 16.326 20.9825 15.908 21.1042 15.5414C20.483 16.1615 20.1529 15.92 20.1384 15.8429C20.1163 15.7453 20.3673 15.8429 20.5333 15.6785C20.7 15.5149 20.797 14.9308 20.6643 14.6498C20.5341 14.3689 20.6779 14.4194 20.6779 14.4194C20.6779 14.4194 21.0234 14.4546 21.1723 14.8725C21.2718 14.4546 20.7 13.9364 20.5145 14.0554C20.3282 14.1753 19.9529 14.4854 20.0065 14.9368C20.0721 15.496 20.0312 15.7744 19.8508 15.765C18.6341 15.7127 17.2718 15.5491 16.5153 16.3397C16.5153 16.3397 17.4318 15.7316 18.1371 15.7975C18.8408 15.8643 20.2848 16.0074 20.3716 17.7126C20.3716 17.7126 20.3546 18.0929 20.3877 18.5391C20.4048 18.7747 20.181 18.6248 20.181 18.7301C20.1929 19.2012 20.5256 19.1276 20.4975 19.537C20.3818 21.214 19.6134 21.1763 19.6134 21.1763C19.6134 21.1763 20.5401 21.3082 21.0004 19.7417C20.9987 20.6393 20.9042 20.8654 20.5452 21.2157C21.254 21.2619 21.8104 20.587 21.8258 20.4885C21.9313 20.6564 22.1321 21.2045 22.6596 21.4315C22.401 20.9973 22.4622 20.4688 22.5184 20.0055C22.6766 21.0512 22.9404 21.4401 23.4756 21.6696C23.2612 21.4486 22.8238 20.975 22.9549 20.1254C23.0578 20.8525 23.8994 21.4975 23.8994 21.4975C23.8994 21.4975 23.6305 21.0624 23.5607 20.2932C23.9215 21.0735 24.3087 21.1394 24.3087 21.1394C24.3087 21.1394 23.7105 20.5056 23.6067 19.6817C23.5956 19.668 24.0296 20.2418 24.3793 20.2418C24.1095 19.9147 23.6824 19.4513 23.6339 18.8638C23.9011 19.2158 24.0968 19.4445 24.4108 19.477C24.1478 19.1764 23.93 18.6873 23.8483 18.1032C24.1487 18.4826 24.0968 18.6051 24.6643 18.761C24.4422 18.5486 24.2942 17.9567 24.4014 17.6758C24.5001 17.8685 24.8762 18.0758 25.3221 18.1332C25.1783 18.039 24.9468 17.4797 24.9809 17.2578C25.1834 17.3572 25.619 17.5054 25.967 17.4583C25.8011 17.3606 25.6845 16.869 25.7364 16.7534C25.8283 16.8125 26.4903 16.8005 26.6282 16.7534C26.4146 16.6155 26.2274 16.4159 26.2785 16.4339C26.4384 16.4904 26.6988 16.3551 27.04 16.3003C27.3982 16.2403 27.4612 16.2378 27.6892 16.2438C27.4672 16.1358 26.0785 16.0108 25.2089 16.2266Z" fill="#C7C2C1"/>
<path fill-rule="evenodd" clip-rule="evenodd" d="M36.4298 23.2165C36.4298 23.2165 35.7159 23.1711 35.6589 23.393C35.6053 23.6114 35.9839 24.7796 36.0435 24.9201C36.1303 25.1402 36.3736 24.6289 36.3736 24.6289C36.4502 24.4901 36.7395 23.8024 36.7412 23.7082C36.7412 23.5934 36.7514 23.2131 36.4298 23.2165Z" fill="#C7C2C1"/>
<path fill-rule="evenodd" clip-rule="evenodd" d="M33.6381 23.3302C33.6381 23.3302 32.9267 23.2865 32.8706 23.5032C32.8161 23.7241 33.1199 24.7476 33.1701 24.8898C33.2399 25.1031 33.393 24.7819 33.393 24.7819C33.4679 24.6414 34.0388 23.9168 34.0388 23.8218C34.0388 23.707 33.9631 23.3284 33.6381 23.3302Z" fill="#C7C2C1"/>
<path fill-rule="evenodd" clip-rule="evenodd" d="M38.6346 16.2491C38.4116 16.262 36.5516 16.4735 35.3119 16.477C34.324 16.4795 33.2765 16.4316 32.7192 16.4521C32.6749 16.4453 32.6052 16.4513 32.5431 16.4598H32.5414C31.71 16.4221 29.0536 16.3827 29.0536 16.3827C28.8562 16.3399 26.1597 17.0448 25.77 20.0622C25.5283 21.9225 25.644 22.5152 26.0627 23.3982C26.3094 23.9241 26.8098 24.8962 26.7936 25.6516C26.7868 25.9685 26.2278 24.3267 26.2363 24.5117C26.3154 26.4225 25.9853 30.7255 25.7981 31.6359C25.5726 32.7237 25.3573 32.1755 25.102 32.6295C25.062 32.7014 24.5081 33.7146 24.5217 33.7258C24.5345 33.7352 24.8 33.6941 25.0808 33.6675C25.4075 33.6564 25.6772 32.7596 25.901 32.7596C25.9368 32.7596 25.6551 33.4825 25.6968 33.4697C25.9291 33.4114 26.3094 33.3155 26.2831 33.4996C26.369 33.5279 26.4354 33.4842 26.4847 33.4226C26.5528 33.3403 26.86 31.9485 27.048 31.2265C27.0914 31.1058 27.3994 31.176 27.4845 31.2068C27.6513 30.8677 27.3824 29.7294 27.8683 28.1517C28.3456 26.5981 28.8502 25.2534 28.6247 24.8517C28.5992 24.808 27.7832 25.8992 27.7662 25.8563C27.7126 25.7313 30.4277 21.1388 29.9002 18.7612C29.8925 18.6764 29.8559 18.5796 29.8559 18.5111C29.8525 18.494 30.1674 18.6259 30.5613 18.7295C31.0693 18.8905 31.516 18.9728 31.67 19.5637C31.8538 20.7089 32.3805 22.3268 33.4501 22.4235C32.9668 21.9782 32.3423 19.6991 32.418 18.7612C32.7192 20.29 33.6424 22.5006 34.4057 22.4021C34.2508 22.1572 33.6126 20.7645 33.6126 19.8875C33.8875 20.6138 34.5444 22.2086 35.0404 22.218C36.3363 22.2445 36.6673 21.6527 37.6263 21.4352C39.7705 20.9461 40.3321 21.7726 40.6606 21.9448C40.3985 21.6904 39.5016 20.1153 38.9069 18.8905C38.4355 17.915 39.2328 16.9455 40.5925 16.3399C40.8597 16.2209 39.0583 16.2388 38.6346 16.2491Z" fill="#C7C2C1"/>
<path fill-rule="evenodd" clip-rule="evenodd" d="M38.996 22.8471C38.996 22.8471 38.2812 22.8017 38.2285 23.0201C38.1715 23.2419 38.6769 24.0779 38.8326 24.3117C38.9449 24.4787 39.0581 24.2029 39.0581 24.2029C39.133 24.0624 39.3933 23.4338 39.3933 23.3404C39.3933 23.2248 39.3176 22.8471 38.996 22.8471Z" fill="#C7C2C1"/>
<path fill-rule="evenodd" clip-rule="evenodd" d="M32.1391 22.2448C31.803 22.1266 31.3911 21.426 31.2678 21.1254C31.1393 20.8213 30.9164 19.9348 31.0508 19.6077C31.124 19.9306 31.3163 20.6183 31.4609 20.9267C31.6813 21.39 31.9604 21.9947 32.1391 22.2448Z" fill="#C7C2C1"/>
<path fill-rule="evenodd" clip-rule="evenodd" d="M39.3934 31.3119C39.3304 31.1808 39.0096 31.0532 38.8684 31.0335C38.7382 31.0164 38.7127 31.0121 38.699 31.1414C38.688 31.2493 38.682 31.365 38.705 31.4797C38.7382 31.6733 38.7552 31.6185 38.9305 31.6288C39.0632 31.6356 39.1823 31.6562 39.3142 31.6493C39.4359 31.639 39.4623 31.6356 39.4623 31.5226C39.4623 31.4369 39.4921 31.3324 39.3934 31.2999" fill="black"/>
<path fill-rule="evenodd" clip-rule="evenodd" d="M17.9654 16.903C17.9654 16.903 18.1833 16.5252 18.4487 16.4482C18.6427 16.3933 18.8478 16.5047 19.1507 16.7094C19.4553 16.9149 19.617 17.2353 19.9157 17.1513C20.0186 17.1222 19.6851 17.4965 19.3941 17.3912C19.3226 17.3637 18.8852 16.6297 18.4572 16.6417C18.4572 16.6417 18.1833 16.6948 17.9654 16.903Z" fill="black"/>
<path fill-rule="evenodd" clip-rule="evenodd" d="M18.7489 16.5503C18.3898 16.4467 18.183 16.6959 18.183 16.6959C18.2758 16.4553 18.7029 16.6034 18.8893 16.6822C18.9905 16.7268 19.1326 16.964 19.2347 17.1576C19.1199 17.042 18.9616 16.9195 18.8272 16.9083C18.5583 16.8835 18.5294 17.2441 18.5294 17.2441L18.3915 17.4145C18.3915 17.4145 18.4119 17.4582 18.6196 17.4582C18.8272 17.4582 19.5547 17.4496 19.6508 17.3597C19.747 17.2724 19.1403 16.6642 18.7489 16.5503ZM18.8272 17.3306C18.76 17.3306 18.7072 17.2621 18.7072 17.1816C18.7072 17.1002 18.76 17.0334 18.8272 17.0334C18.8918 17.0334 18.9735 17.1028 18.9735 17.1841C18.9735 17.2638 18.8918 17.3306 18.8272 17.3306Z" fill="black"/>
<path fill-rule="evenodd" clip-rule="evenodd" d="M22.5041 18.7299C22.5041 18.7299 22.6241 19.1445 22.7551 19.225C22.8836 19.3038 23.2214 18.795 23.2214 18.795C23.2214 18.795 22.9874 19.4065 22.7815 19.5641C22.613 19.4374 22.5467 19.2815 22.5041 18.7299Z" fill="black"/>
<path fill-rule="evenodd" clip-rule="evenodd" d="M22.996 19.1931C22.996 19.1931 23.1917 19.6025 23.3227 19.6821C23.4529 19.7618 23.7516 19.2753 23.7516 19.2753C23.7516 19.2753 23.4861 19.9031 23.3482 20.0222C23.2223 19.9108 22.9772 19.7644 22.996 19.1931Z" fill="black"/>
<path fill-rule="evenodd" clip-rule="evenodd" d="M21.8641 19.8894C21.8641 19.8894 22.104 20.3314 22.2453 20.3862C22.4878 20.4864 22.504 19.844 22.504 19.844C22.504 19.844 22.6061 20.5575 22.3389 20.793C22.1151 20.662 21.9977 20.5729 21.8641 19.8894Z" fill="black"/>
<path fill-rule="evenodd" clip-rule="evenodd" d="M22.4695 19.6306C22.4695 19.6306 22.598 20.0186 22.718 20.1111C22.8405 20.2036 23.0949 19.5116 23.0949 19.5116C23.0949 19.5116 23.0099 20.1959 22.8184 20.5402C22.6942 20.3954 22.484 20.1788 22.4695 19.6306Z" fill="black"/>
<path fill-rule="evenodd" clip-rule="evenodd" d="M22.9618 19.943C22.9618 19.9636 23.1932 20.3096 23.3379 20.373C23.4817 20.438 23.577 19.8436 23.577 19.8436C23.577 19.8436 23.6169 20.5228 23.4434 20.719C23.3455 20.6479 23.0094 20.4783 22.9618 19.943Z" fill="black"/>
<path fill-rule="evenodd" clip-rule="evenodd" d="M23.0949 18.3036C23.0949 18.3036 23.3212 18.8209 23.471 18.9006C23.6225 18.9802 23.8488 18.4235 23.8488 18.4235C23.8488 18.4235 23.7339 19.0308 23.4616 19.2218C23.2787 19.0565 23.2217 18.952 23.0949 18.3036Z" fill="black"/>
<path fill-rule="evenodd" clip-rule="evenodd" d="M22.711 17.8533C22.711 17.8533 22.8539 18.2439 22.9816 18.3124C23.1109 18.3809 23.3347 17.8533 23.3347 17.8533C23.3347 17.8533 23.2019 18.5231 22.996 18.7321C22.8573 18.619 22.7927 18.4315 22.711 17.8533Z" fill="black"/>
<path fill-rule="evenodd" clip-rule="evenodd" d="M23.498 17.7174C23.498 17.7174 23.6172 18.054 23.7269 18.1276C23.8367 18.1987 24.0094 17.9041 24.0094 17.9041C24.0094 17.9041 23.9413 18.3709 23.7354 18.4317C23.652 18.3546 23.5601 18.2039 23.498 17.7174Z" fill="black"/>
<path fill-rule="evenodd" clip-rule="evenodd" d="M24.1035 17.3262C24.1035 17.3262 24.1708 17.6414 24.2635 17.7082C24.3537 17.7733 24.523 17.4855 24.523 17.4855C24.523 17.4855 24.5009 17.8375 24.255 17.9951C24.1648 17.8863 24.0576 17.7527 24.1035 17.3262Z" fill="black"/>
<path fill-rule="evenodd" clip-rule="evenodd" d="M24.6692 16.8645C24.6692 16.8645 24.7347 17.178 24.8275 17.2465C24.9185 17.3133 25.087 17.0238 25.087 17.0238C25.087 17.0238 25.0563 17.4529 24.8249 17.5C24.8564 17.5428 24.6258 17.2465 24.6692 16.8645Z" fill="black"/>
<path fill-rule="evenodd" clip-rule="evenodd" d="M21.9909 19.1277C21.9909 19.1277 22.1986 19.5002 22.2956 19.5096C22.39 19.5199 22.5746 19.1277 22.5746 19.1277C22.5746 19.1277 22.4887 19.6553 22.2956 19.7615C22.2096 19.6535 22.0386 19.4874 21.9909 19.1277Z" fill="black"/>
<path fill-rule="evenodd" clip-rule="evenodd" d="M23.2231 17.3718C23.2231 17.3718 23.309 17.6819 23.4052 17.7435C23.5013 17.8052 23.6519 17.5054 23.6519 17.5054C23.6519 17.5054 23.6017 17.9474 23.4358 18.0767C23.3286 17.9765 23.2018 17.8172 23.2231 17.3718Z" fill="black"/>
<path fill-rule="evenodd" clip-rule="evenodd" d="M28.2235 16.6331C28.2235 16.6331 29.4402 16.168 29.7278 18.1328C29.858 17.4142 29.6964 16.5594 29.2028 16.3025C28.7102 16.0447 28.2235 16.6331 28.2235 16.6331Z" fill="black"/>
<path fill-rule="evenodd" clip-rule="evenodd" d="M18.7361 15.7181C18.7361 15.7181 20.7229 15.8432 21.0735 18.1035C21.1833 17.6838 20.7348 16.3177 20.163 15.9854C20.0992 15.946 19.8533 15.8226 20.0346 15.4209C19.3666 15.3233 18.7361 15.7181 18.7361 15.7181Z" fill="black"/>
<path fill-rule="evenodd" clip-rule="evenodd" d="M41.0975 31.1755C41.0975 31.1755 41.0899 32.1022 40.8925 32.3352H41.0005C41.0397 32.2992 41.1188 32.0029 41.1452 31.8915C41.1758 31.7648 41.169 31.2552 41.169 31.2552L41.0975 31.1755Z" fill="black"/>
<path fill-rule="evenodd" clip-rule="evenodd" d="M39.92 24.7707C39.9302 24.7827 39.926 24.8461 39.9166 24.8949C39.9158 24.8975 39.8911 24.9917 40.0187 25.0551C40.1004 25.0945 40.1472 25.163 40.1787 25.2084C40.1855 25.2204 40.1923 25.2315 40.1983 25.2401C40.2178 25.2649 40.2263 25.288 40.2102 25.3446C40.2025 25.3728 40.1897 25.3891 40.1787 25.4002C40.1676 25.4131 40.1532 25.4302 40.1617 25.4559L40.1634 25.4602C40.1719 25.4885 40.1923 25.5518 40.2536 25.5784C40.2612 25.5887 40.2944 25.6289 40.2612 25.7283L40.2527 25.7582C40.2127 25.8662 40.2459 26.1317 40.3089 26.112C40.3735 26.0948 40.3591 25.8662 40.3786 25.8388C40.4161 25.7908 40.4408 25.652 40.4271 25.5784C40.4237 25.5493 40.4127 25.5321 40.3991 25.521C40.3395 25.4833 40.3208 25.4559 40.3208 25.4473C40.3208 25.4431 40.331 25.4302 40.3378 25.4216C40.3472 25.4062 40.3616 25.3874 40.3752 25.3617C40.3957 25.3094 40.3829 25.2401 40.3591 25.1913C40.3421 25.1519 40.2289 25.0037 40.1617 24.9814C40.1047 24.966 40.0723 24.9326 40.0715 24.9009C40.0715 24.8846 40.074 24.8615 40.0749 24.8409C40.0817 24.7878 40.0859 24.7399 40.0655 24.7108C39.8741 24.4418 39.5882 24.4761 39.5882 24.4761L39.4639 24.6114C39.4639 24.6114 39.6852 24.5009 39.92 24.7707Z" fill="black"/>
<path fill-rule="evenodd" clip-rule="evenodd" d="M38.9749 25.1404C39.049 25.137 39.101 25.2579 39.1061 25.2853C39.1086 25.3136 39.0916 25.3093 39.055 25.3016C39.0184 25.2964 38.986 25.2202 38.9094 25.2227C38.8353 25.2279 38.8327 25.2853 38.8063 25.2793C38.7782 25.2742 38.9 25.1456 38.9749 25.1404Z" fill="black"/>
<path fill-rule="evenodd" clip-rule="evenodd" d="M39.546 24.9415C39.6251 24.9706 39.648 25.0528 39.648 25.0528C39.648 25.0528 39.5741 24.9869 39.5086 24.9741C39.4423 24.9621 39.4134 24.9775 39.4134 24.9775C39.4134 24.9775 39.4329 24.9013 39.546 24.9415Z" fill="black"/>
<path fill-rule="evenodd" clip-rule="evenodd" d="M40.6627 29.2333L40.5963 28.9113L40.5597 28.7965L39.9828 27.7088L39.959 27.6694C39.9411 27.648 39.9258 27.6257 39.8773 27.5837C39.8654 27.5692 39.8747 27.552 39.8909 27.5546C40.0943 27.5794 40.4448 27.4818 40.5282 27.4518C40.552 27.4818 41.1128 28.1422 41.1545 28.1139C41.1979 28.0865 40.5861 27.2771 40.5835 27.2763C40.5835 27.2711 40.6414 26.9422 40.6269 26.9028C40.6014 26.8257 40.4363 26.7033 40.3717 26.7033C40.3674 26.7033 40.364 26.7041 40.3614 26.7058C40.347 26.6836 40.3393 26.6647 40.3342 26.6579L40.3249 26.6407C40.2798 26.5671 40.2474 26.5097 40.2227 26.4729C40.3368 26.5097 40.4474 26.5465 40.455 26.55L40.518 26.5551L40.5818 26.4643L40.1121 26.3041C40.0687 26.2913 40.0228 26.1988 40.0185 26.1234C40.0168 26.0712 40.347 25.7457 40.2823 25.7252C40.1572 25.6823 39.8535 26.0112 39.8484 26.1054C39.8424 26.1688 39.8756 26.3076 39.9326 26.3649C39.913 26.3906 39.896 26.4215 39.896 26.4557C39.314 26.4951 39.1013 26.7084 39.0774 26.8155C39.0774 26.8155 39.5437 26.6279 39.7097 26.6022C39.6016 26.7041 39.776 26.9045 39.776 26.9045C39.7531 26.8977 39.6986 26.8609 39.6407 26.9045C39.5293 26.9902 39.6424 27.1718 39.6646 27.2112C39.6195 27.2146 39.588 27.2249 39.571 27.2403C39.5148 27.3071 39.6254 27.4475 39.7046 27.5358C39.7437 27.5752 39.571 27.564 39.0774 27.194C39.0911 27.5546 39.6858 27.7713 39.8739 27.7747C39.879 27.7799 40.6388 29.1836 40.6627 29.2333ZM39.6782 27.3071C39.7122 27.2677 39.8092 27.3585 39.8339 27.3345C39.8586 27.3097 39.6356 27.0527 39.7071 27.0022C39.7888 26.9448 39.8875 27.1435 39.9326 27.1101C39.9777 27.0758 39.959 27.051 39.9471 27.021C39.9445 27.0073 39.8484 26.8309 39.8458 26.8309C39.8381 26.8206 39.736 26.6604 39.8033 26.6262C39.8739 26.6039 39.9445 26.7195 39.9607 26.7401C39.9666 26.7452 40.0968 26.9816 40.153 26.9525C40.2066 26.9217 40.0543 26.5705 40.0543 26.5705C40.0424 26.538 39.9794 26.4489 40.0117 26.4215C40.0424 26.3958 40.0798 26.4026 40.1683 26.5243C40.1785 26.5362 40.4184 26.9773 40.4474 26.9611C40.4474 26.9611 40.4525 26.8703 40.4159 26.8035C40.4644 26.8429 40.5571 26.8677 40.552 26.9362C40.552 26.9585 40.5427 27.1478 40.5069 27.194C40.4014 27.3259 39.9062 27.4929 39.7496 27.4664C39.7377 27.451 39.639 27.3525 39.6782 27.3071Z" fill="black"/>
<path fill-rule="evenodd" clip-rule="evenodd" d="M38.2982 29.1824L38.2191 29.2303L38.0957 29.3057C38.1161 29.3571 38.6011 30.5476 39.0955 30.921L39.1116 30.8756C38.4497 29.9755 38.2982 29.1824 38.2982 29.1824Z" fill="black"/>
<path fill-rule="evenodd" clip-rule="evenodd" d="M40.1245 29.7886C39.8259 29.834 39.6191 30.8189 39.6191 30.8189C39.6906 30.7264 39.6923 30.8857 39.6923 30.8857C39.6923 30.8857 39.9305 30.0489 40.1381 29.965C40.3441 29.8768 40.658 29.9136 40.658 29.9136C40.658 29.9136 40.4223 29.744 40.1245 29.7886Z" fill="black"/>
<path fill-rule="evenodd" clip-rule="evenodd" d="M37.8414 28.2346C37.8746 28.2149 37.7597 27.2805 37.7597 27.2805L37.7163 27.325L37.644 27.2805C37.6057 27.361 37.8048 28.2569 37.8414 28.2346Z" fill="black"/>
<path fill-rule="evenodd" clip-rule="evenodd" d="M38.0583 27.4844L38.1315 28.2484L38.2608 28.1731L38.2277 27.6129C38.2277 27.6129 38.2906 27.642 38.3127 27.6232C38.3366 27.6026 38.2098 27.4896 38.2021 27.3474C38.1962 27.2463 38.3127 27.1144 38.2932 27.1007C38.2727 27.0879 38.2311 27.1264 38.2311 27.1264C38.2387 27.0339 38.2464 26.9329 38.2532 26.8669C38.2625 26.7761 38.3834 26.592 38.3834 26.592C38.1119 26.6862 38.0643 26.998 38.0643 26.998L38.0456 27.2395C38.0447 27.2429 38.0209 27.3149 38.0209 27.3645C38.0209 27.4193 38.0549 27.4844 38.0583 27.4844Z" fill="black"/>
<path fill-rule="evenodd" clip-rule="evenodd" d="M37.7349 29.9021C37.7 30.0956 38.4981 30.8451 38.4981 30.8451L38.7193 30.7406C38.7193 30.7406 37.9621 30.1864 37.7349 29.9021Z" fill="black"/>
<path fill-rule="evenodd" clip-rule="evenodd" d="M38.3919 26.5254C38.425 26.5468 38.6148 26.5751 38.9551 26.7944C39.0045 26.7087 38.648 26.5092 38.482 26.4501C38.3825 26.4501 38.3757 26.4723 38.3714 26.4826C38.3697 26.4929 38.3697 26.5092 38.3919 26.5254Z" fill="black"/>
<path fill-rule="evenodd" clip-rule="evenodd" d="M31.1709 29.0356C31.2611 29.0202 31.4108 28.8489 31.3844 28.8369C31.3606 28.8266 31.2866 28.9414 31.1513 28.9414C31.1045 28.9414 31.0517 28.9328 30.9956 28.9208L30.9854 28.9191C30.965 28.9482 30.8458 28.9671 30.8458 28.9671L30.8611 29.0407L30.9786 29.0133C30.9981 29.0202 31.0798 29.0493 31.1709 29.0356Z" fill="black"/>
<path fill-rule="evenodd" clip-rule="evenodd" d="M33.8441 26.9519C33.9402 26.8508 33.753 26.7343 33.7479 26.7198C33.7479 26.7198 33.8807 26.8936 33.7752 26.8448C33.6841 26.7018 33.3335 26.5956 33.3199 26.5819C33.3021 26.5604 33.3642 26.5014 33.5582 26.6487C33.5735 26.6221 33.4518 26.5056 33.285 26.5185C33.2808 26.4928 33.2655 26.4671 33.2485 26.4585C33.2459 26.456 33.2425 26.456 33.2399 26.456C33.2357 26.456 33.2272 26.456 33.2297 26.4585C33.2459 26.4757 33.2706 26.5185 33.2425 26.5211C33.211 26.5253 33.1889 26.4654 33.1829 26.456C33.1634 26.4243 33.0834 26.4688 33.1302 26.5082C33.1421 26.5185 33.1634 26.5253 33.1846 26.5382C33.211 26.5553 33.1974 26.5605 33.1778 26.5553C33.1498 26.5467 33.12 26.5408 33.0834 26.5408C33.0476 26.5408 33.0102 26.5467 32.977 26.5605C32.9634 26.5664 32.9489 26.5596 32.966 26.5442C32.9813 26.5339 33.0025 26.5253 33.017 26.5185C33.0842 26.4731 32.9719 26.3909 32.9506 26.5048C32.9404 26.5236 32.9268 26.5408 32.9158 26.5442C32.8656 26.5467 32.9209 26.4654 32.9166 26.4654C32.9141 26.4654 32.9098 26.4731 32.9072 26.4748C32.8928 26.4859 32.8698 26.5056 32.8656 26.5296C32.8536 26.527 32.6554 26.5408 32.6273 26.6487C32.7745 26.5408 32.8502 26.5467 32.8417 26.5896C32.8375 26.6067 32.6647 26.7043 32.5958 26.7711C32.5371 26.814 32.4546 26.915 32.441 26.9193C32.4129 26.9245 32.4069 26.8671 32.4469 26.7934C32.355 26.8816 32.3712 26.9519 32.3959 26.993C32.3508 27.1043 32.3593 27.2431 32.4214 27.3544C32.4733 27.4469 32.7915 27.7176 32.8162 27.7004C32.8451 27.6816 32.4886 27.3638 32.4614 27.2302C32.4044 26.9048 32.8409 26.6178 32.9804 26.6033C32.9881 26.6033 33.006 26.6435 33.0859 26.6384C33.1863 26.635 33.1949 26.6033 33.1974 26.6033C33.3072 26.5896 33.839 26.7891 33.7845 27.1848C33.7649 27.3099 33.7147 27.4589 33.7369 27.4726C33.759 27.4872 33.7811 27.4221 33.8339 27.315C33.89 27.2002 33.8943 27.0615 33.8441 26.9519Z" fill="black"/>
<path fill-rule="evenodd" clip-rule="evenodd" d="M31.237 30.712C31.745 30.658 32.675 32.2434 32.7056 32.2785C32.7371 32.3111 32.795 32.2374 32.795 32.2374C32.7576 32.1706 31.9441 30.4876 31.237 30.712Z" fill="black"/>
<path fill-rule="evenodd" clip-rule="evenodd" d="M31.9387 28.078C31.8306 28.09 31.9523 29.5469 31.9523 29.5469L32.0655 29.4022C32.0493 29.3174 32.0374 28.8926 32.0374 28.8309C32.0774 28.8566 32.5683 28.7512 32.6772 28.5671C32.6772 28.5671 32.3335 28.6296 32.2467 28.6108C32.0901 28.5842 32.051 28.5191 32.0425 28.4703C32.0425 28.4558 31.9829 28.0729 31.9387 28.078Z" fill="black"/>
<path fill-rule="evenodd" clip-rule="evenodd" d="M31.8706 30.3725L31.7736 30.4411C32.4781 30.8171 32.901 32.1943 32.9061 32.2063L32.9078 32.2217L33.1341 32.3005C33.1341 32.3005 32.5989 30.7006 31.8706 30.3725Z" fill="black"/>
<path fill-rule="evenodd" clip-rule="evenodd" d="M33.5275 32.2206C33.5573 32.2686 33.7198 32.1838 33.7198 32.1838L33.7181 32.1666C33.7181 32.1606 33.7003 31.4994 34.2304 30.9898C34.2304 30.9898 33.6518 31.1097 33.5275 32.2206Z" fill="black"/>
<path fill-rule="evenodd" clip-rule="evenodd" d="M36.3944 32.1017L36.2634 32.011C36.2634 32.011 36.3255 32.309 36.3221 32.4383C36.3195 32.4598 36.3144 32.4666 36.3025 32.4735C36.3 32.4803 36.2957 32.482 36.294 32.4855C36.2438 32.542 36.277 32.7475 36.277 32.7475C36.277 32.7475 36.3331 32.6276 36.3927 32.5625C36.4012 32.5548 36.4072 32.5488 36.4097 32.5454C36.4395 32.5163 36.4438 32.4966 36.431 32.3801C36.4267 32.3381 36.3944 32.1017 36.3944 32.1017Z" fill="black"/>
<path fill-rule="evenodd" clip-rule="evenodd" d="M34.3044 28.0656C34.278 28.0681 34.2304 28.4167 34.2338 28.4621C34.2338 28.4707 34.2176 28.6977 33.9657 28.6583C33.7139 28.618 33.6067 28.5701 33.6067 28.5701C33.6968 28.7456 34.118 28.8364 34.2227 28.982C34.2448 29.0163 34.2618 29.1773 34.2652 29.1961H34.3486V28.9058L34.432 28.8792C34.3954 28.2746 34.3299 28.0596 34.3044 28.0656Z" fill="black"/>
<path fill-rule="evenodd" clip-rule="evenodd" d="M32.5908 27.7984C32.4393 27.7984 32.2147 27.8224 32.2079 27.8258L31.9526 27.8789L32.0275 27.9337C32.0317 27.932 32.3627 27.8652 32.584 27.8652C32.6189 27.8652 32.6503 27.8686 32.6725 27.8738C32.8631 27.9183 33.0903 27.9954 33.0937 27.9663C33.0945 27.9337 32.8239 27.8292 32.6946 27.8027C32.6691 27.8001 32.6359 27.7984 32.5908 27.7984Z" fill="black"/>
<path fill-rule="evenodd" clip-rule="evenodd" d="M34.2335 27.8937L34.2522 27.8835L34.259 27.8732L34.2649 27.8595L34.2556 27.8423L34.1552 27.7841C34.145 27.7815 33.6583 27.7807 33.6583 27.7807C33.5366 27.7841 33.1605 27.9366 33.1843 27.9648C33.2124 27.9931 33.483 27.8749 33.671 27.8526C33.8693 27.8252 34.2164 27.8937 34.2335 27.8937Z" fill="black"/>
<path fill-rule="evenodd" clip-rule="evenodd" d="M35.2331 28.7233C35.1625 28.6462 34.5941 27.9645 34.5924 27.9585C34.5864 27.9508 34.5736 27.9277 34.5524 27.9277C34.5413 27.9277 34.4732 27.9302 34.4681 27.9508C34.5864 28.1495 34.8578 28.4681 35.0493 28.6206C35.1361 28.7002 35.2041 28.7439 35.2331 28.7233Z" fill="black"/>
<path fill-rule="evenodd" clip-rule="evenodd" d="M31.7281 32.4485C31.7554 32.4879 31.8064 32.5616 31.8064 32.5616C31.8064 32.5616 31.877 32.3886 31.9953 32.3218C32.117 32.255 32.3229 32.1616 32.4123 32.159C32.0702 32.0674 31.7409 32.3235 31.7281 32.4485Z" fill="black"/>
<path fill-rule="evenodd" clip-rule="evenodd" d="M31.5575 29.6549C31.6222 29.6566 31.6392 29.595 31.6409 29.5256L31.6537 29.5145C31.6562 29.511 31.7183 29.4588 31.7549 29.3329C31.7856 29.499 31.8673 29.8279 31.8085 29.9136L31.7124 30.0129L31.8111 29.9564C31.8502 29.941 31.9098 29.8742 31.8936 29.7577C31.8826 29.6935 31.7839 29.1684 31.7839 29.1684L31.7805 29.1445C31.7762 29.0751 31.7583 29.0126 31.7183 28.9603C31.6537 28.8729 31.5524 28.8267 31.4852 28.8241C31.4852 28.8241 31.7549 29.0074 31.7209 29.1958C31.6886 29.3826 31.6545 29.3945 31.6545 29.3963L31.6145 29.3534V29.4614C31.6052 29.5162 31.5916 29.5384 31.5541 29.535C31.452 29.5333 31.3737 29.6755 31.264 29.6438C31.1593 29.6121 31.1066 29.5239 31.041 29.4768C30.9798 29.4305 31.0717 29.3397 31.0717 29.3397C31.0717 29.3397 31.0691 29.3029 31.041 29.2849C31.013 29.2661 30.9687 29.3791 30.9687 29.3791C30.9687 29.3791 30.9057 29.5402 30.9934 29.5984C31.1483 29.7012 31.0972 29.6977 31.264 29.7491C31.4333 29.7997 31.4188 29.6532 31.5575 29.6549Z" fill="black"/>
</svg>
