<svg width="81" height="105" viewBox="0 0 81 105" fill="none" xmlns="http://www.w3.org/2000/svg">
<path fill-rule="evenodd" clip-rule="evenodd" d="M24.0769 29.4269C24.0769 29.4243 24.0769 29.4243 24.0769 29.4216L24.0743 29.4243C24.0769 29.4243 24.0769 29.4269 24.0769 29.4269Z" fill="#FBB900"/>
<path fill-rule="evenodd" clip-rule="evenodd" d="M23.2978 32.1395C23.4493 32.2439 23.6682 31.7725 23.7153 31.6614C23.7523 31.5806 23.823 31.4224 23.8601 31.345C23.7961 31.1531 23.7826 30.9645 23.7826 30.8467C23.6614 31.0857 23.4089 31.3113 23.4089 31.3113C23.4089 31.3113 23.1732 31.116 23.0352 30.8601C23.015 30.9275 22.9813 31.0251 22.9308 31.1598C22.914 31.2069 22.8972 31.2507 22.877 31.2945C22.9039 31.3786 22.9443 31.4998 22.9948 31.6244C23.0857 31.8264 23.2103 32.0789 23.2978 32.1395Z" fill="#FBB900"/>
<path fill-rule="evenodd" clip-rule="evenodd" d="M25.7379 56.4196C25.7446 56.4196 25.748 56.4263 25.7547 56.4263C25.7918 56.4263 25.8759 56.4465 25.9668 56.4398C26.0173 56.433 26.0712 56.4196 26.115 56.3859C26.2429 56.295 26.7143 55.3085 26.7715 55.1738C26.7749 55.1705 26.7715 55.1637 26.7614 55.1536C26.7547 55.1469 26.7412 55.1368 26.7277 55.1267C26.6671 55.0897 26.556 55.0459 26.4415 55.0459C26.354 55.0493 26.2665 55.0762 26.1991 55.157C26.1991 55.157 25.6975 56.1502 25.6874 56.2546C25.6773 56.332 25.6874 56.3893 25.7177 56.4128C25.7244 56.4162 25.7311 56.4162 25.7379 56.4196Z" fill="#FBB900"/>
<path fill-rule="evenodd" clip-rule="evenodd" d="M23.8887 30.6433C23.9526 30.7645 24.2321 31.2695 24.3533 31.3638C24.4307 31.4244 24.5216 31.4008 24.6092 31.3402C24.8011 31.1921 25.0334 30.8318 25.1209 30.687C25.1176 30.6702 25.1108 30.6534 25.1041 30.6399C25.0435 30.4951 25.0031 30.3807 24.9761 30.3032C24.8886 30.4446 24.7809 30.5759 24.6462 30.6668C24.6462 30.6668 24.4307 30.5355 24.2792 30.2594C24.2388 30.1921 24.2085 30.1046 24.1782 30.0137C24.1378 30.1147 24.0301 30.3773 23.8887 30.6433Z" fill="#FBB900"/>
<path fill-rule="evenodd" clip-rule="evenodd" d="M42.9683 37.8965C42.9683 37.8965 41.6923 37.8898 41.5913 38.2837C41.4937 38.6776 41.9684 40.4485 42.0525 40.701C42.0626 40.7246 42.0694 40.7448 42.0795 40.7616C42.231 41.0175 42.5879 40.5697 42.5879 40.5697C42.7932 40.2802 43.5811 39.1792 43.6922 38.8527C43.7662 38.6372 43.7292 38.3981 43.6046 38.213C43.4767 38.0278 43.2612 37.8965 42.9683 37.8965Z" fill="#FBB900"/>
<path fill-rule="evenodd" clip-rule="evenodd" d="M38.338 34.1125C38.5029 34.4896 38.6982 34.8398 38.9575 35.1562C39.2908 35.5636 39.7318 35.9138 40.3581 36.1764C40.0315 35.7286 38.6309 33.6782 38.3649 31.0117C38.0484 31.7187 37.8195 32.9443 38.338 34.1125Z" fill="#FBB900"/>
<path fill-rule="evenodd" clip-rule="evenodd" d="M37.8383 39.422C37.6801 39.3243 37.1784 39.3513 36.8653 39.395C36.4949 39.4455 36.5387 39.7654 36.5387 39.7654C36.5387 39.7654 36.8619 41.5464 36.9865 41.7484C37 41.7754 37.0168 41.7956 37.0336 41.8124C37.1481 41.9235 37.2626 41.7956 37.3063 41.7484C37.3568 41.6912 38.1076 40.4253 38.1514 40.1896C38.1985 39.9472 38.111 39.7081 37.9797 39.5499C37.9359 39.496 37.8888 39.4523 37.8383 39.422Z" fill="#FBB900"/>
<path fill-rule="evenodd" clip-rule="evenodd" d="M11.596 29.9229C11.7172 29.832 11.6835 29.5492 11.4815 29.3102C11.4546 29.2765 11.4209 29.2428 11.3872 29.2092C11.1886 29.061 10.9192 29.0307 10.7543 29.1991C10.5927 29.3741 10.6196 29.556 10.7341 29.7007C10.8485 29.8455 11.0539 29.9532 11.2458 29.9835C11.3569 29.9903 11.5084 29.9869 11.596 29.9229Z" fill="#FBB900"/>
<path fill-rule="evenodd" clip-rule="evenodd" d="M11.5108 32.6786C11.5815 32.7695 11.6825 32.8301 11.8239 32.7426C11.9923 32.6382 12.1236 32.278 12.0327 32.1231C11.9451 31.9851 11.6556 31.9851 11.4132 31.8369C11.2852 31.9278 11.2987 32.1635 11.3829 32.3823C11.3829 32.3823 11.4199 32.5608 11.5108 32.6786Z" fill="#FBB900"/>
<path fill-rule="evenodd" clip-rule="evenodd" d="M47.9872 37.7143C47.9872 37.7143 46.7146 37.6873 46.6169 38.0812C46.5193 38.4752 47.2028 40.5659 47.3038 40.8151C47.3139 40.8386 47.324 40.8588 47.3374 40.8723C47.5159 41.0979 47.8997 40.2932 47.8997 40.2932C48.0344 40.0441 48.5124 38.8085 48.5629 38.6469C48.6269 38.4381 48.6202 38.1688 48.499 37.9701C48.4047 37.8186 48.2397 37.7143 47.9872 37.7143Z" fill="#FBB900"/>
<path fill-rule="evenodd" clip-rule="evenodd" d="M18.5328 31.219C18.5362 31.1887 18.5261 31.1214 18.5093 31.0271C18.3611 30.7847 18.1625 30.5389 17.9773 30.3201C17.9167 30.246 17.8561 30.1753 17.7989 30.1114V30.108C17.3612 29.5929 17.0413 28.7276 17.3275 28.5694C17.6137 28.4111 17.8898 28.63 18.0648 28.7276C18.3275 28.8724 18.4588 28.7781 18.4386 28.4313C18.4251 28.1586 18.3948 27.9061 18.3679 27.6637C18.3443 27.455 18.2938 27.2395 18.2265 27.0341C18.1019 27.1688 17.8393 27.3169 17.5194 27.3775C17.0716 27.4583 16.2165 27.4651 15.9236 27.4651C15.5903 27.4651 15.5297 27.4045 15.5196 27.391C15.5196 27.3876 15.5162 27.3876 15.5162 27.3876L15.762 27.0812C15.762 27.0812 15.735 26.3843 16.2198 26.4214C16.3848 26.4348 16.6037 26.5291 16.7417 26.6772C16.4286 26.3372 16.0279 25.9938 15.634 26.0039C15.634 26.0039 15.1391 26.1015 14.7486 26.4719V26.4685C14.7486 26.4685 14.7486 26.4685 14.7452 26.4719C14.7452 26.4719 15.1391 25.7951 15.6138 25.6605C15.9673 25.5561 16.3343 25.7615 16.8831 26.1251C17.4083 26.4752 17.6979 27.0139 18.1928 26.9264C18.048 26.5022 17.846 26.115 17.6642 25.8793C17.6373 25.8456 17.6137 25.8153 17.5868 25.7884C17.0851 25.2497 15.6408 24.6201 14.7418 25.2295C14.4826 25.4046 14.2873 25.6941 14.119 26.0375C14.055 26.1621 14.2334 26.3338 14.1796 26.4685C13.8463 27.2765 13.3412 28.2091 12.7588 28.8084C12.7655 28.8387 14.7755 29.0205 17.6137 31.1012C17.6305 31.1113 17.644 31.1281 17.6541 31.145C17.8123 31.4076 17.3747 32.3065 17.2198 32.256C17.213 32.256 17.2097 32.2526 17.2097 32.2459C17.176 32.155 17.4521 31.4884 17.2703 31.2763C17.2602 31.2628 17.2434 31.2493 17.2265 31.2392C15.9168 30.5053 15.1391 30.4076 14.1526 30.0575C13.917 29.9733 13.2301 30.4043 13.0483 30.2393C13.045 30.2359 13.0416 30.2326 13.0382 30.2258C13.0248 30.2124 13.0113 30.1955 12.9978 30.1821C12.7217 29.8791 12.0652 29.5592 11.9844 29.5222C11.9911 29.5255 11.9979 29.5323 12.0113 29.5424C12.0484 29.5861 12.109 29.6838 12.1359 29.9228C12.2201 30.6568 10.9205 30.0137 11.6242 30.8521C11.6982 30.9396 11.7925 31.044 11.9103 31.1652C12.2706 31.522 12.4659 31.8049 12.9305 31.7308C13.1157 31.7072 13.183 31.7241 13.2066 31.7544C13.2335 31.788 13.2167 31.8385 13.2369 31.8857L13.4557 32.4008C13.4658 32.4277 13.4759 32.4446 13.486 32.4547C13.5163 32.4883 13.55 32.4681 13.5601 32.3907L13.6611 31.8453C13.6779 31.7443 13.7823 31.6601 13.8867 31.6601C13.8867 31.6601 15.8226 31.714 16.2165 31.7443C16.4825 31.7645 16.5835 31.8587 16.6171 31.9025C16.6306 31.9193 16.634 31.9294 16.634 31.9294C16.6811 32.0304 16.8023 32.2526 16.4757 32.5186C16.24 32.7072 15.6643 32.3099 15.2064 32.6802C14.7486 33.0539 13.8294 33.2189 13.8294 33.2189C13.752 33.2358 13.6644 33.2021 13.6072 33.1448C13.5904 33.128 13.5735 33.1044 13.5634 33.0809L13.3311 32.5523C13.321 32.5287 13.3109 32.5119 13.3008 32.5018C13.2705 32.4681 13.247 32.4917 13.2402 32.5691L13.183 33.2526C13.1763 33.357 13.1426 33.4445 13.1123 33.4512C13.0988 33.4512 13.0786 33.431 13.0551 33.4007C13.0315 33.3704 13.0046 33.3267 12.981 33.2795L12.9642 33.2425C12.9541 33.2189 12.9406 33.2021 12.9238 33.1886C12.8732 33.1482 12.8093 33.1549 12.7588 33.2155L12.6376 33.3536C12.5702 33.4344 12.4692 33.4243 12.4154 33.3334V33.33L12.3682 33.2559C12.3144 33.1684 12.2235 33.1684 12.1696 33.2593L12.0955 33.3772C12.0551 33.4445 12.0046 33.4546 11.9676 33.4142C11.9541 33.4007 11.944 33.3805 11.9373 33.357L11.9103 33.2829C11.9002 33.256 11.8901 33.2391 11.88 33.2256C11.8464 33.1886 11.8026 33.2021 11.7723 33.2762C11.742 33.3469 11.6982 33.3603 11.6646 33.3166C11.5972 33.3839 11.5501 33.431 11.5299 33.4512C11.4693 33.5051 11.338 33.6229 11.3346 33.7374C11.3313 33.7643 11.3414 33.7879 11.3616 33.8115C11.4289 33.8788 11.6343 33.9394 12.1359 34.0438C12.8059 34.1785 15.9067 32.9125 16.8865 33.1179C18.0177 33.3536 18.4554 32.4244 18.5328 31.219Z" fill="#FBB900"/>
<path fill-rule="evenodd" clip-rule="evenodd" d="M16.2347 26.6689C16.1168 26.6858 15.999 26.8204 16.0226 26.9854C16.0327 27.0561 16.063 27.1335 16.1135 27.1941C16.1606 27.2547 16.2313 27.2985 16.3155 27.3052C16.5882 27.3221 16.7128 27.1571 16.706 27.0123C16.7027 26.9383 16.6656 26.8676 16.6118 26.807C16.5175 26.7093 16.3727 26.6487 16.2347 26.6689Z" fill="#FBB900"/>
<path fill-rule="evenodd" clip-rule="evenodd" d="M53.7084 37.093C53.6512 37.0155 53.5771 36.9448 53.4862 36.8809C53.0485 36.5677 52.594 36.598 52.3583 36.5913C51.7624 36.5812 50.9443 36.7226 50.7961 37.3118C50.7153 37.6418 50.8837 37.7663 51.5234 38.9481C51.5368 38.9716 51.5469 38.9952 51.5604 39.0154C51.6412 39.1635 51.7254 39.3285 51.7893 39.4733C51.8466 39.608 51.9072 39.746 51.9779 39.8672C52.0957 40.0692 52.2472 40.2241 52.4863 40.2409C52.5671 40.1568 52.6479 40.0726 52.7152 40.012C52.8263 39.9076 52.9711 39.8302 53.1159 39.7729L53.1192 39.7662L53.126 39.746C53.5266 39.14 53.8195 38.0054 53.8263 37.9818C53.9071 37.6115 53.8801 37.3253 53.7084 37.093Z" fill="#FBB900"/>
<path fill-rule="evenodd" clip-rule="evenodd" d="M24.3943 28.4023C24.3707 28.5202 24.3034 28.8468 24.1855 29.1666C24.2125 29.2474 24.2529 29.3619 24.3 29.4831C24.327 29.5471 24.3573 29.611 24.3876 29.675C24.4111 29.7255 24.4381 29.7726 24.465 29.8164C24.5492 29.9477 24.667 30.0554 24.8017 29.9881C24.9767 29.8972 25.2326 29.4124 25.3336 29.207C25.337 29.2036 25.3404 29.1969 25.3404 29.1935L25.3437 29.1902C25.3471 29.1801 25.3538 29.1733 25.3572 29.1632L25.3639 29.1599C25.3606 29.1666 25.3606 29.1733 25.3606 29.1834C25.3572 29.1868 25.3572 29.1868 25.3572 29.1902C25.3572 29.1902 25.3572 29.1935 25.3572 29.2003C25.3505 29.2339 25.3437 29.271 25.337 29.3114C25.3067 29.4865 25.2293 29.8198 25.0744 30.1295H25.0777L25.0676 30.1463V30.1497C25.0676 30.1497 25.7713 31.1934 26.411 31.1092C26.411 31.1092 26.0306 30.6884 25.7343 30.0521C25.7309 30.0386 25.7242 30.0319 25.7208 30.0184C25.5895 29.7053 25.4818 29.3619 25.4077 28.9848C25.3404 29.0959 25.2528 29.1902 25.1417 29.244C25.1417 29.244 24.8421 29.0993 24.7613 28.4326C24.7209 28.5033 24.6704 28.5707 24.6165 28.6313C24.6165 28.6313 24.5054 28.5606 24.3943 28.4023Z" fill="#FBB900"/>
<path fill-rule="evenodd" clip-rule="evenodd" d="M25.3994 32.7058C25.2311 32.2917 25.1402 31.9012 25.1031 31.7092C25.2378 31.8574 25.423 32.0459 25.6284 32.2008C26.1098 32.5711 26.497 32.5206 26.497 32.5206C26.0761 32.1873 25.7024 31.6688 25.4634 31.2951C25.4162 31.2278 25.3758 31.1571 25.3354 31.0931C25.3119 31.0494 25.2883 31.009 25.2681 30.9787C25.258 30.9517 25.2445 30.9248 25.2311 30.9012C25.2176 30.8777 25.2075 30.8507 25.194 30.8271C25.0964 31.1066 24.8304 31.7699 24.4735 32.0897C24.4735 32.0897 24.4668 32.0863 24.4533 32.0796C24.4466 32.0762 24.2446 31.9887 24.0056 31.6486C23.9854 31.6183 23.9685 31.5847 23.9517 31.5544C23.9382 31.6419 23.9147 31.8237 23.8574 32.056C23.9349 32.157 24.1369 32.4095 24.2816 32.5476C24.3086 32.5711 24.3288 32.5913 24.3523 32.6082C24.3557 32.6116 24.3624 32.6183 24.3658 32.6217C24.3692 32.6217 24.3725 32.625 24.3759 32.625C24.3826 32.6284 24.3894 32.6351 24.3961 32.6385C24.4096 32.6452 24.4197 32.6486 24.4298 32.652C24.4298 32.652 24.4331 32.6553 24.4365 32.6553C24.5543 32.7025 24.6352 32.6486 24.7395 32.4028C24.8069 32.2513 24.8843 32.0358 24.9449 31.854C24.9516 31.8305 24.9584 31.8103 24.9651 31.7867C24.9752 31.7598 24.9819 31.7362 24.9887 31.7092C24.9988 31.6823 25.0089 31.6554 25.0156 31.6318L25.019 31.6554C25.019 31.6554 25.0223 31.78 25.019 31.9584C25.0122 32.1873 24.9887 32.5004 24.9146 32.7631C24.9887 32.9213 25.1267 33.1873 25.322 33.4465C25.4668 33.6351 25.6486 33.8202 25.8506 33.9616C25.891 33.9919 25.9314 34.0222 25.9751 34.0458C26.0054 34.066 26.0391 34.0828 26.0728 34.0997C26.0829 34.1064 26.0896 34.1098 26.0997 34.1131C26.3354 34.2242 26.5307 34.2478 26.5307 34.2478C25.992 33.8236 25.6317 33.231 25.3994 32.7058Z" fill="#FBB900"/>
<path fill-rule="evenodd" clip-rule="evenodd" d="M66.9013 54.4779C66.898 54.3534 66.7768 54.1817 66.7768 54.1817L66.77 54.1682L66.7633 54.1514C66.7633 54.1514 66.7599 54.2389 66.6589 54.3231C66.6286 54.3466 66.5882 54.3702 66.5344 54.3938C66.3761 54.4645 66.0832 54.488 65.8374 54.6025C65.5883 54.717 65.5883 54.9628 65.5849 55.0907C65.5782 55.222 65.5445 55.9492 65.5984 56.0772C65.6253 56.1445 65.6994 56.1883 65.7634 56.2152C65.7735 56.2186 65.7869 56.2253 65.797 56.2287C65.797 56.232 65.8004 56.232 65.8038 56.232C65.8172 56.2388 65.8341 56.2421 65.8475 56.2489C65.8543 56.2489 65.861 56.2489 65.8644 56.2522C65.8745 56.2556 65.8812 56.2556 65.8812 56.2556C65.9351 56.2691 65.9856 56.2758 66.0327 56.2691C66.0731 56.2657 66.1068 56.2522 66.1236 56.2253C66.1573 56.1782 66.1438 55.9863 66.1371 55.7338C66.1404 55.7304 66.1404 55.727 66.1404 55.7237C66.1472 55.5385 66.1606 55.323 66.1842 55.1715C66.191 55.121 66.201 55.0772 66.2111 55.0436C66.292 54.7944 66.4165 54.7608 66.5849 54.7204C66.7532 54.68 66.9047 54.6025 66.9013 54.4779Z" fill="#FBB900"/>
<path fill-rule="evenodd" clip-rule="evenodd" d="M60.5232 53.6731C60.3885 53.6293 60.2774 53.6057 60.1865 53.6125C60.1529 53.6158 60.1226 53.6226 60.0923 53.636C60.0923 53.6394 60.0889 53.6394 60.0855 53.6394C60.0552 53.6529 60.0249 53.6731 59.998 53.7067C59.8835 53.8582 59.8128 54.3936 59.7993 54.4946C59.7993 54.5013 59.7993 54.508 59.7993 54.5114C59.7892 54.5686 59.9306 54.6595 60.0418 54.6966C60.0721 54.7067 60.1091 54.71 60.1495 54.7033C60.2741 54.6932 60.4525 54.6191 60.6781 54.4542C60.9777 54.232 61.1124 54.1141 61.0922 53.9895C61.072 53.865 60.7925 53.764 60.5232 53.6731Z" fill="#FBB900"/>
<path fill-rule="evenodd" clip-rule="evenodd" d="M59.8773 53.385C59.8773 53.3816 59.8773 53.3816 59.8773 53.3783C59.9109 53.2301 59.8604 53.2032 59.7729 53.2099C59.7392 53.2133 59.6988 53.22 59.6584 53.2268C59.5035 53.2571 59.3823 53.3109 59.3251 53.3682C59.2645 53.4288 58.8807 53.7991 58.9548 54.0617C58.9985 54.2132 59.0827 54.3008 59.1467 54.3479C59.1534 54.3513 59.1601 54.358 59.1669 54.3614C59.177 54.3715 59.1904 54.3782 59.2005 54.3849C59.2342 54.4051 59.2679 54.4186 59.3015 54.4186C59.3352 54.4186 59.3655 54.4085 59.3891 54.3782C59.4025 54.3614 59.416 54.3378 59.4362 54.3075C59.4396 54.3041 59.4429 54.3008 59.4463 54.294C59.48 54.2469 59.5204 54.1762 59.5642 54.0954C59.5709 54.0819 59.5776 54.0685 59.5844 54.055C59.6652 53.9136 59.746 53.7486 59.7965 53.6106C59.8032 53.5971 59.8066 53.587 59.8099 53.5769C59.8402 53.4995 59.8672 53.4321 59.8773 53.385Z" fill="#FBB900"/>
<path fill-rule="evenodd" clip-rule="evenodd" d="M62.3461 53.7889C62.3529 53.8428 62.3697 53.8764 62.4101 53.8731C62.4236 53.8731 62.4337 53.8697 62.4505 53.863C62.5111 53.836 62.5683 53.7586 62.6155 53.6744C62.6155 53.6711 62.6188 53.6677 62.6188 53.6643C62.6895 53.56 62.9151 53.0011 63.1946 52.2705C63.1979 52.257 63.2047 52.2402 63.2114 52.2267C63.2215 52.1998 63.2316 52.1695 63.2417 52.1425C63.2518 52.119 63.2585 52.0988 63.2686 52.0786C63.2754 52.055 63.2855 52.0348 63.2922 52.0146C63.6154 51.1897 64.0194 50.1427 64.2551 49.4323C64.2652 49.3986 64.2753 49.3717 64.2854 49.3414C64.484 48.7522 64.6255 48.3549 64.6962 48.0317C64.6962 48.0317 64.6962 48.0283 64.6962 48.025C64.7366 47.8499 64.7568 47.695 64.75 47.5435C64.7332 47.1092 64.3763 47.0923 64.1844 47.1799C63.9891 47.2674 63.8242 47.4324 63.6828 47.9542C63.6121 48.2236 63.4706 48.769 63.3225 49.3414C63.1845 49.8834 63.0397 50.4524 62.9454 50.8362C62.8882 51.0551 62.8276 51.3278 62.7603 51.614C62.7165 51.816 62.6693 52.0247 62.6256 52.2267C62.6222 52.2435 62.6188 52.257 62.6155 52.2705C62.501 52.789 62.4067 53.2469 62.3865 53.3916C62.3596 53.5499 62.336 53.698 62.3461 53.7889Z" fill="#FBB900"/>
<path fill-rule="evenodd" clip-rule="evenodd" d="M28.527 25.0569C27.7762 25.2051 26.5574 25.4205 25.9143 25.5182C25.6955 25.5519 25.3891 25.5855 25.0625 25.6125C25.0019 25.6192 24.9379 25.6226 24.874 25.6293C24.0154 25.6899 23.1737 25.7101 22.4533 25.6832C22.4263 25.6832 22.3994 25.6798 22.3724 25.6798C21.8843 25.6529 21.4533 25.599 21.1806 25.4946C20.3894 25.195 20.5611 24.4711 20.6621 23.8685C20.7665 23.2658 20.7867 23.1345 20.7497 22.7305C20.7093 22.3231 19.9854 21.5622 19.7598 21.3097C19.5342 21.0538 19.477 21.0437 19.3188 21.2255C19.1572 21.404 18.4333 21.9763 18.3693 22.3433C18.3357 22.5352 18.3559 22.8517 18.3862 23.1143C18.3929 23.2658 18.403 23.4173 18.4064 23.5654C18.4165 24.2893 17.3425 23.8685 18.2077 24.3667C18.2953 24.4172 18.3794 24.4745 18.4636 24.5384C18.8676 24.8314 19.3928 25.3128 19.7766 26.0535C20.4601 27.38 20.4365 28.2352 20.3759 28.6426C20.3726 28.6661 20.3692 28.683 20.3692 28.6863C20.3658 28.7032 20.3456 28.7234 20.3456 28.7234C20.3355 28.619 20.3221 28.5214 20.3052 28.4204C20.2278 28.0062 20.1201 27.6292 19.9888 27.2959C19.9854 27.2925 19.9854 27.2925 19.9854 27.2925C19.9383 27.1544 19.8844 27.0265 19.8238 26.8986C19.8103 26.8716 19.7968 26.8413 19.78 26.8144C19.2784 25.8313 18.3862 25.1243 17.7229 24.7405C16.8576 24.2422 15.7028 24.2287 15.0833 24.222C14.7197 24.2186 14.3864 24.2792 14.1676 24.3331C14.2315 24.2119 14.2888 24.0334 14.2585 23.8011C14.1911 23.323 13.9757 22.9089 13.8343 22.579C13.6928 22.249 13.5144 21.6194 13.5245 21.4982C13.5279 21.4242 13.3797 21.9393 13.2451 22.4106C13.0633 22.9527 12.8309 23.6193 12.703 23.9223C12.4741 24.4778 12.1408 24.9155 11.8916 25.1108C11.6458 25.3094 11.1509 25.5788 10.7738 26.1006V26.104C10.6291 26.3026 10.5786 26.5552 10.5718 26.7908C10.5685 26.9322 10.5819 27.0635 10.5988 27.178C10.6021 27.2184 10.6089 27.2588 10.6156 27.2925C10.6223 27.3329 10.6291 27.3699 10.6358 27.407C10.7503 27.9254 10.7402 28.1005 10.7402 28.1005C10.7402 28.1005 10.417 28.2722 10.124 28.5348C10.087 28.5651 10.0533 28.6055 10.0163 28.6392L10.0096 28.6426C9.98264 28.6695 9.9557 28.6964 9.93214 28.7234C9.9254 28.7335 9.9153 28.7436 9.9052 28.7537C9.89847 28.7638 9.89173 28.7705 9.885 28.7806C9.8749 28.7907 9.8648 28.8042 9.8547 28.8143C9.59209 29.1476 9.62913 29.3732 9.64259 29.4304C9.64596 29.4405 9.64933 29.4472 9.64933 29.4472C9.64933 29.4472 9.7739 29.0264 10.1139 28.8311C10.454 28.6358 10.7873 28.4911 11.1913 28.3833C11.1913 28.3833 11.1913 28.2554 11.1509 27.8749C11.124 27.5921 11.0095 27.1612 11.1577 26.7033C11.2351 26.5013 11.3933 26.2185 11.7098 25.9626C12.2855 25.4946 13.1845 24.9694 14.1676 24.6866C14.2113 24.6731 14.2517 24.663 14.2921 24.6529C14.3527 24.6395 14.4167 24.626 14.4773 24.6125C14.5547 24.5991 14.6255 24.5923 14.6995 24.5822C14.8477 24.5687 14.9924 24.562 15.1305 24.5755C16.0025 24.6597 17.467 24.7674 18.3491 25.8178C18.642 26.1646 18.8676 26.6191 18.9888 27.2083C19.0326 27.3901 19.0865 27.6965 19.0898 28.1578C19.0999 28.9523 19.1168 29.151 19.1302 29.3698C19.1403 29.528 19.0865 29.6156 19.0124 29.6425C19.009 29.6425 19.0057 29.6459 19.0023 29.6459H18.9989C18.8878 29.6829 18.7363 29.6257 18.7397 29.7401C18.7464 30.1071 18.8642 30.2923 18.9922 30.4404C19.0292 30.4842 19.0663 30.5246 19.1033 30.565C19.2245 30.7098 19.3289 30.8613 19.3053 31.1811C19.2918 31.3528 19.275 31.5144 19.2582 31.666C19.2582 31.6727 19.2548 31.6794 19.2548 31.6862C19.1807 32.1575 19.1336 32.5144 18.7531 33.2281C18.3188 34.0496 17.6017 34.1035 17.6017 34.1035C17.6421 34.1136 17.6825 34.117 17.7195 34.1203H17.7162C17.7162 34.1203 17.7229 34.1203 17.7364 34.1203C17.7633 34.1237 17.7869 34.1237 17.8138 34.1237C17.8475 34.1237 17.8879 34.1203 17.9384 34.117C17.9485 34.117 17.9586 34.1136 17.972 34.1136C18.3424 34.0698 19.0461 33.851 19.642 32.878C20.0797 32.1272 20.2682 31.3259 20.2682 31.3259C20.2682 31.3259 20.4365 32.4134 20.0864 33.3258C20.0056 33.5143 19.9046 33.6726 19.8036 33.8039C19.6824 33.9486 19.5511 34.0665 19.4265 34.154C19.4231 34.154 19.4231 34.1574 19.4198 34.1574C19.2615 34.2685 19.11 34.3392 19.0023 34.383C18.8878 34.4267 18.8137 34.4402 18.8137 34.4402C18.8137 34.4402 19.4938 34.5277 20.349 34.1776C21.1301 33.8611 21.5173 33.3729 21.6722 33.0497C21.8371 33.4234 22.2714 34.218 22.9448 34.6119C22.9852 34.6355 23.0222 34.6557 23.0626 34.6759C23.0862 34.686 23.1098 34.6994 23.1333 34.7095C23.3488 34.8105 23.5306 34.8509 23.5306 34.8509C22.8977 34.2483 22.8741 33.1743 22.8741 33.1743L22.7798 33.3056C22.7024 33.3965 22.625 33.4605 22.625 33.4605C22.5206 33.3965 22.4432 33.3359 22.3792 33.282C22.2647 33.1844 22.1502 33.0564 22.0593 32.8645C21.9011 32.5312 21.7328 31.7131 21.7328 31.7131L21.7664 31.7737C21.9449 32.144 22.396 32.7837 22.6149 32.6659C22.7798 32.5817 22.8539 32.1575 22.8842 31.942C22.8438 31.7737 22.8101 31.5953 22.7899 31.4471C22.6721 31.6357 22.5509 31.7434 22.5509 31.7434C22.5509 31.7434 22.3825 31.6963 22.1671 31.272C21.9516 30.8478 21.8809 30.1475 21.8809 30.1475C21.8809 30.1475 21.9718 30.3361 22.093 30.5482L22.1974 30.7132C22.2007 30.7199 22.2075 30.7266 22.2108 30.7334C22.2984 30.8512 22.4364 31.1037 22.5745 31.0768C22.6721 31.0532 22.8539 30.7603 22.9414 30.602C22.8909 30.3293 22.8842 29.8748 22.8876 29.6627C22.8909 29.6728 22.8943 29.6829 22.8977 29.693C22.901 29.6964 22.901 29.6964 22.901 29.6997C22.9078 29.7132 22.9111 29.7233 22.9145 29.7368C22.9179 29.7401 22.9179 29.7435 22.9212 29.7469V29.7502C22.9212 29.7536 22.9246 29.7603 22.928 29.7637C22.928 29.7671 22.928 29.7671 22.928 29.7704C22.9313 29.7805 22.9381 29.7907 22.9414 29.8008C23.0391 30.0533 23.1603 30.3361 23.2276 30.4438C23.2545 30.4842 23.2815 30.5111 23.3118 30.5347C23.4397 30.6525 23.5912 30.5583 23.7192 30.427C23.8437 30.299 24.0861 29.996 24.1501 29.9119C24.1063 29.7334 24.076 29.555 24.0592 29.454C23.9885 29.592 23.9077 29.7166 23.8134 29.8008C23.8134 29.8008 23.5744 29.6627 23.47 29.289C23.3657 28.922 23.2377 28.2554 23.2444 28.0163C23.2444 27.9961 23.2444 27.9759 23.2512 27.9658C23.2545 27.9557 23.5879 28.8109 23.773 28.9321C23.9346 29.0365 24.2309 28.4641 24.3218 28.2823C24.2343 28.1241 24.1636 27.9052 24.1669 27.6258C24.1669 27.6258 24.1838 27.3228 24.2276 27.1814C24.2309 27.1713 24.4464 27.9389 24.5878 27.9187C24.7326 27.8951 25.0288 27.3901 25.0288 27.3901C25.0288 27.3901 25.0423 27.7975 24.874 28.2083C24.9177 28.3025 25.0625 28.5618 25.1534 28.6123C25.2612 28.6762 25.4766 28.4406 25.645 28.151C25.645 28.151 25.6248 28.5045 25.4935 28.8176C25.4935 28.8176 25.4935 28.8176 25.4935 28.821L25.4901 28.8277C25.4901 28.8277 25.4935 28.8345 25.5036 28.8513C25.5069 28.858 25.7426 29.2553 25.9446 29.4338C26.15 29.6156 26.5877 29.8277 26.9143 29.8412C26.9143 29.8412 26.6853 29.629 26.5203 29.2419C26.517 29.2385 26.517 29.2318 26.5136 29.225C26.5035 29.1981 26.49 29.1678 26.4833 29.1409C26.3419 28.7301 26.3183 28.3429 26.3183 28.3396C26.3049 28.353 26.2914 28.3631 26.2813 28.3766C26.2779 28.3766 26.2779 28.3766 26.2779 28.3766C26.2241 28.4271 26.1635 28.4641 26.113 28.4911C26.0759 28.5079 26.049 28.5146 26.049 28.5146C26.049 28.5146 25.5305 27.986 25.8234 27.1309C25.8234 27.1309 25.9749 27.7807 26.1163 27.848C26.2544 27.9187 26.591 27.4036 26.591 27.4036C26.591 27.4036 26.6213 27.7234 26.4934 28.05C26.517 28.0736 26.5405 28.0972 26.5675 28.1207C26.5708 28.1207 26.5708 28.1207 26.5708 28.1241C26.7223 28.2621 27.1735 28.5988 28.0724 28.7133C28.0724 28.7133 27.6112 28.2419 27.426 27.5517C27.426 27.545 27.4226 27.5349 27.4193 27.5248C27.4092 27.4777 27.3991 27.4339 27.3923 27.3901C27.261 27.5787 27.0085 27.6258 27.0085 27.6258C27.0085 27.6258 26.7628 27.2723 26.7729 26.7774C26.783 26.2858 26.8234 26.2286 26.8234 26.2286C26.8234 26.2286 26.8368 26.3262 26.8671 26.4575C26.921 26.6461 27.0186 26.9457 27.1129 27.0198C27.2577 27.1342 27.6045 26.5787 27.6045 26.5787C27.6045 26.5787 27.5977 26.8952 27.5068 27.1612C27.5337 27.1746 27.564 27.1881 27.5977 27.1982C27.5977 27.2016 27.6011 27.2016 27.6045 27.2016C27.7459 27.2757 28.4461 27.6157 29.2373 27.5046C29.2373 27.5046 28.7054 27.04 28.7559 26.2488C28.8199 26.2791 28.9276 26.3094 29.1161 26.3262C29.5134 26.3599 30.1329 26.3228 30.4494 26.2218C30.4494 26.2218 29.978 25.9525 29.7424 25.6562C29.8265 25.6865 29.9713 25.7135 30.2036 25.6798C30.6144 25.6158 31.6042 25.2825 32.5604 25.3465L33.5132 25.4104C33.5132 25.4104 32.3112 25.0502 31.3012 24.9761C30.2912 24.9054 29.2777 24.9088 28.527 25.0569Z" fill="#FBB900"/>
<path fill-rule="evenodd" clip-rule="evenodd" d="M24.8825 33.0037C24.8825 33.0003 24.8825 32.9969 24.8791 32.9936C24.8758 32.97 24.8724 32.9498 24.869 32.9262C24.869 32.9296 24.869 32.9329 24.8657 32.9329C24.8623 32.9565 24.8556 32.9801 24.8488 33.0037C24.8253 33.0777 24.8017 33.1383 24.7849 33.1855C24.7512 33.2696 24.7276 33.3168 24.7209 33.3336C24.5593 33.2831 24.4078 33.1754 24.2899 33.071C24.2866 33.0676 24.2866 33.0676 24.2832 33.0643C24.2563 33.0373 24.2293 33.007 24.2058 32.9801C24.2024 32.9801 24.2024 32.9801 24.2024 32.9801C24.199 32.9733 24.1923 32.97 24.1889 32.9632C24.1216 32.8858 24.0644 32.805 24.0105 32.7208C23.9701 32.6602 23.9364 32.5996 23.9061 32.5424C23.9061 32.539 23.9028 32.539 23.9028 32.539C23.8826 32.502 23.8657 32.465 23.8489 32.4313C23.8321 32.3943 23.8152 32.3539 23.7984 32.3202C23.795 32.3135 23.7917 32.3034 23.7883 32.2966C23.7883 32.3 23.7849 32.3034 23.7849 32.3101C23.7816 32.3135 23.7816 32.3202 23.7782 32.3236C23.7748 32.3404 23.7681 32.3572 23.7614 32.3741C23.7614 32.3774 23.7614 32.3774 23.7614 32.3808C23.758 32.3875 23.7546 32.3976 23.7513 32.4044C23.7412 32.438 23.7277 32.4751 23.7142 32.5087C23.7109 32.5222 23.7075 32.5323 23.7008 32.5458C23.7008 32.5458 23.7008 32.5458 23.7008 32.5491C23.6907 32.5761 23.6772 32.603 23.6671 32.6333C23.6536 32.667 23.6402 32.6973 23.6233 32.7309C23.5863 32.8185 23.5425 32.906 23.4954 32.9936C23.4954 32.9936 23.4887 32.9868 23.4752 32.9733C23.4684 32.9666 23.4583 32.9531 23.4449 32.9397C23.4415 32.9329 23.4348 32.9296 23.4314 32.9228C23.3439 32.8387 23.1789 32.6501 23.0476 32.3976C23.0375 32.3774 23.024 32.3539 23.0139 32.3337C23.0038 32.3135 22.9971 32.2966 22.9904 32.2764L22.987 32.2731C22.9803 32.2529 22.9735 32.236 22.9668 32.2158C22.9836 32.4616 23.0543 33.209 23.4617 33.98C23.9095 34.8217 24.7209 35.054 24.8185 35.0776C24.8657 35.0944 24.8926 35.1012 24.8926 35.1012C23.8321 34.2325 23.8119 33.0037 23.8287 32.6602C23.8691 32.805 24.0105 33.1821 24.4213 33.7645C24.9532 34.5153 25.5996 34.9463 25.8185 34.9867C25.8185 34.9867 25.3842 34.5557 25.0912 33.7612C24.9869 33.438 24.9162 33.1552 24.8825 33.0037Z" fill="#FBB900"/>
<path fill-rule="evenodd" clip-rule="evenodd" d="M53.3164 40.9536C53.3164 40.9536 53.3266 40.9536 53.3403 40.9502C53.3334 40.9502 53.3232 40.9502 53.3164 40.9502V40.9536Z" fill="#FBB900"/>
<path fill-rule="evenodd" clip-rule="evenodd" d="M28.8527 52.8332C28.4487 54.7826 28.0547 53.7995 27.5969 54.6142C27.5295 54.7388 26.5363 56.54 26.5529 56.5703C26.5565 56.5737 26.5666 56.5737 26.5767 56.5737C26.5902 56.5737 26.607 56.5737 26.6239 56.5703C26.6272 56.5703 26.6306 56.5703 26.6306 56.5703C26.6407 56.5703 26.6542 56.567 26.6676 56.567C26.8427 56.5501 27.1928 56.4996 27.5598 56.466C28.149 56.4491 28.6338 54.8432 29.0378 54.8432H29.0412C29.0446 54.8432 29.0446 54.8499 29.0446 54.86C29.0378 55.0082 28.6035 56.1192 28.6709 56.1158C28.6742 56.1158 28.6776 56.1125 28.681 56.1125C28.6843 56.1125 28.6843 56.1125 28.6877 56.1125C28.8931 56.0586 29.1591 55.9946 29.3678 55.9778C29.5058 55.9677 29.6203 55.9812 29.6809 56.0317C29.691 56.0418 29.7045 56.0519 29.7112 56.0653C29.7247 56.0923 29.7314 56.1259 29.7247 56.1663C29.7348 56.1697 29.7415 56.1697 29.7482 56.1731C29.7583 56.1764 29.7684 56.1731 29.7785 56.1731C29.8021 56.1798 29.8257 56.1798 29.8492 56.1798C29.9435 56.1663 30.0243 56.1057 30.0917 56.0283C30.1253 55.9845 30.1994 55.732 30.297 55.365C30.5091 54.5536 30.8256 53.1867 31.0613 52.2709C31.0613 52.2676 31.0613 52.2642 31.0613 52.2608C31.0647 52.2507 31.068 52.2373 31.0714 52.2272C31.0815 52.1834 31.095 52.1396 31.1051 52.0992C31.1825 51.8804 31.7347 52.0083 31.8862 52.0622C32.0781 51.6784 31.9535 50.7155 32.0612 49.3418C32.1218 48.5506 32.2599 47.6281 32.5797 46.5979C33.3541 44.0997 34.1655 41.9046 34.0274 40.9619C33.7547 41.2716 32.6302 42.5308 32.344 42.7126C32.344 42.7126 32.1925 42.8608 32.3508 42.4803C32.3878 42.3827 32.4955 42.1807 32.6269 41.9315C32.7481 41.6891 32.8928 41.3962 33.0477 41.0932C34.3237 38.521 36.9633 33.0196 36.2428 29.7976C36.226 29.6461 36.1586 29.4744 36.1553 29.3498C36.1553 29.3161 36.7209 29.5552 37.4279 29.7403C38.1147 29.9558 38.741 30.0905 39.1281 30.5921C39.2561 30.7605 39.3571 30.9692 39.4278 31.2352C39.6466 32.5786 40.1281 34.2855 40.9765 35.3528C41.4142 35.8982 41.9495 36.2719 42.5926 36.346C42.4848 36.2484 42.2761 35.979 41.8923 35.2181C41.2492 33.9455 40.9395 32.2048 40.8452 31.4237C40.8452 31.4204 40.8418 31.417 40.8418 31.4136C40.8418 31.4103 40.8418 31.4035 40.8418 31.4002C40.7173 30.4339 40.761 29.5686 40.761 29.5686L40.7812 29.6562V29.6494C40.7812 29.6494 41.1852 31.4944 41.9024 33.3563C41.9394 33.4573 41.9798 33.5516 42.0168 33.6458C42.2896 34.2485 42.5858 34.804 42.8922 35.2451C43.377 35.9454 43.8821 36.3729 44.3534 36.3123C44.074 35.8713 42.9293 33.3799 42.9293 31.8109C42.9293 31.8143 42.9293 31.8143 42.9293 31.8143C43.0168 32.0432 43.1245 32.3227 43.2525 32.6223C43.6127 33.4135 44.515 35.309 45.0503 35.6962C45.0503 35.6962 45.3466 35.9184 45.7035 35.942C46.0604 35.9656 46.8987 35.9353 47.8515 35.5279C48.0434 35.4471 48.2353 35.3562 48.4306 35.2585C48.9457 35.0026 49.4575 34.7367 50.1544 34.5784C53.5178 33.8175 54.7198 34.8444 55.3628 35.3225C54.942 34.6491 54.4942 33.8579 54.0902 33.1071C53.5414 32.1375 52.9455 31.0164 52.4606 30.0265C51.8142 28.7 52.4943 27.3769 53.9319 26.3466C53.9286 26.3466 53.9286 26.35 53.9286 26.35L53.9319 26.3466C53.3394 27.1715 52.8781 28.5014 53.8343 30.3093C54.1642 30.9322 57.9014 36.6625 58.1371 37.1103C58.2717 37.3594 58.4232 37.6119 58.5882 37.8644C61.0897 41.6622 67.1163 45.7932 68.2846 46.9581C68.3822 47.0591 68.8839 47.4699 69.234 47.9682C69.3923 48.1938 69.5168 48.4362 69.5606 48.6752C69.5909 48.8301 67.9782 47.7594 68.0018 47.9581C68.0455 48.3587 68.0691 48.8334 68.0826 49.3418C68.0893 49.6078 68.0927 49.8805 68.0927 50.1566V50.1431C68.0994 50.1633 68.0927 51.1027 68.0792 52.0151C68.0792 52.0858 68.0792 52.1565 68.0792 52.2272C68.0758 52.2406 68.0758 52.2575 68.0758 52.2709C68.0758 52.3551 68.0758 52.4359 68.0725 52.5134C68.0624 53.052 68.0523 53.5133 68.0388 53.6749C68.0388 53.7086 68.0321 53.7389 68.0287 53.7725C68.0152 54.1092 67.9883 54.4223 67.9513 54.5873C67.9378 54.6378 67.921 54.6816 67.8974 54.722C67.8738 54.7624 67.8469 54.796 67.8166 54.8263C67.6651 54.9778 67.4395 54.9913 67.315 54.9644C67.3015 54.961 67.2846 54.9577 67.2712 54.9543C67.2038 54.9442 67.1331 54.9442 67.0658 54.9475C67.0624 54.9475 67.0591 54.9475 67.0557 54.9475C66.9446 54.9711 66.8436 55.0486 66.7695 55.264C66.6382 55.6276 66.6248 55.9071 66.7594 56.0822C66.7998 56.1327 66.8571 56.1764 66.9278 56.2101C66.985 56.237 67.0523 56.2539 67.1298 56.2673C67.1365 56.2673 67.1432 56.2707 67.1533 56.2707C67.1601 56.2741 67.1668 56.2741 67.1735 56.2741C67.2712 56.2943 67.3857 56.3077 67.5102 56.3111C67.5203 56.3111 67.5304 56.3111 67.5405 56.3111C67.5843 56.3145 67.6314 56.3145 67.6786 56.3111C67.6954 56.3111 67.7122 56.3077 67.7291 56.3077C67.7324 56.3077 67.7358 56.3077 67.7358 56.3077H67.7392C67.8099 56.301 67.8772 56.2909 67.9445 56.2774C67.9917 56.2673 68.0422 56.2572 68.0859 56.2404C68.1129 56.2303 68.1398 56.2168 68.1701 56.2034C68.325 56.1293 68.4597 56.0216 68.5741 55.8802C68.7122 55.7118 68.8199 55.5031 68.9007 55.2741C69.0657 54.823 69.3956 53.6648 69.6549 52.7086C69.6919 52.574 69.7357 52.4258 69.7794 52.2709C69.7828 52.2575 69.7895 52.2406 69.7929 52.2272C69.8064 52.1834 69.8198 52.1363 69.8333 52.0925C70.0858 51.2643 70.4191 50.2711 70.6986 49.3418C70.712 49.288 70.7289 49.2375 70.7457 49.1836C71.0992 47.9648 71.1935 47.8066 71.106 47.5642C71.0353 47.3689 70.7861 46.9682 70.3754 46.4801C70.372 46.4733 70.3686 46.47 70.3653 46.4666C70.3585 46.4599 70.3518 46.4498 70.3451 46.443C69.84 45.837 69.1162 45.0795 68.7829 44.6721C68.3418 44.13 66.7056 42.2042 65.9682 41.339L65.5171 40.8339C65.5171 40.8339 64.7831 36.5783 64.3825 34.703C63.9785 32.8243 63.3017 30.8716 62.4028 29.673C61.5072 28.4778 60.844 27.7607 59.8642 26.9964C59.8642 26.9964 59.9215 26.9223 60.1672 27.0065C60.3356 27.0503 60.6016 27.2018 60.9147 27.424C61.2783 27.6597 61.7564 28.0165 62.2951 28.535C63.4734 29.673 63.7933 30.3767 64.3219 31.8109C64.7394 32.9388 65.2578 35.6827 65.5003 37.4469C65.5945 38.0765 65.6652 38.6253 65.7157 39.0428C65.7191 39.0765 65.7225 39.1034 65.7258 39.1371C65.746 39.3088 65.7662 39.4704 65.7831 39.6084C65.7831 39.6387 65.7864 39.6657 65.7898 39.6892C65.8033 39.8003 65.81 39.8677 65.81 39.8811C65.81 39.8811 65.81 39.8778 65.81 39.871C65.8134 39.871 65.8134 39.8744 65.8134 39.8744C65.8201 39.9518 65.8268 39.999 65.8268 40.0057C65.8369 40.0562 65.847 40.2414 65.847 40.2414C65.847 40.2414 65.911 39.9956 65.9379 39.6387C65.9447 39.5748 65.9514 39.5007 65.9581 39.4165C66.0086 38.7802 65.9783 37.8846 65.975 37.08C65.9682 36.2787 65.9009 35.0666 65.7932 34.2451C65.709 33.592 65.5541 32.3967 65.2006 31.3025C65.1972 31.2857 65.1905 31.2689 65.1871 31.252C65.1804 31.2352 65.1737 31.215 65.1669 31.1982C64.9616 30.5652 64.6047 29.811 64.1502 29.1108C63.8606 28.6495 63.5509 28.2455 63.2176 27.9256C63.1435 27.8482 63.0661 27.7708 62.9886 27.7001C62.5779 27.323 62.0627 27.0166 61.5678 26.7776C60.0662 26.0402 58.063 25.5992 56.6456 25.35C56.0261 25.2423 55.41 25.1952 54.8477 25.1783C54.8443 25.1783 54.841 25.1783 54.841 25.1783C54.8275 25.1783 54.814 25.1783 54.8006 25.1783C53.0566 25.1009 51.2654 25.3197 49.9356 25.4308C48.5989 25.542 46.7809 25.6194 45.8348 25.6396C44.8921 25.6598 42.2694 25.616 40.7139 25.6194C39.1584 25.6261 35.061 25.4746 35.061 25.4746C35.061 25.4746 35.2597 25.5622 35.4853 25.8483C35.4853 25.8483 35.4853 25.8483 35.4853 25.8517C35.9734 26.5251 36.1149 27.6698 35.933 28.6731C35.9297 28.6697 35.9297 28.6697 35.9297 28.6697C35.7681 27.5755 35.455 26.8887 35.0913 26.4712C34.4012 25.6699 33.546 25.8416 33.2766 25.9695C31.6808 26.6934 29.2769 28.4475 28.7988 32.124C28.3645 35.4504 28.5766 36.5143 29.3308 38.0934C29.5361 38.5311 29.8425 39.1404 30.1051 39.8037C30.2903 40.2313 30.4889 40.8171 30.5664 41.2615C30.7078 42.0527 30.664 42.3625 30.6236 42.3995C30.5832 42.4332 30.425 42.1605 30.1489 41.44C29.9637 40.9484 29.7617 40.541 29.6506 40.3357C29.7213 42.5981 29.5092 46.4498 29.2601 49.3418C29.1591 50.5202 29.0513 51.5404 28.9537 52.2272C28.9503 52.2406 28.9503 52.2575 28.9469 52.2709V52.2743C28.9133 52.4999 28.883 52.6918 28.8527 52.8332Z" fill="#FBB900"/>
<path fill-rule="evenodd" clip-rule="evenodd" d="M55.2543 44.4451C55.251 44.4519 55.251 44.4519 55.251 44.4519C55.251 44.4519 55.2442 44.4485 55.2308 44.4384C55.2274 44.435 55.224 44.4316 55.2207 44.4283C55.2038 44.4114 55.1769 44.3778 55.1399 44.3239C55.086 44.2465 55.0187 44.1354 54.958 44.0243C54.884 43.8963 54.8133 43.7684 54.7695 43.7044C54.6651 43.5462 54.5742 43.4283 54.4934 43.4317C54.4867 43.4317 54.4833 43.4351 54.4766 43.4351C54.4665 43.4351 54.4631 43.4384 54.4564 43.4418C54.4497 43.4418 54.4463 43.4452 54.4429 43.4452C54.4362 43.4485 54.4295 43.4519 54.4261 43.4586C54.4227 43.462 54.4194 43.462 54.416 43.4687C54.4126 43.4721 54.4126 43.4755 54.4093 43.4788C54.4059 43.4957 54.4025 43.5091 54.4025 43.526V43.5293C54.4093 43.5765 54.4598 43.6977 54.5641 43.893C54.5742 43.9098 54.581 43.93 54.5911 43.9502C54.5978 43.967 54.6079 43.9839 54.6146 44.0007C54.6247 44.0276 54.6348 44.0546 54.6449 44.0849C54.6449 44.0882 54.6483 44.095 54.6483 44.0983C54.6719 44.1623 54.6887 44.2229 54.7022 44.2768C54.7089 44.3104 54.7123 44.3407 54.7089 44.3643C54.7089 44.3879 54.7022 44.4047 54.6887 44.4114C54.6752 44.4182 54.655 44.4148 54.6348 44.4047C54.5204 44.3407 54.352 44.0411 54.3453 44.031C54.3386 44.0243 54.3285 44.0108 54.3184 43.9973C54.3116 43.9872 54.3049 43.9771 54.2948 43.967C54.2881 43.9536 54.278 43.9435 54.2645 43.93C54.2106 43.866 54.1366 43.8054 54.0625 43.829C54.0322 43.8425 54.0187 43.8728 54.0221 43.9098C54.0187 44.0175 54.1264 44.1825 54.1365 44.196C54.1433 44.196 54.315 44.5125 54.3184 44.536C54.3318 44.5697 54.352 44.6 54.3453 44.6303C54.3386 44.6505 54.3251 44.6707 54.2948 44.6909C54.278 44.7044 54.2544 44.6976 54.2308 44.6808C54.177 44.6471 54.113 44.5697 54.0456 44.5226C53.9918 44.4822 53.9379 44.4653 53.8874 44.499C53.8739 44.5125 53.8638 44.5293 53.8638 44.5495C53.8537 44.6909 54.113 45.0074 54.1197 45.0814C54.1197 45.0882 54.1197 45.0915 54.1163 45.0949C54.0692 45.1353 53.8975 44.9737 53.8369 45.0444C53.8302 45.0545 53.8268 45.0612 53.8234 45.0713C53.8201 45.0915 53.8234 45.1151 53.8403 45.1387C53.884 45.2026 53.9716 45.2868 54.0557 45.3373C54.4025 45.3272 55.1533 45.0612 55.3284 44.8491C55.3755 44.7852 55.3957 44.5764 55.4025 44.462C55.4058 44.4249 55.4058 44.3946 55.4058 44.3845V44.3811C55.4092 44.3811 55.4058 44.3811 55.4058 44.3778C55.4092 44.3643 55.4058 44.3508 55.4025 44.3407C55.3991 44.334 55.3991 44.3273 55.3957 44.3205H55.3924C55.3856 44.3037 55.3688 44.2869 55.3553 44.2734C55.3318 44.2532 55.3048 44.233 55.2745 44.2162C55.2577 44.2061 55.2442 44.196 55.2274 44.1859V44.1892C55.2611 44.3205 55.2644 44.3879 55.2611 44.4215C55.2577 44.4316 55.2577 44.4418 55.2543 44.4451Z" fill="#FBB900"/>
<path fill-rule="evenodd" clip-rule="evenodd" d="M56.7013 47.1259C56.7047 47.1158 56.708 47.1057 56.708 47.0956C56.7148 47.0754 56.7181 47.0518 56.7215 47.0316C56.7282 47.0047 56.7316 46.9778 56.7383 46.9508C56.7383 46.9407 56.7417 46.9273 56.7451 46.9172C56.7484 46.8801 56.7552 46.8397 56.7585 46.796C56.7585 46.7892 56.7585 46.7825 56.7585 46.7724C56.7619 46.7286 56.7653 46.6781 56.7653 46.631V46.6242C56.7653 46.5737 56.7653 46.5199 56.7619 46.4694C56.7585 46.466 56.7585 46.466 56.7585 46.4626C56.7249 46.2472 56.6744 46.0553 56.634 45.9139C56.5666 45.6512 56.3512 45.2001 56.3209 44.7759C56.304 44.5503 56.2131 44.3348 56.1323 44.18C56.1256 44.1631 56.1189 44.153 56.1088 44.1362C56.1088 44.1362 56.1088 44.1328 56.1054 44.1328C56.0212 44.0049 55.9269 43.9274 55.7418 43.8365C55.7115 43.8231 55.6845 43.813 55.6576 43.8029V43.7995C55.6206 43.786 55.5903 43.7793 55.56 43.7692C55.5566 43.7658 55.5532 43.7658 55.5499 43.7658C55.3782 43.712 55.2401 43.7052 55.1155 43.6884C55.1054 43.685 55.0953 43.6817 55.0852 43.6817C55.0617 43.6749 55.0347 43.6682 55.0112 43.6615C54.9977 43.6581 54.9876 43.6547 54.9775 43.6514C54.9775 43.6514 54.9775 43.6514 54.9775 43.6547C55.0112 43.7052 55.0549 43.7759 55.1021 43.8635C55.1391 43.8668 55.1896 43.8769 55.2401 43.9005C55.3243 43.9409 55.496 44.0823 55.5532 44.1396C55.6071 44.2002 55.6206 44.2338 55.634 44.3113C55.6374 44.3382 55.6374 44.4257 55.6307 44.5335C55.6206 44.7085 55.5936 44.9408 55.5465 45.0419C55.7148 45.2641 56.4555 46.3078 56.4892 46.3684C56.5094 46.402 56.5296 46.4694 56.5262 46.5098C56.5229 46.5468 56.4959 46.5603 56.4118 46.4828L56.4084 46.4795C56.3209 46.3953 56.0246 46.0822 55.7586 45.7994C55.5768 45.6041 55.4085 45.4257 55.3277 45.3415C55.3277 45.3381 55.3243 45.3348 55.3243 45.3348C55.1896 45.3752 54.8832 45.4593 54.6375 45.4829C54.5095 45.4964 54.4287 45.5065 54.3782 45.5166C54.3513 45.5199 54.3345 45.5267 54.3244 45.5334C54.321 45.5334 54.321 45.5368 54.3176 45.5368C54.3176 45.5401 54.3143 45.5435 54.3109 45.5469C54.3109 45.5469 54.3075 45.5469 54.3075 45.5502C54.3041 45.5603 54.3109 45.5738 54.321 45.5873C54.358 45.6479 54.5196 45.7893 54.6913 46.1832C54.6947 46.1899 54.6981 46.1967 54.6981 46.2C54.7048 46.2101 54.7115 46.2236 54.7149 46.2371C54.7317 46.2707 54.7519 46.3078 54.7688 46.3515C54.9842 46.8229 55.5364 47.9036 56.1727 47.8666C56.1727 47.8666 56.1727 47.8666 56.1761 47.8666C56.1896 47.8565 56.203 47.8464 56.2165 47.8363C56.2232 47.8329 56.2266 47.8296 56.2333 47.8262C56.2569 47.806 56.2805 47.7824 56.3007 47.7589C56.3916 47.6511 56.6474 47.3111 56.6474 47.3111C56.6474 47.3111 56.6744 47.237 56.7013 47.1259Z" fill="#FBB900"/>
<path fill-rule="evenodd" clip-rule="evenodd" d="M55.2024 40.2533C55.1519 39.6876 54.4819 39.6944 54.0644 39.7482C53.7142 39.792 53.6166 39.9098 53.5897 39.9603V39.9637C53.62 39.957 53.6604 39.9536 53.7109 39.9536H53.7142C53.7311 39.9536 53.7479 39.9536 53.7681 39.9536C53.8085 39.957 53.859 39.9637 53.9095 39.9772C53.96 39.9906 54.0105 40.0041 54.0711 40.0277C54.2091 40.0849 54.3169 40.1691 54.3943 40.2465C54.3977 40.2499 54.4044 40.2566 54.4078 40.26C54.4213 40.2701 54.4314 40.2836 54.4415 40.2937C54.4718 40.3273 54.5021 40.3644 54.5324 40.4048C54.5526 40.4351 54.5593 40.4755 54.5593 40.5192C54.5593 40.5226 54.5593 40.526 54.5593 40.5293C54.5593 40.5798 54.5559 40.6371 54.5593 40.6808C54.5593 40.728 54.5627 40.7684 54.5728 40.7852C54.593 40.8155 54.6771 40.8458 54.7579 40.9131C54.7714 40.9233 54.7882 40.9367 54.8051 40.9502C54.8084 40.9569 54.8152 40.9603 54.8185 40.967C54.832 40.9771 54.8455 40.9872 54.8556 41.0007C54.8589 41.0041 54.8623 41.0041 54.8657 41.0074C54.9094 41.0512 54.9532 41.1017 54.9902 41.1556C55.0239 41.2027 55.0509 41.2431 55.061 41.2667C55.0946 41.3273 55.1148 41.4148 55.1081 41.4922C55.1047 41.5192 55.098 41.5427 55.0913 41.5663C55.0677 41.6134 55.0407 41.6471 55.0239 41.674C55.0239 41.674 55.0205 41.6774 55.0172 41.6808C55.0071 41.6942 54.9936 41.7111 54.9936 41.7212C54.9936 41.738 55.0273 41.7885 55.1317 41.8559C55.1586 41.8727 55.1788 41.9064 55.1822 41.9569C55.1889 41.9905 55.1923 42.0276 55.1889 42.0713C55.1855 42.2026 55.1451 42.3575 55.098 42.4215C55.061 42.4686 55.0879 42.8794 54.97 42.9063C54.9633 42.9097 54.9566 42.9097 54.9498 42.9063C54.8926 42.8928 54.8488 42.7346 54.8421 42.5696C54.8421 42.5662 54.8421 42.5595 54.8421 42.5528C54.8387 42.5359 54.8387 42.5157 54.8387 42.4989C54.8253 42.5056 54.8051 42.5157 54.7815 42.5326C54.7445 42.5561 54.6973 42.5965 54.6367 42.6673C54.6199 42.6875 54.6031 42.7077 54.5862 42.7245C54.5088 42.8188 54.4482 42.8996 54.4482 42.9299C54.4549 43.0578 54.529 43.2093 54.5997 43.2463C54.6031 43.2463 54.6064 43.2497 54.6064 43.2531C54.6906 43.3036 55.1956 43.4652 55.3067 43.4955C55.3168 43.4988 55.3269 43.5022 55.3269 43.5022C55.3269 43.5022 55.3337 43.4988 55.337 43.4988C55.3774 43.482 55.6165 43.3507 55.6501 43.28C55.6703 43.2396 55.6973 43.142 55.7175 43.0578C55.8656 43.0039 55.9767 42.8221 56.0474 42.61C56.0878 42.4854 56.1148 42.3541 56.1249 42.2262C56.135 42.1016 56.1316 41.9804 56.1114 41.8895C56.0676 41.7043 56.007 41.5831 55.9532 41.5057C55.9666 41.4687 55.97 41.4316 55.9734 41.3946C55.9801 41.1421 55.7646 40.9536 55.5996 40.8492C55.6097 40.7953 55.6097 40.7448 55.6097 40.701C55.5963 40.3846 55.3774 40.2836 55.2024 40.2533Z" fill="#FBB900"/>
<path fill-rule="evenodd" clip-rule="evenodd" d="M51.7899 53.24C51.773 53.1221 51.7495 52.9942 51.7293 52.8595C51.6922 52.6508 51.6586 52.4319 51.6518 52.2501H51.6552V52.2468V52.2434C51.6552 52.2266 51.6518 52.2131 51.6518 52.1963C51.6518 52.1929 51.6518 52.1895 51.6518 52.1828C51.6518 52.139 51.6518 52.0953 51.6552 52.0582C51.6552 52.038 51.6552 52.0178 51.6552 51.9976C51.6586 51.9808 51.6586 51.9673 51.6586 51.9539C51.6586 51.9236 51.6586 51.8966 51.6586 51.8697C51.6619 51.8596 51.6619 51.8495 51.6619 51.8394C51.6619 51.7687 51.6586 51.7014 51.6586 51.634V51.6306C51.3017 51.1357 50.3489 50.321 50.2411 49.8866C50.2007 49.7183 50.2209 49.5702 50.2681 49.4422C50.2681 49.4422 50.2681 49.4389 50.2681 49.4355C50.2714 49.4254 50.2782 49.4187 50.2815 49.4086C50.2849 49.3985 50.2883 49.3917 50.2916 49.385C50.4229 49.0685 50.7192 48.7924 50.8741 48.6645V48.6611C50.2849 48.8025 49.3456 49.0449 49.0931 49.2571C49.0695 49.2739 49.0493 49.2907 49.0325 49.3109C48.9281 49.4254 48.8776 49.5836 48.8742 49.7722C48.8607 50.0819 48.9651 50.4725 49.1234 50.8664C49.1604 50.9472 49.2042 51.0314 49.2513 51.1088C49.4533 51.4421 49.6789 51.799 49.8641 52.0852C49.8876 52.1256 49.9819 52.2535 49.9819 52.2535C50.1199 52.469 50.2176 52.6272 50.2378 52.6744C50.2613 52.7316 50.2479 52.8023 50.1772 52.8764C50.1704 52.8865 50.157 52.8932 50.1469 52.9033C50.0661 52.974 49.9348 53.0481 49.7226 53.1255C49.7698 53.1996 49.8034 53.2837 49.8337 53.378C49.8674 53.4891 49.891 53.6103 49.9045 53.7383C49.9112 53.8123 49.9179 53.8898 49.9213 53.9706C49.9314 53.9672 49.9381 53.9672 49.9516 53.9638C49.9785 53.9605 50.0122 53.9605 50.0492 53.9571C50.0627 53.9537 50.0795 53.9537 50.0964 53.9537C50.0964 53.9537 50.0997 53.9537 50.1031 53.9537C50.2445 53.947 50.433 53.947 50.6519 53.9807C50.8808 54.0177 51.0424 54.0615 51.1838 54.0884C51.2175 54.0951 51.2478 54.0985 51.2815 54.1019C51.2949 54.1019 51.3084 54.1052 51.3219 54.1052C51.3555 54.1086 51.3892 54.1086 51.4229 54.1052C51.5003 54.1019 51.5811 54.0817 51.6518 54.0413C51.7124 54.011 51.7562 53.9706 51.7865 53.9268C51.8 53.91 51.8101 53.8931 51.8168 53.8729C51.8303 53.8426 51.8404 53.8123 51.8471 53.7787C51.8505 53.7551 51.8505 53.7315 51.8538 53.7046C51.8538 53.6979 51.8538 53.6911 51.8538 53.6844V53.681C51.8538 53.6474 51.8471 53.6103 51.8404 53.5733C51.8269 53.4723 51.8101 53.3645 51.7899 53.24Z" fill="#FBB900"/>
<path fill-rule="evenodd" clip-rule="evenodd" d="M38.2602 49.3152C38.2939 49.4162 38.3377 49.5138 38.4016 49.5947C38.6407 49.8943 38.9134 50.0088 38.9134 50.0088C38.9134 50.0088 39.0986 50.0761 39.2568 50.0088C39.2635 50.0054 39.2736 49.9987 39.2837 49.9953C39.2837 49.9953 39.2837 49.9953 39.2837 49.9919C39.314 49.8539 39.3544 49.7159 39.3174 49.5643C39.2837 49.4162 39.1996 49.3354 39.0784 49.3421C39.0683 49.3489 39.0615 49.3522 39.0548 49.3623C39.0481 49.3724 39.0413 49.3825 39.0312 49.3926C38.9639 49.4768 38.8629 49.5576 38.7316 49.5037C38.5834 49.4431 38.4892 49.4128 38.4117 49.3893C38.3848 49.3792 38.3579 49.3489 38.3309 49.3118C38.3175 49.2984 38.304 49.2849 38.2905 49.2681C38.2872 49.2647 38.2804 49.258 38.2771 49.2512C38.2703 49.2445 38.2636 49.2378 38.2569 49.231C38.2468 49.2209 38.2367 49.2108 38.2266 49.2041L38.2299 49.2075H38.2266C38.2367 49.2411 38.2468 49.2782 38.2602 49.3152Z" fill="#FBB900"/>
<path fill-rule="evenodd" clip-rule="evenodd" d="M46.4234 43.7761C46.4234 43.7795 46.4234 43.7828 46.42 43.7862C46.4099 43.803 46.4066 43.8199 46.4032 43.8367C46.3998 43.8434 46.3998 43.8468 46.3998 43.8535C46.3965 43.8704 46.3998 43.8906 46.4032 43.9074C46.4032 43.9175 46.4066 43.9276 46.4099 43.9377C46.4099 43.9444 46.4133 43.9478 46.4133 43.9545C46.4301 44.0017 46.4571 44.0353 46.4739 44.0488C46.4874 44.0589 46.5446 44.1094 46.6119 44.17C46.6187 44.1734 46.622 44.1767 46.6288 44.1801C46.6961 44.2272 46.7836 44.2946 46.8746 44.3922C47.0867 44.6111 47.2516 44.6245 47.5142 44.6447C47.7769 44.6649 48.5445 44.6313 48.6926 44.7693C48.8441 44.9073 48.8576 44.9073 48.8576 44.9073C48.8576 44.9073 48.7869 44.9208 48.6994 44.9376C48.7431 45.0184 48.834 45.2036 49.0259 45.6514C49.3188 46.3281 49.4939 46.5907 50.036 47.015C50.0427 47.0217 50.0494 47.0284 50.0595 47.0352C50.1067 47.0688 50.1538 47.0924 50.1908 47.1092H50.1942C50.2077 47.1126 50.2211 47.1227 50.2346 47.1261C50.3221 47.1429 50.4871 47.1059 50.6723 47.0116C50.679 47.0082 50.6858 47.0049 50.6925 47.0015C50.7194 46.9847 50.7464 46.9678 50.7733 46.951C50.7868 46.9442 50.8002 46.9375 50.8137 46.9274C50.8373 46.9139 50.8575 46.8971 50.881 46.8803C50.8945 46.8668 50.9113 46.8567 50.9248 46.8432C50.9349 46.8365 50.945 46.8298 50.9551 46.823C50.9551 46.823 50.9517 46.823 50.9484 46.823C50.7935 46.8971 50.5848 46.9543 50.4703 46.7894C50.3592 46.6311 50.2481 46.1665 50.1706 45.776C50.1706 45.7692 50.1706 45.7659 50.1706 45.7591C50.1673 45.7524 50.1673 45.749 50.1639 45.7423C50.1269 45.574 50.1067 45.4326 50.0898 45.3215C49.9888 45.1565 49.7767 44.8164 49.5377 44.537C49.3222 44.2845 49.2347 44.1936 49.201 44.1633C49.201 44.1498 49.201 44.1363 49.1976 44.1262C49.1842 43.9175 49.0933 43.7694 48.9956 43.665C48.9788 43.6448 48.962 43.6246 48.9418 43.6078C48.9384 43.6044 48.935 43.601 48.9317 43.5977C48.9081 43.5775 48.8845 43.5606 48.8643 43.5472C48.8037 43.5068 48.7566 43.4832 48.7364 43.4765C48.7263 43.4731 48.7061 43.4663 48.6859 43.4562C48.6489 43.4428 48.595 43.4259 48.5377 43.4057C48.3492 43.3384 48.0799 43.2509 47.9351 43.2441C47.888 43.2441 47.8577 43.2509 47.8341 43.2576C47.8307 43.261 47.8307 43.261 47.8274 43.2643C47.8206 43.2677 47.8139 43.2711 47.8072 43.2778C47.8038 43.2812 47.8004 43.2812 47.7971 43.2845C47.7937 43.2946 47.7903 43.3014 47.7903 43.3115H47.787V43.3148C47.7802 43.3418 47.7903 43.3721 47.8139 43.4057C47.8947 43.5169 48.1405 43.6347 48.2011 43.6684C48.2044 43.6684 48.2044 43.6717 48.2078 43.6751C48.2112 43.6785 48.2145 43.6818 48.2179 43.6886C48.2179 43.6953 48.2213 43.6987 48.2213 43.702C48.2246 43.7155 48.228 43.7323 48.2246 43.7492C48.2246 43.766 48.2179 43.7862 48.2112 43.803C48.1539 43.9276 47.9351 44.0724 47.2718 43.9646C47.2314 43.9545 46.9789 43.803 46.8106 43.7323C46.8106 43.729 46.8072 43.729 46.8038 43.729C46.8005 43.7256 46.7937 43.7222 46.7904 43.7222C46.787 43.7222 46.7836 43.7189 46.7803 43.7189C46.6321 43.6616 46.4773 43.6818 46.4234 43.7761Z" fill="#FBB900"/>
<path fill-rule="evenodd" clip-rule="evenodd" d="M55.7821 51.5115C55.7249 51.2185 55.6542 50.9357 55.5835 50.7068C55.4454 50.397 55.2805 50.094 55.129 49.7877V49.7843C55.1189 49.7674 55.1121 49.7506 55.102 49.7304C55.0482 49.6193 55.001 49.5048 54.9539 49.3904C54.9505 49.3803 54.9472 49.3735 54.9438 49.3634C54.7788 48.9257 54.7081 48.4881 54.624 48.0268C54.5903 47.8484 54.5533 47.6329 54.5027 47.4141C54.4724 47.2188 54.4253 47.0269 54.3748 46.8383C54.1627 46.4377 53.9068 46.0471 53.4658 45.7408C53.2671 45.5994 53.1291 45.4782 53.0382 45.3771C53.0315 45.3704 53.0281 45.367 53.0247 45.3603C52.8699 45.2155 52.7655 45.0438 52.7554 44.8486C53.5533 45.4411 53.8833 45.5152 53.89 45.4748C53.8934 45.4714 53.89 45.4613 53.8833 45.4546C53.8563 45.4243 53.826 45.3906 53.7991 45.3569C53.7419 45.2963 53.6779 45.2223 53.6274 45.1381C53.5836 45.064 53.5735 45.0068 53.5802 44.9597C53.5971 44.8822 53.6678 44.8418 53.7217 44.8418C53.7385 44.8385 53.7486 44.8418 53.7621 44.8418V44.8385C53.725 44.7711 53.6442 44.6095 53.6577 44.4647C53.6711 44.3267 53.7856 44.2324 53.9237 44.2728V44.2695C53.8732 44.1752 53.7856 44.0001 53.7991 43.8823C53.8025 43.8655 53.8058 43.8486 53.8126 43.8352C53.7688 43.8419 53.7183 43.852 53.6678 43.8655C53.4994 43.9025 53.3176 43.9597 53.1661 44.0102C52.9978 44.0708 52.8496 44.1281 52.789 44.155C52.7722 44.1617 52.7621 44.1651 52.7587 44.1651L52.7554 44.1685C52.7284 44.2055 52.7924 44.0237 52.8396 43.8722C52.8901 43.7173 52.9103 43.4547 52.9372 43.1584C52.9507 43.0103 53.0079 42.9228 53.0584 42.8723C53.1123 42.815 53.1628 42.7914 53.1628 42.7914C53.1628 42.7914 53.5466 42.7039 53.9405 42.5019C54.2906 42.3201 54.4253 41.9598 54.4489 41.8858C54.4489 41.8824 54.4489 41.8858 54.4489 41.8858C54.4421 41.8521 54.4421 41.8319 54.4388 41.8252C54.4354 41.8285 54.6273 41.9565 54.762 41.8723C54.762 41.8723 54.7586 41.8723 54.7586 41.8689H54.762C54.7283 41.8285 54.698 41.7713 54.6947 41.741C54.6913 41.7309 54.6913 41.7174 54.6913 41.7073C54.698 41.6737 54.7149 41.6434 54.7485 41.6063C54.7788 41.5727 54.7923 41.5255 54.799 41.4885C54.799 41.4717 54.799 41.4548 54.799 41.4447C54.799 41.4414 54.799 41.4414 54.799 41.4414C54.7957 41.4279 54.7856 41.401 54.7755 41.374C54.661 41.1552 54.4926 41.0542 54.3815 40.9868C54.2671 40.9195 54.2368 40.8286 54.257 40.7175C54.2603 40.7007 54.2603 40.6838 54.2637 40.6636C54.2704 40.6064 54.2704 40.5458 54.2704 40.5088C54.2166 40.4482 54.1627 40.3977 54.1122 40.3573C54.0785 40.3337 54.0482 40.3101 54.0179 40.2933C53.991 40.2765 53.9674 40.2663 53.9439 40.2562C53.9371 40.2529 53.927 40.2495 53.9203 40.2461C53.9102 40.2428 53.9001 40.236 53.89 40.236C53.8631 40.2226 53.8361 40.2158 53.8092 40.2091C53.8058 40.2057 53.8025 40.2057 53.8025 40.2057C53.7385 40.1889 53.6779 40.1855 53.6307 40.1855C53.6072 40.1889 53.587 40.1889 53.5701 40.1923C53.5499 40.199 53.5297 40.2024 53.5095 40.2091C53.4927 40.2125 53.4759 40.2158 53.459 40.2226C53.4557 40.2259 53.4523 40.2259 53.4523 40.2259C53.422 40.2327 53.3917 40.2428 53.3614 40.2562C53.2604 40.2899 53.1661 40.3371 53.0988 40.3977C52.9136 40.566 52.5971 40.9363 52.5433 41.0037C52.3951 41.0407 51.9574 41.1889 51.8362 41.64C51.8228 41.6838 51.816 41.7275 51.8127 41.7713C51.7958 42.0811 51.9945 42.3773 52.1696 42.5793C52.2335 42.6568 52.2773 42.7207 52.2739 42.7948C52.2672 42.8622 52.1561 43.1551 52.1292 43.2998C52.1258 43.3099 52.1224 43.3133 52.1224 43.3133C52.1224 43.3133 51.9743 43.3907 51.8564 43.4682L51.8598 43.4715H51.8564C52.0012 43.5389 52.2571 43.6702 52.3716 43.7779C52.5231 43.9261 52.5837 44.054 52.5668 44.1752C52.5668 44.1752 52.5298 44.1516 52.4759 44.1146C52.4355 44.091 52.3884 44.0607 52.3345 44.0304C52.2504 43.9799 52.1595 43.9294 52.109 43.8991C52.0686 43.8756 52.0046 43.8385 51.9339 43.8049C51.8093 43.7409 51.6578 43.6769 51.5635 43.6668C51.5534 43.6634 51.54 43.6634 51.5299 43.6634C51.5265 43.6634 51.5265 43.6634 51.5265 43.6634C51.4457 43.6702 51.3447 43.7038 51.2774 43.7308C51.2168 43.7544 51.1562 43.7847 51.0989 43.8251C50.9205 43.953 50.6848 44.3065 50.6107 44.724C50.6074 44.7274 50.6074 44.7307 50.604 44.7375C50.5602 44.7779 50.5198 44.8216 50.4862 44.862C50.4525 44.9058 50.4222 44.9529 50.4121 44.9866C50.4121 44.9933 50.4121 45.0034 50.4087 45.0135C50.4054 45.0876 50.4188 45.2728 50.4357 45.4479C50.439 45.4849 50.4424 45.5253 50.4491 45.5657C50.5636 45.5388 50.7387 45.3569 50.7858 45.2324C50.8026 45.1886 50.8262 45.1246 50.8498 45.064C50.8599 45.0371 50.87 45.0102 50.8801 44.9866C50.8801 44.9799 50.8834 44.9731 50.8834 44.9664C50.8868 44.9664 50.8868 44.963 50.8868 44.963C50.8935 44.9462 50.9003 44.9294 50.907 44.9125C50.9171 44.8856 50.9272 44.862 50.9373 44.8452C50.944 44.8351 50.9541 44.825 50.9642 44.8115C51.0282 44.7543 51.1562 44.6802 51.2605 44.6331C51.3178 44.6062 51.3716 44.586 51.3952 44.5792C51.4087 44.5759 51.4154 44.586 51.4154 44.5994C51.4154 44.6533 51.338 44.7947 51.3009 44.8654C51.2774 44.9092 51.237 44.963 51.21 45.0337C51.21 45.0371 51.2067 45.0405 51.2067 45.0405C51.2033 45.0539 51.1999 45.0674 51.1966 45.0775C51.1966 45.0842 51.1966 45.0876 51.1932 45.0943C51.1932 45.0977 51.1932 45.1044 51.1932 45.1112C51.1898 45.1213 51.1898 45.128 51.1898 45.1347C51.1898 45.1415 51.1898 45.1482 51.1898 45.1549V45.1583C51.1898 45.165 51.1898 45.1785 51.1932 45.1886C51.1932 45.192 51.1932 45.1987 51.1932 45.2054C51.1966 45.2223 51.1999 45.2357 51.2067 45.2559C51.2134 45.2761 51.2201 45.2963 51.2302 45.3165C51.237 45.3334 51.2437 45.3502 51.2504 45.3637C51.2538 45.3704 51.2572 45.3738 51.2605 45.3771C51.2875 45.4243 51.3144 45.4714 51.3514 45.5219C51.4827 45.7037 51.4558 45.9832 51.4558 46.2828C51.4558 46.5219 51.4255 47.0807 51.4087 47.3972C51.4087 47.707 51.4188 48.0437 51.4558 48.3904C51.4558 48.4005 51.4558 48.4106 51.4558 48.4241C51.4693 48.4914 51.4827 48.5621 51.4962 48.6362C51.4962 48.6396 51.4962 48.6463 51.4996 48.6497V48.653C51.5198 48.7507 51.54 48.8517 51.5703 48.9561C51.5703 48.9628 51.5736 48.9695 51.5736 48.9763C51.5905 49.0268 51.6039 49.0773 51.6208 49.1311C51.6208 49.1379 51.6241 49.148 51.6275 49.1547C51.6443 49.2086 51.6578 49.2591 51.678 49.3163C51.6915 49.3567 51.7049 49.3971 51.7218 49.4442C51.9945 50.1849 52.6611 51.131 52.8059 51.3128C52.9305 51.4609 53.2166 51.6057 53.4489 51.5923V51.5889C53.5264 51.333 53.6004 51.1512 53.6678 51.0233C53.6711 51.0098 53.6812 50.9963 53.688 50.9829C53.688 50.9795 53.688 50.9795 53.688 50.9761C53.8395 50.7068 53.9439 50.6967 53.9439 50.6967C53.9439 50.6967 53.9001 51.2556 53.8934 51.9054C53.8934 51.9727 53.8934 52.04 53.8934 52.1107C53.8934 52.1545 53.8934 52.2016 53.8934 52.2454V52.2521H53.8967C53.9001 52.3969 53.9068 52.5282 53.9136 52.6595C53.9708 53.215 54.1088 53.8177 54.4354 54.1207C54.6071 54.2453 54.7654 54.2924 55.0078 54.2722C55.2636 54.2453 55.6542 54.0803 55.7653 53.6157C55.873 53.1511 55.873 52.2521 55.873 52.2521V52.2454C55.8629 52.0097 55.8293 51.7572 55.7821 51.5115ZM53.2537 40.8825C53.2671 40.8353 53.3782 40.6704 53.587 40.7276C53.587 40.7276 53.624 40.7377 53.6745 40.768C53.6779 40.7714 53.6779 40.7714 53.6779 40.7714C53.6913 40.7781 53.7015 40.7882 53.7149 40.7983C53.7217 40.805 53.7318 40.8118 53.7385 40.8185C53.7722 40.8522 53.8092 40.8959 53.8361 40.9532C53.8395 40.9565 53.8395 40.9599 53.8429 40.9633C53.853 40.9835 53.8597 41.007 53.8698 41.0306C53.8732 41.0474 53.8799 41.0609 53.8833 41.0811C53.8934 41.1148 53.9001 41.1518 53.9068 41.1922V41.1956L53.8934 41.1821C53.6476 40.8589 53.2604 40.933 53.2537 40.933C53.2537 40.933 53.2436 40.9296 53.2469 40.9094C53.2469 40.9027 53.2469 40.8959 53.2537 40.8825ZM52.587 41.3841C52.5769 41.374 52.5534 41.3572 52.5264 41.3471C52.5231 41.3471 52.5197 41.3437 52.5163 41.3437C52.5029 41.337 52.486 41.3336 52.4692 41.3303H52.4658C52.449 41.3303 52.4288 41.3336 52.412 41.337C52.4052 41.3404 52.3985 41.3404 52.3918 41.3437C52.385 41.3471 52.3783 41.3505 52.3716 41.3572C52.2908 41.4077 52.2672 41.4582 52.2369 41.4717C52.2234 41.4784 52.2133 41.4818 52.2032 41.475C52.1999 41.4717 52.1999 41.4649 52.1999 41.4582C52.1999 41.4144 52.2773 41.3067 52.3547 41.2394C52.4423 41.1619 52.5466 41.1114 52.6241 41.1451C52.6544 41.1586 52.6948 41.1922 52.7284 41.236C52.7419 41.2495 52.752 41.2663 52.7655 41.2798C52.7722 41.2899 52.7789 41.3 52.7857 41.3101C52.8362 41.3909 52.853 41.4683 52.853 41.4885C52.853 41.5121 52.8059 41.5457 52.7453 41.5356C52.6847 41.5222 52.6241 41.4178 52.587 41.3841Z" fill="#FBB900"/>
<path fill-rule="evenodd" clip-rule="evenodd" d="M56.7788 52.5542C56.735 52.4868 56.6946 52.433 56.6643 52.3926C56.6441 52.3623 56.6239 52.3353 56.6037 52.3118C56.6004 52.305 56.597 52.2983 56.5936 52.2949C56.5903 52.5138 56.5768 52.9245 56.5061 53.3487C56.4792 53.4969 56.4556 53.6282 56.4287 53.7494C56.4051 53.8571 56.3849 53.9581 56.3613 54.0423C56.3714 54.049 56.3849 54.0558 56.395 54.0625C56.4118 54.0726 56.4287 54.0827 56.4455 54.0928C56.4556 54.0962 56.4691 54.0995 56.4792 54.1063C56.533 54.1265 56.5936 54.1366 56.6576 54.1298C56.6643 54.1298 56.6744 54.1298 56.6812 54.1265C56.6845 54.1265 56.6879 54.1265 56.6879 54.1265C56.7081 54.1231 56.7249 54.1197 56.7418 54.113C56.8024 54.0894 56.8562 54.0659 56.9034 54.0389C56.9842 53.9952 57.0684 53.9346 57.1323 53.847C57.2165 53.7292 57.2603 53.5676 57.1795 53.3454C57.0583 53.0121 56.9 52.736 56.7788 52.5542Z" fill="#FBB900"/>
<path fill-rule="evenodd" clip-rule="evenodd" d="M49.2911 53.3439C49.281 53.3271 49.2676 53.3136 49.2575 53.2968C49.2507 53.2867 49.244 53.2799 49.2373 53.2732C49.2171 53.2496 49.1969 53.2261 49.1767 53.2059C49.1733 53.2025 49.1733 53.2025 49.1699 53.1991C49.1497 53.1823 49.1295 53.1621 49.106 53.1453C49.0959 53.1385 49.0858 53.1352 49.0757 53.1284C49.0588 53.1183 49.0386 53.1049 49.0184 53.0948C48.9881 53.0813 48.9545 53.0645 48.9174 53.0544C48.9141 53.0544 48.9107 53.051 48.9073 53.051C48.904 53.051 48.9006 53.0476 48.8972 53.0476C48.8871 53.0443 48.8737 53.0409 48.8636 53.0375C48.8534 53.0342 48.8434 53.0308 48.8333 53.0274C48.7962 53.0173 48.7592 53.0106 48.7221 53.0005C48.6817 52.9904 48.6413 52.9837 48.6043 52.9769C48.5976 52.9769 48.5908 52.9769 48.5841 52.9769C48.5403 52.9702 48.4999 52.9668 48.4696 52.9702C48.4663 52.9702 48.4629 52.9702 48.4595 52.9702C48.4427 52.9736 48.4259 52.9769 48.4158 52.9837C48.4057 52.987 48.3989 52.9904 48.3922 52.9971C48.3383 53.0375 48.335 53.115 48.3249 53.1453C48.3249 53.1486 48.3249 53.1554 48.3215 53.1587C48.3181 53.1655 48.3148 53.1688 48.3114 53.1722C48.308 53.1756 48.308 53.1756 48.3047 53.1756C48.3013 53.1756 48.2946 53.1722 48.2912 53.1655C48.2878 53.1587 48.2811 53.152 48.2777 53.1385C48.2744 53.1251 48.2676 53.1116 48.2575 53.0948C48.2542 53.0914 48.2542 53.088 48.2508 53.0847C48.2474 53.0813 48.2441 53.0746 48.2373 53.0678C48.2373 53.0678 48.234 53.0645 48.2306 53.0645C48.2306 53.0645 48.2306 53.0611 48.2272 53.0611C48.207 53.0409 48.1801 53.0241 48.1397 53.014C48.1397 53.014 48.1397 53.014 48.1363 53.014C48.1229 53.0106 48.106 53.0072 48.0892 53.0106C48.069 53.0106 48.0488 53.014 48.0286 53.0241C47.9747 53.0443 47.9343 53.0847 47.9074 53.1217C47.9006 53.1284 47.8939 53.1352 47.8905 53.1419V53.1453C47.8804 53.1587 47.8737 53.1722 47.8703 53.1857C47.8703 53.189 47.8703 53.1924 47.867 53.1958C47.8636 53.2227 47.8602 53.253 47.867 53.2968C47.8771 53.3675 47.9006 53.4382 47.9276 53.5257C47.9343 53.5493 47.9377 53.5695 47.9478 53.5931C47.9511 53.6166 47.9579 53.6402 47.9646 53.6638C47.9747 53.7042 47.9848 53.7446 47.9949 53.7917C47.9949 53.8018 47.9983 53.8153 47.9983 53.8254C48.0219 53.9735 48.0421 54.1149 48.0454 54.1991C48.0488 54.2226 48.0488 54.2462 48.0488 54.2597C48.0488 54.3068 48.0421 54.3405 48.0353 54.3708C48.0185 54.4348 47.9814 54.4718 47.9074 54.5492C47.8636 54.593 47.8299 54.6401 47.7996 54.6839C47.7862 54.7075 47.7761 54.731 47.766 54.7512C47.739 54.8085 47.7222 54.8556 47.7155 54.8792C47.7121 54.8926 47.7121 54.8994 47.7121 54.8994C47.7054 54.8893 47.702 54.8792 47.6986 54.8691C47.6178 54.7209 47.6212 54.5694 47.6481 54.4516C47.6683 54.3775 47.6953 54.3203 47.7188 54.2832C47.766 54.2159 47.7626 54.1082 47.7155 53.96C47.6986 53.9028 47.6751 53.8388 47.6448 53.7681C47.6279 53.7311 47.6145 53.6941 47.601 53.6537C47.5943 53.6368 47.5875 53.62 47.5842 53.5998C47.564 53.5459 47.5471 53.4921 47.537 53.4416C47.5269 53.3978 47.5202 53.354 47.5135 53.3136C47.4562 53.2665 47.399 53.2227 47.3485 53.1823C47.2879 53.1318 47.234 53.088 47.2004 53.0611C47.0387 52.9298 46.3418 52.5292 46.3418 52.5292C46.3418 52.5292 46.2004 52.381 46.0657 52.2531C45.9782 52.1689 45.8907 52.0948 45.8469 52.0746C45.8334 52.0612 45.7695 52.0241 45.6752 51.977C45.5809 51.9299 45.4597 51.876 45.3183 51.8188C45.0725 51.7211 44.7796 51.6235 44.5204 51.5763C44.5103 51.5763 44.4968 51.573 44.4867 51.573C44.4699 51.5696 44.4564 51.5662 44.4429 51.5629C44.4227 51.5595 44.3992 51.5561 44.3756 51.5528C44.3285 51.5427 44.2813 51.5393 44.2376 51.5326C44.1635 51.5225 44.0928 51.5191 44.0356 51.5191C43.9278 51.5191 43.8302 51.5191 43.7494 51.5157C43.608 51.5056 43.5137 51.4821 43.5137 51.4013C43.5137 51.2834 43.4699 51.0747 43.4363 50.9232C43.4329 50.8963 43.4295 50.866 43.4228 50.8357C43.2747 50.0411 43.5575 49.8391 43.6248 49.3374C43.6921 48.8391 43.4026 47.9368 43.14 47.6911C42.8808 47.4453 42.7461 47.2433 42.7461 47.2433L42.7999 47.2635C42.8269 47.2736 43.4969 47.5126 43.8033 47.4251C43.874 47.4015 43.9278 47.3678 43.9682 47.3274C44.0221 47.2567 44.0423 47.1625 44.0524 47.0446C44.0659 46.8797 44.0894 46.6541 44.1231 46.5363C44.1332 46.4959 44.1467 46.4689 44.1601 46.4622C44.177 46.4588 44.2005 46.4857 44.2275 46.5329C44.2275 46.5363 44.2308 46.5396 44.2308 46.543C44.2611 46.5969 44.2914 46.6743 44.3217 46.7585C44.4059 47.0615 44.48 47.4453 44.5137 47.6675C44.8099 47.718 45.4092 47.8325 45.7526 47.8055H45.7829C46.0691 47.7988 46.4933 47.5766 46.5775 47.5194C46.6617 47.4621 46.6751 47.4285 46.6852 47.3982C46.6886 47.3914 46.6886 47.378 46.692 47.3577C46.6953 47.3005 46.6987 47.1793 46.6852 47.0413C46.6819 46.9773 46.6718 46.91 46.6549 46.8359C46.6415 46.7652 46.6213 46.6945 46.5943 46.6339C46.5674 46.5699 46.5371 46.506 46.4967 46.4453C46.4698 46.4016 46.4327 46.3511 46.3923 46.2972C46.0725 45.8696 45.2947 45.1121 45.0187 44.8495H45.0153C44.9513 44.9168 44.8402 44.9875 44.8402 44.9875C44.8402 44.9875 44.8705 44.8495 44.8975 44.7384C44.9177 44.6677 44.948 44.4354 44.9682 44.267V44.2637C44.9749 44.1862 44.9783 44.1189 44.9816 44.0718C44.9816 44.028 44.985 44.0044 44.985 44.0044V44.0011C44.985 44.0011 44.985 43.9001 44.9143 43.8327C44.847 43.762 44.4429 43.3008 44.3386 43.193C44.3285 43.1829 44.3251 43.1762 44.3184 43.1728C44.2645 43.1291 44.0558 43.055 43.9682 43.0819C43.9581 43.0853 43.948 43.092 43.9413 43.0988C43.9379 43.1021 43.9379 43.1055 43.9379 43.1055C43.9278 43.119 43.9245 43.1324 43.9211 43.1493C43.9177 43.1526 43.9177 43.156 43.9177 43.156C43.9076 43.2233 43.9278 43.3109 43.9615 43.3445C44.0154 43.3984 44.15 43.5129 44.15 43.5129L44.2241 43.7149C44.2241 43.7149 44.214 43.7182 44.2039 43.725C44.177 43.7418 44.1265 43.7755 44.113 43.8091C44.1096 43.8192 44.1063 43.8428 44.1029 43.8731C44.0962 43.9573 44.1029 44.1021 44.1298 44.1425C44.1635 44.1896 44.2712 44.2132 44.278 44.2165C44.278 44.2165 44.278 44.2199 44.2746 44.2233C44.2544 44.2637 44.1669 44.4253 44.0793 44.4455C44.076 44.4455 44.0726 44.4488 44.0692 44.4488C44.012 44.3647 43.9312 44.1761 43.847 44.0886C43.7999 44.0448 43.7561 44.028 43.7123 44.0684C43.709 44.0718 43.709 44.0751 43.7056 44.0785C43.6989 44.0852 43.6854 44.0987 43.6753 44.1189V44.1223C43.6652 44.1357 43.6585 44.1526 43.6517 44.1694C43.645 44.1963 43.6383 44.2233 43.6416 44.2536V44.2569C43.6416 44.2603 43.6416 44.2637 43.645 44.267V44.2704C43.6484 44.3007 43.6652 44.3546 43.682 44.4152C43.6854 44.4219 43.6854 44.4253 43.6888 44.432C43.7359 44.5801 43.81 44.7653 43.8369 44.8394C43.8639 44.9101 43.9245 44.964 44.0053 45.0178C44.0457 45.0481 44.0928 45.0751 44.1433 45.1054C44.1803 45.1357 44.2174 45.1727 44.2578 45.2232C44.379 45.3781 44.7392 46.0481 45.0052 46.4655C45.0557 46.5464 45.1062 46.6204 45.1466 46.6777C45.4025 47.0211 45.9344 47.5564 45.9513 47.5732V47.5766C45.9513 47.5766 45.921 47.6002 45.8334 47.58C45.7324 47.5598 45.5641 47.4823 45.2779 47.2534C45.2005 47.1928 45.1264 47.1288 45.0624 47.0648C44.9076 46.9201 44.7796 46.7719 44.6753 46.6339C44.554 46.479 44.4631 46.3376 44.3958 46.2265C44.1063 46.1726 43.4093 46.0447 43.0962 46.038C43.0895 46.038 43.0794 46.038 43.0693 46.038C43.0289 46.038 42.9851 46.0413 42.9414 46.0447C42.8976 46.0514 42.8505 46.0582 42.8033 46.0683C42.7966 46.0716 42.7898 46.0716 42.7797 46.075C42.7461 46.0817 42.7158 46.0885 42.6821 46.0986C42.6754 46.1019 42.672 46.1019 42.6653 46.1019C42.6316 46.112 42.5979 46.1221 42.5676 46.1322C42.5138 46.1491 42.4666 46.1625 42.4262 46.176C42.4128 46.1794 42.3959 46.1861 42.3825 46.1895C42.3387 46.1996 42.305 46.2029 42.2815 46.2029C42.2714 46.1996 42.2613 46.1962 42.2545 46.1895C42.2444 46.1827 42.2343 46.1726 42.2276 46.1625V46.1592C42.2242 46.1558 42.2242 46.1524 42.2209 46.1457V46.1423C42.2209 46.139 42.2209 46.139 42.2209 46.139C42.2175 46.1356 42.2175 46.1356 42.2175 46.1322C42.2074 46.0817 42.2276 46.0312 42.2276 45.9807C42.2276 45.9134 42.2242 45.8562 42.2074 45.7888C42.1737 45.6744 42.1401 45.5531 42.0828 45.4488C42.0761 45.4353 42.066 45.4185 42.0593 45.405C42.0256 45.3343 41.9919 45.2602 41.9482 45.1996C41.901 45.1323 41.8269 45.0582 41.8101 44.9741C41.8067 44.9471 41.8135 44.9236 41.8269 44.9034C41.864 44.8461 41.9549 44.8158 42.0088 44.8057C42.0256 44.8024 42.0458 44.799 42.0626 44.7956C42.1401 44.7889 42.2175 44.7923 42.2848 44.8293C42.3791 44.8731 42.47 44.9303 42.5575 44.9808C42.6754 45.0481 42.8707 45.1155 43.0121 45.0549C43.039 45.0448 43.0626 45.0313 43.0861 45.0077C43.0929 45.001 43.0962 44.9943 43.103 44.9875C43.1164 44.9741 43.1299 44.9572 43.1434 44.9404C43.1804 44.8933 43.2073 44.8461 43.2309 44.7956C43.2814 44.6609 43.3151 44.4993 43.2982 44.3074C43.2848 44.1492 43.2073 44.0112 43.1333 43.9102H43.1299C43.103 43.8731 43.0727 43.8428 43.039 43.8091C42.9919 43.7654 42.938 43.7216 42.8707 43.6778C42.81 43.6374 42.7494 43.6139 42.6888 43.5937C42.6821 43.5903 42.6754 43.5903 42.6686 43.5869C42.6585 43.5836 42.6484 43.5802 42.6417 43.5768C42.6282 43.5735 42.6181 43.5735 42.6047 43.5701C42.5912 43.5667 42.5744 43.5667 42.5609 43.5634C42.5441 43.56 42.5239 43.5566 42.507 43.5533C42.4902 43.5499 42.47 43.5465 42.4565 43.5432C42.3488 43.523 42.2848 43.5162 42.1771 43.3883C42.0525 43.2435 41.8741 43.3109 41.8101 43.3715C41.7495 43.4354 41.699 43.5061 41.5307 43.5364C41.4869 43.5432 41.4499 43.5566 41.4162 43.5701C41.3489 43.5903 41.2782 43.6206 41.2007 43.6711C41.1132 43.7283 41.0425 43.7889 40.9819 43.8529C40.928 43.9 40.8741 43.9539 40.8405 44.0112C40.7462 44.1593 40.7765 44.1795 40.6654 44.2401C40.5543 44.3007 40.423 44.368 40.3927 44.5532C40.3658 44.7417 40.4028 44.7889 40.3052 44.9202C40.2075 45.0515 40.1233 45.3074 40.1637 45.4959C40.2075 45.6811 40.3355 45.7653 40.3355 45.7653C40.4836 45.7585 40.891 45.7451 41.1334 45.7922C41.433 45.8528 41.6653 45.9908 41.8034 46.075C41.9044 46.139 41.9448 46.1827 41.9448 46.2097C41.9414 46.2164 41.938 46.2231 41.9279 46.2265C41.9077 46.2366 41.8505 46.2332 41.7697 46.213C41.7327 46.2063 41.6889 46.1962 41.6384 46.1794C41.4566 46.1289 41.231 46.0683 41.0997 46.0447C41.0862 46.0447 41.0762 46.0447 41.0661 46.0447C40.9145 46.0447 40.7327 46.0615 40.5678 46.0851C40.3186 46.1221 40.0459 46.1726 39.9146 46.2029C39.7059 46.2534 39.4433 46.3443 39.3153 46.6002C39.1705 46.883 39.0022 47.3578 38.9349 47.5564C38.9281 47.58 38.918 47.6002 38.9147 47.617C38.8776 47.5901 38.8305 47.5665 38.7834 47.5463C38.7834 47.5463 38.7834 47.5463 38.78 47.5429C38.7665 47.5396 38.7497 47.5295 38.7329 47.5227C38.6992 47.5126 38.6655 47.5025 38.6352 47.4992C38.5107 47.479 38.1571 47.5396 38.0427 47.5665C37.9282 47.5968 37.8676 47.6372 37.8373 47.6608C37.8104 47.681 37.7195 47.7113 37.6555 47.7281C37.642 47.7315 37.6252 47.7348 37.6151 47.7382C37.5881 47.7449 37.5511 47.782 37.5444 47.8291C37.541 47.8358 37.541 47.8426 37.541 47.8459C37.541 47.8493 37.541 47.8527 37.541 47.856C37.5444 47.8661 37.5477 47.8762 37.5511 47.8863C37.5511 47.8931 37.5578 47.8998 37.5612 47.9099L37.5646 47.9133C37.5848 47.9436 37.6184 47.9705 37.6791 47.9974C37.7666 48.0345 37.8575 48.0345 37.9383 48.021C37.9686 48.0176 37.9955 48.0109 38.0191 48.0042C38.0292 48.0008 38.0393 47.9974 38.0494 47.9941C38.1066 47.9806 38.1706 47.957 38.1874 47.9335H38.2043C38.3053 47.957 38.3962 47.9705 38.477 47.9739H38.4905C38.5107 47.9705 38.5241 47.9705 38.541 47.9671C38.6117 47.9537 38.6824 47.9234 38.7362 47.8897C38.8002 47.8459 38.8709 47.7954 38.8877 47.7719C38.9113 47.7416 38.945 47.7651 38.9416 47.8123C38.9416 47.8291 38.9382 47.8493 38.9281 47.8695C38.9281 47.8729 38.9281 47.8762 38.9248 47.8796C38.9046 47.9234 38.8608 48.0109 38.78 48.0883C38.679 48.186 38.514 48.2601 38.2548 48.1927C38.2043 48.2163 38.1437 48.2365 38.0831 48.2499C38.0528 48.2567 38.0225 48.26 37.9955 48.2668C37.9821 48.2668 37.9652 48.2702 37.9551 48.2702C37.9417 48.2735 37.9282 48.2735 37.9181 48.2735C37.9181 48.2735 37.9181 48.2769 37.9181 48.2803C37.9181 48.2803 37.9181 48.2803 37.9181 48.2836V48.287C37.9147 48.2971 37.9114 48.3207 37.908 48.3442C37.9013 48.3914 37.8912 48.4486 37.8777 48.4755C37.8575 48.5227 37.7801 48.6136 37.7161 48.6809C37.6993 48.6977 37.6925 48.7146 37.6892 48.7348C37.6757 48.7853 37.706 48.8391 37.7464 48.8795C37.8003 48.9368 37.8979 49.0209 38.0157 48.9199C38.0595 48.8829 38.0999 48.8223 38.1369 48.7617C38.1369 48.7617 38.1369 48.7617 38.1369 48.7583C38.1403 48.7583 38.1403 48.755 38.1437 48.7516C38.1706 48.7078 38.1942 48.6607 38.2211 48.6203C38.2413 48.5866 38.2615 48.5597 38.2817 48.553C38.3221 48.5429 38.3659 48.6472 38.3726 48.6775C38.3726 48.6843 38.3726 48.6876 38.3726 48.6944C38.3659 48.7112 38.349 48.7213 38.3255 48.7516C38.3187 48.7651 38.312 48.7752 38.3053 48.7886C38.3019 48.7886 38.3019 48.792 38.3019 48.792C38.2985 48.7987 38.2952 48.8055 38.2918 48.8156C38.2884 48.8223 38.2851 48.8324 38.2851 48.8425C38.2817 48.8661 38.2851 48.8896 38.3053 48.9166C38.3591 48.9839 38.3962 48.9974 38.4871 49.0984C38.5645 49.1859 38.6891 49.2398 38.7766 49.2331C38.8069 49.2297 38.8339 49.2196 38.8574 49.2095C38.8911 49.1927 38.9315 49.1657 38.9584 49.1388C39.0157 49.0816 39.0864 49.031 39.1436 49.0243C39.2008 49.0142 39.2513 49.0176 39.2682 48.9603C39.2783 48.9233 39.2884 48.8459 39.2917 48.7684C39.2917 48.7617 39.2951 48.755 39.2951 48.7449C39.2951 48.7314 39.2917 48.7213 39.2917 48.7112C39.2917 48.6977 39.2917 48.6843 39.2917 48.6708C39.2917 48.6674 39.2884 48.6674 39.2884 48.6641C39.2917 48.6641 39.3187 48.6775 39.3524 48.7011C39.4298 48.5732 39.4534 48.4553 39.4534 48.351C39.4534 48.3173 39.45 48.287 39.4433 48.2601C39.4399 48.2331 39.4332 48.2096 39.4231 48.186C39.4231 48.1826 39.4231 48.1792 39.4231 48.1759C39.3928 48.0917 39.3456 48.0176 39.2985 47.9638C39.2143 47.8796 39.1335 47.8224 39.12 47.8123C39.1167 47.8089 39.1133 47.8055 39.1099 47.8022C39.0796 47.7853 39.0628 47.7685 39.0594 47.7584C39.0628 47.7517 39.083 47.7449 39.1268 47.7449C39.1571 47.7483 39.1975 47.755 39.2446 47.7719C39.2614 47.7752 39.2783 47.7853 39.2985 47.7921C39.3018 47.7921 39.3052 47.7954 39.3086 47.7954C39.3827 47.8291 39.4702 47.8796 39.5443 47.9537L39.5476 47.9503C39.5678 47.9335 39.5914 47.9065 39.6049 47.8897C39.6318 47.8493 39.6554 47.8089 39.6688 47.7618C39.6823 47.7214 39.689 47.681 39.6991 47.6406V47.6372C39.7092 47.5934 39.716 47.5497 39.7193 47.5059C39.7294 47.4049 39.7665 47.3039 39.8069 47.2163V47.213C39.8136 47.1928 39.8203 47.1726 39.8304 47.1524C39.8405 47.1288 39.8506 47.1086 39.8641 47.085C39.8675 47.0783 39.8708 47.0682 39.8776 47.0615C39.8978 47.0278 39.918 46.9941 39.9449 46.9638C39.955 46.9504 39.9651 46.9369 39.9752 46.9234C39.9988 46.8965 40.0257 46.8696 40.056 46.846C40.0796 46.8325 40.093 46.8292 40.0998 46.8359C40.0998 46.8359 40.0998 46.8393 40.1031 46.8393C40.1099 46.846 40.1166 46.8628 40.1166 46.8864C40.1166 46.9032 40.12 46.9167 40.1233 46.9302C40.1233 46.9335 40.1233 46.9335 40.1233 46.9369C40.1233 46.9403 40.1233 46.9436 40.1233 46.947C40.1368 46.9975 40.1435 47.0446 40.1536 47.0817C40.157 47.085 40.157 47.0884 40.1604 47.0951C40.1671 47.1254 40.1772 47.1524 40.1907 47.1759C40.1974 47.1928 40.2075 47.2062 40.2176 47.2197C40.2277 47.2332 40.2378 47.2433 40.2479 47.2534C40.2547 47.2635 40.2648 47.2736 40.2749 47.2803C40.2883 47.2904 40.3018 47.2971 40.3153 47.3072C40.3287 47.314 40.3422 47.3241 40.359 47.3308C40.3691 47.3342 40.3792 47.3375 40.3893 47.3409C40.4129 47.3476 40.4365 47.3577 40.4634 47.3645C40.6115 47.3881 41.2613 47.2938 41.2815 47.2904C41.2714 47.3039 41.258 47.3173 41.2479 47.3308C41.2344 47.3477 41.2209 47.3645 41.2075 47.378C41.1873 47.4015 41.1671 47.4184 41.1469 47.4386C41.1401 47.4419 41.1368 47.4453 41.13 47.4487C41.0829 47.4891 41.0324 47.5227 40.9819 47.5497C40.9751 47.553 40.9718 47.5564 40.965 47.5598C40.9448 47.5699 40.9213 47.5833 40.9011 47.5934H40.8977C40.7226 47.6742 40.5577 47.7079 40.487 47.7315C40.3624 47.7786 40.2984 47.8224 40.2951 47.883V47.8863C40.2951 47.8964 40.2951 47.9099 40.2951 47.9301C40.2917 47.9368 40.2917 47.9436 40.2917 47.9537C40.2917 47.9772 40.2917 48.0075 40.2917 48.0479C40.2951 48.1658 40.3085 48.3543 40.3691 48.6573C40.3792 48.7112 40.386 48.7583 40.3961 48.8055C40.4095 48.8829 40.4196 48.957 40.4264 49.0209C40.4398 49.1186 40.4466 49.2162 40.4432 49.3139C40.4331 49.5091 40.386 49.7044 40.2816 49.93C40.2143 50.068 40.1604 50.1859 40.1132 50.2801C40.0122 50.4754 39.9213 50.6437 39.9213 50.6437L39.9887 50.6875C40.0089 50.7043 40.4432 51.0074 40.689 51.7615C40.689 51.7649 40.6923 51.7716 40.6957 51.7784C40.7226 51.8659 40.7597 51.9602 40.8034 52.0612C40.8708 52.1958 40.9347 52.317 40.965 52.3608C41.0155 52.4382 41.1671 52.7615 41.2815 52.9971C41.3489 53.1183 41.4835 53.2193 41.5071 53.2227C41.5206 53.2294 41.5307 53.2328 41.5408 53.2362C41.5711 53.2597 41.6014 53.2833 41.6317 53.3035C41.736 53.3742 41.8741 53.354 41.9785 53.29C42.0458 53.482 42.1098 53.6806 42.167 53.8961C42.167 53.8994 42.167 53.9028 42.167 53.9028C42.167 53.9062 42.167 53.9095 42.1704 53.9095C42.2343 53.9163 42.3084 53.9163 42.3892 53.9095C42.3993 53.9095 42.4094 53.9095 42.4195 53.9095C42.5104 53.9028 42.6013 53.886 42.6888 53.859C42.6989 53.7075 42.7427 53.3473 42.8808 52.9601C42.9245 52.8423 43.0491 52.5965 43.0525 52.5999C43.4228 52.1083 43.443 52.4955 43.3521 52.7143C43.2578 52.9736 43.177 53.3001 43.1838 53.6469C43.1838 53.6469 43.1871 53.7008 43.2309 53.758C43.2444 53.7715 43.2612 53.7883 43.2814 53.8018C43.2982 53.8119 43.3285 53.8254 43.3689 53.8422C43.5676 53.9163 44.0423 54.0307 44.5204 54.0072C44.6012 54.0038 44.6786 53.9937 44.7561 53.9836C44.7729 53.9802 44.7864 53.9769 44.8032 53.9735C44.921 53.9533 45.0355 53.9297 45.1331 53.9062C45.1432 53.9028 45.15 53.9028 45.1601 53.8994C45.251 53.8759 45.3284 53.8523 45.3823 53.8355C45.3856 53.8321 45.3924 53.8321 45.3991 53.8287V53.8321C45.3991 53.8355 45.4025 53.8422 45.4025 53.8489C45.4092 53.8658 45.4261 53.8961 45.4463 53.9398C45.4799 54.0072 45.5271 54.0981 45.5944 54.2024C45.719 54.4045 45.8974 54.6435 46.1196 54.7916C46.1398 54.8085 46.1634 54.8219 46.1836 54.8354C46.3317 54.9162 46.5539 55.0273 46.7896 55.1384C46.9546 55.2125 47.1162 55.2832 47.234 55.3337C47.5943 55.4919 47.8333 55.529 48.0555 55.7613C48.1262 55.8353 48.2104 55.9094 48.2946 55.9734C48.4057 56.0508 48.5269 56.1215 48.638 56.1586C48.6851 56.172 48.7289 56.1821 48.7693 56.1821C48.7726 56.1821 48.776 56.1821 48.7794 56.1821C48.9208 56.1788 49.0184 56.1249 49.079 56.0609C49.0992 56.0407 49.1161 56.0138 49.1329 55.9835C49.1363 55.9801 49.1363 55.9767 49.1363 55.9767C49.1464 55.9599 49.1565 55.9397 49.1632 55.9229C49.1632 55.9161 49.1632 55.9128 49.1666 55.9094C49.1699 55.8892 49.1767 55.869 49.1767 55.8488C49.18 55.8454 49.1767 55.8421 49.18 55.8387C49.18 55.8185 49.18 55.7949 49.1767 55.7714C49.1363 55.5492 49.2002 55.2563 49.2575 55.0441C49.281 54.9633 49.308 54.8489 49.3315 54.7277C49.3349 54.7243 49.3349 54.7209 49.3349 54.7176C49.3383 54.7041 49.3416 54.6906 49.3416 54.6738C49.345 54.6637 49.3484 54.6502 49.3517 54.6401C49.3517 54.63 49.3551 54.6166 49.3551 54.6065C49.3753 54.4954 49.3921 54.3573 49.4056 54.2159C49.409 54.1486 49.4123 54.0846 49.4157 54.0206C49.4157 53.9802 49.4157 53.9432 49.4157 53.9062C49.4123 53.8691 49.4123 53.8388 49.409 53.8052C49.3989 53.6267 49.3652 53.4685 49.2911 53.3439ZM42.3656 43.8798C42.369 43.8765 42.369 43.8731 42.369 43.8697C42.3757 43.8563 42.3825 43.8428 42.3892 43.8293C42.3959 43.8192 42.3993 43.8125 42.406 43.8024C42.4363 43.762 42.5373 43.6475 42.7259 43.7485C42.7427 43.7553 42.7562 43.7654 42.773 43.7755C42.7797 43.7822 42.7898 43.7889 42.7999 43.7957C42.8168 43.8125 42.8303 43.826 42.8437 43.8394C42.8505 43.8495 42.8572 43.8563 42.8639 43.8664C42.9616 43.9809 43.0053 44.1189 43.0053 44.1189C43.0087 44.1256 43.0087 44.1324 43.0087 44.1391C43.0087 44.1829 42.9582 44.1357 42.9582 44.1357C42.7292 43.8428 42.4767 43.9034 42.4363 43.9203C42.3825 43.9371 42.3623 43.9169 42.3623 43.9169C42.3589 43.9101 42.3623 43.8933 42.3656 43.8798ZM41.1233 44.1256C41.1233 44.1256 41.0728 44.1728 41.0728 44.129C41.0728 44.1223 41.0728 44.1155 41.0761 44.1054C41.0761 44.1054 41.1637 43.8361 41.3556 43.7351C41.5441 43.6374 41.6485 43.7485 41.6754 43.7923C41.7057 43.8327 41.7259 43.8832 41.7192 43.9034C41.7192 43.9034 41.7192 43.9034 41.7192 43.9068C41.7192 43.9068 41.7024 43.927 41.6485 43.9068C41.6047 43.8933 41.3522 43.8327 41.1233 44.1256ZM41.7663 44.2367C41.7562 44.2435 41.7428 44.2536 41.7327 44.2603C41.7293 44.2637 41.7293 44.2637 41.7259 44.267C41.7024 44.2872 41.6822 44.3074 41.6653 44.3209C41.6653 44.3209 41.6653 44.3209 41.662 44.3243L41.6586 44.3276C41.6519 44.3344 41.6485 44.3377 41.6451 44.3411C41.6317 44.3478 41.5913 44.3647 41.5946 44.3142C41.598 44.2771 41.6081 44.2266 41.6451 44.1694C41.6519 44.1627 41.6552 44.1559 41.662 44.1458C41.662 44.1458 41.6653 44.1425 41.6653 44.1391C41.6754 44.1256 41.6855 44.1122 41.699 44.0987C41.7057 44.092 41.7125 44.0852 41.7226 44.0785C41.7293 44.0684 41.7394 44.0617 41.7495 44.0549C41.763 44.0415 41.7832 44.0314 41.8034 44.0213C41.8135 44.0145 41.8236 44.0112 41.8337 44.0044C41.8572 43.9943 41.8842 43.9876 41.9111 43.9809C41.9313 43.9775 41.9549 43.9708 41.9785 43.9708C42.0054 43.9674 42.0323 43.9708 42.0593 43.9741C42.0795 43.9741 42.0997 43.9775 42.1199 43.9842C42.1333 43.9876 42.1468 43.9943 42.1603 43.9977C42.1737 44.0044 42.1906 44.0078 42.204 44.0145C42.2579 44.0448 42.3017 44.0852 42.3353 44.1256C42.3387 44.1324 42.3454 44.1391 42.3522 44.1425C42.406 44.2098 42.4161 44.2738 42.4195 44.3142C42.4229 44.3647 42.3825 44.3478 42.369 44.3411C42.369 44.3377 42.3623 44.3344 42.3589 44.3276C42.3555 44.3276 42.3555 44.3243 42.3522 44.3243C42.3522 44.3209 42.3522 44.3209 42.3488 44.3209C42.3353 44.3074 42.3185 44.2906 42.2983 44.2704C42.2512 44.2367 42.1906 44.2031 42.0997 44.1829C42.0795 44.1795 42.0559 44.1728 42.0323 44.1728C42.0121 44.1728 41.9919 44.1728 41.9751 44.1728C41.8842 44.1829 41.8067 44.2165 41.7663 44.2367Z" fill="#FBB900"/>
<path fill-rule="evenodd" clip-rule="evenodd" d="M41.383 54.1415C41.3156 54.0842 41.2382 53.9967 41.1608 53.899L41.1574 53.8957C40.9992 53.7206 40.8275 53.4984 40.7197 53.2897C40.5682 53.0035 40.3729 52.6702 40.043 52.2527C40.0295 52.2358 40.0194 52.2224 40.006 52.2089C39.8982 52.0709 39.7737 51.9295 39.6322 51.7746C39.5952 51.7443 39.5548 51.7073 39.5144 51.6702C39.4875 51.6467 39.4605 51.6231 39.437 51.5962C39.4067 51.5692 39.3764 51.5423 39.3461 51.512C39.2148 51.411 39.0902 51.3436 38.9791 51.2999C38.9791 51.2965 38.9757 51.2965 38.9757 51.2965C38.9623 51.2898 38.9488 51.283 38.9353 51.2797C38.9387 51.2797 38.9387 51.283 38.9387 51.283C38.8444 51.246 38.7602 51.2224 38.6929 51.2123L38.6963 51.209C38.7097 51.1921 38.7232 51.1753 38.7367 51.1618C38.767 51.1315 38.8006 51.1046 38.8309 51.0777C38.8309 51.0777 38.8343 51.0777 38.8377 51.0743C39.0801 50.8891 39.41 50.7915 39.5548 50.7578H39.5582C39.6019 50.7444 39.6289 50.741 39.6289 50.741C39.6289 50.741 39.575 50.7275 39.4774 50.7208C39.4605 50.7208 39.4471 50.7174 39.4269 50.7174C39.3999 50.7174 39.373 50.7174 39.3427 50.7174L39.3461 50.7141C39.3528 50.7141 39.3562 50.7141 39.3629 50.7107C39.272 50.7107 39.1609 50.7208 39.0431 50.7343C38.6963 50.7814 38.2788 50.8959 37.8916 51.1753C37.6627 51.3335 37.5482 51.4851 37.4977 51.6265C37.4977 51.6298 37.4977 51.6298 37.4977 51.6332C37.4876 51.6568 37.4842 51.677 37.4775 51.7005C37.4775 51.7039 37.4775 51.7106 37.4741 51.7174C37.4741 51.7308 37.4708 51.7443 37.4708 51.7578C37.4708 51.7712 37.4708 51.7813 37.4708 51.7948V51.8083C37.4708 51.9699 37.5482 52.1045 37.6122 52.1988C37.6155 52.2055 37.6189 52.2123 37.6223 52.2156C37.629 52.2224 37.6357 52.2325 37.6458 52.246C37.6458 52.246 37.6492 52.2493 37.6526 52.2527C37.6526 52.2527 38.0297 52.6432 38.2014 52.7846C38.2721 52.8419 38.8815 53.4546 38.9522 53.5287C39.1676 53.7509 39.2956 53.8856 39.373 53.9698C39.4067 54.0102 39.4269 54.0337 39.4437 54.0539C39.4471 54.0573 39.4538 54.064 39.4572 54.0674C39.4605 54.0674 39.4605 54.064 39.4639 54.0607C39.5885 53.9462 39.713 53.8687 39.8376 53.825C39.8949 53.8014 39.9521 53.7879 40.006 53.7778C40.0464 53.7711 40.0868 53.7644 40.1272 53.761C40.1608 53.761 40.1945 53.7576 40.2248 53.761C40.3191 53.7644 40.4032 53.7778 40.4706 53.7947C40.4773 53.798 40.484 53.798 40.4874 53.8014C40.4941 53.8014 40.4975 53.8048 40.5009 53.8048C40.5177 53.8081 40.5312 53.8149 40.5446 53.8182C40.5682 53.8283 40.5884 53.8351 40.6053 53.8452C40.6524 53.8654 40.6827 53.8856 40.676 53.8923C40.6659 53.9024 40.649 53.9058 40.6322 53.9058C40.612 53.9091 40.5918 53.9058 40.5918 53.9058C40.575 53.9058 40.5615 53.9058 40.5446 53.9024C40.5345 53.9024 40.5244 53.9024 40.5143 53.9024C40.5042 53.9024 40.4975 53.9024 40.4874 53.9024C40.4638 53.9024 40.4436 53.9024 40.4234 53.9058C40.3931 53.9058 40.3628 53.9125 40.3325 53.9159C40.2113 53.9394 40.107 53.9866 40.0228 54.0438C39.9016 54.1213 39.8174 54.2155 39.7602 54.2896C39.7433 54.3132 39.7299 54.3367 39.7164 54.3603C39.7097 54.3771 39.6996 54.394 39.6928 54.4074C39.6861 54.4074 39.676 54.4074 39.6659 54.4108C39.5851 54.4142 39.4538 54.4209 39.4269 54.4108C39.4235 54.4074 39.4168 54.4041 39.41 54.4041C39.4033 54.4007 39.3932 54.3973 39.3831 54.394C39.3461 54.3805 39.2956 54.3637 39.2451 54.3603C39.2316 54.3603 39.2148 54.3569 39.2013 54.3603C39.1676 54.3603 39.134 54.3704 39.1138 54.3906C39.07 54.4276 39.0565 54.4849 39.0532 54.5286C39.0498 54.5421 39.0464 54.5522 39.0431 54.569C39.0397 54.6364 39.0902 54.6801 39.1474 54.7071C39.1609 54.7138 39.1744 54.7172 39.1845 54.7239C39.2047 54.7306 39.2215 54.7374 39.2316 54.7374C39.2383 54.7407 39.2451 54.7407 39.2518 54.7441C39.2821 54.7542 39.3057 54.7643 39.3023 54.7811H39.2989C39.2989 54.7912 39.2888 54.798 39.2686 54.8013C39.2484 54.8047 39.2215 54.8047 39.1912 54.8047C39.1811 54.8047 39.1643 54.8047 39.1508 54.8047C39.0969 54.8115 39.0229 54.8283 38.9959 54.9091C38.9959 54.9192 38.9926 54.9293 38.9892 54.9428C38.9892 54.9461 38.9892 54.9461 38.9892 54.9495C38.9892 54.9596 38.9892 54.9697 38.9858 54.9798C38.9858 55.0471 38.9926 55.101 39.006 55.1549C39.0296 55.2323 39.0734 55.3097 39.1272 55.3771C39.1407 55.3939 39.1542 55.404 39.171 55.4107C39.171 55.4141 39.171 55.4141 39.171 55.4141C39.2619 55.4646 39.3999 55.4377 39.4538 55.4511C39.4572 55.4511 39.4605 55.4511 39.4639 55.4511C39.4807 55.4579 39.4942 55.4713 39.511 55.4882C39.5211 55.4983 39.5312 55.5117 39.5447 55.5252C39.5582 55.5387 39.5784 55.5555 39.6019 55.5723C39.6221 55.5858 39.6491 55.5993 39.6794 55.6127C39.6861 55.6127 39.6895 55.6161 39.6962 55.6161C39.7299 55.6296 39.7703 55.6329 39.8208 55.6296C39.9521 55.6195 40.1204 55.5555 40.2787 55.468C40.548 55.3266 40.8039 55.1414 40.8645 55.1414C40.8679 55.1414 40.8679 55.1414 40.8712 55.1414C40.8982 55.1549 40.9251 55.165 40.9554 55.1751C40.9958 55.1885 41.0362 55.1953 41.08 55.1986C41.1237 55.202 41.1709 55.1986 41.2146 55.1919C41.2921 55.1751 41.3762 55.1481 41.4604 55.0976C41.5581 55.037 41.622 54.9663 41.6557 54.8923C41.6591 54.8822 41.6658 54.8687 41.6692 54.8586L41.6759 54.8418C41.6995 54.7576 41.6927 54.6734 41.6725 54.596C41.622 54.394 41.4705 54.2189 41.383 54.1415Z" fill="#FBB900"/>
<path fill-rule="evenodd" clip-rule="evenodd" d="M54.1953 43.4767C54.1953 43.4767 54.1953 43.4746 54.1974 43.4746L54.1953 43.4767Z" fill="#FBB900"/>
<path fill-rule="evenodd" clip-rule="evenodd" d="M54.2646 43.3027L54.2578 43.3198C54.2612 43.3164 54.2646 43.313 54.268 43.3096L54.2646 43.3027Z" fill="#FBB900"/>
<path fill-rule="evenodd" clip-rule="evenodd" d="M57.1304 53.847C57.0664 53.9345 56.9822 53.9985 56.9014 54.0389C56.8543 54.0659 56.8004 54.0894 56.7398 54.113C56.723 54.1197 56.7062 54.1231 56.6893 54.1265C56.686 54.1265 56.6826 54.1265 56.6826 54.1265C56.6725 54.1298 56.6658 54.1298 56.6557 54.1298C56.5917 54.1366 56.5311 54.1265 56.4806 54.1063C56.4671 54.1029 56.457 54.0962 56.4435 54.0928C56.4267 54.0827 56.4099 54.0726 56.393 54.0625C56.3829 54.0558 56.3728 54.049 56.3594 54.0423C56.3829 53.9581 56.4065 53.8571 56.4267 53.7494C56.4536 53.6282 56.4772 53.4969 56.5041 53.3487C56.5749 52.9279 56.5883 52.5138 56.5917 52.2949C56.5951 52.2983 56.5984 52.305 56.6018 52.3118C56.622 52.3353 56.6422 52.3623 56.6624 52.3926C56.6927 52.433 56.7331 52.4868 56.7769 52.5542C56.8981 52.736 57.0597 53.012 57.1775 53.3454C57.2583 53.5676 57.2179 53.7292 57.1304 53.847Z" fill="#FBB900"/>
<path fill-rule="evenodd" clip-rule="evenodd" d="M31.9789 83.9899V82.8418C31.9789 82.6331 31.9789 82.5253 31.8476 82.5253C31.6826 82.5253 31.0328 82.8687 30.8443 82.9462C30.8005 82.9664 30.7567 82.9832 30.723 82.9832C30.6961 82.9832 30.6523 82.9394 30.6523 82.8856C30.6523 82.8317 30.6961 82.7879 30.7399 82.7644C30.7735 82.7442 32.4401 81.6432 32.7431 81.4143C32.8206 81.3604 32.898 81.2998 32.9687 81.2998C33.0461 81.2998 33.0731 81.3974 33.0731 81.485C33.0731 81.5523 33.0192 82.4209 33.0192 83.7609V85.3837C33.0192 86.2221 33.0192 86.9695 33.0562 87.3533C33.0798 87.6327 33.1236 87.7641 33.3996 87.828C33.531 87.8516 33.9047 87.8785 33.972 87.8785C34.009 87.8785 34.0494 87.9055 34.0494 87.9661C34.0494 88.03 34.009 88.0469 33.9114 88.0469C33.2549 88.0469 32.6994 88.0199 32.4637 88.0199C32.265 88.0199 31.5378 88.0469 30.9823 88.0469C30.8847 88.0469 30.8342 88.03 30.8342 87.9661C30.8342 87.9055 30.8678 87.8785 30.9049 87.8785C30.9991 87.8785 31.4402 87.8516 31.5984 87.8179C31.8745 87.7573 31.9183 87.6327 31.9452 87.3533C31.9789 86.9695 31.9957 86.2221 31.989 85.3837L31.9789 83.9899Z" fill="#FBB900"/>
<path fill-rule="evenodd" clip-rule="evenodd" d="M39.7221 83.6835C39.7221 86.1345 37.5977 87.6765 36.5203 88.1849C36.4765 88.2118 36.4361 88.2219 36.3654 88.2219C36.3318 88.2219 36.288 88.1782 36.288 88.1344C36.288 88.0704 36.3486 88.0199 36.3924 87.9863C37.2947 87.4307 38.6481 85.9965 38.6481 83.9293C38.6481 82.3772 37.995 81.6937 37.3283 81.6937C36.7055 81.6937 36.288 82.256 36.288 83C36.288 84.34 37.1465 84.6565 37.4394 84.6565C37.7458 84.6565 37.9175 84.6026 38.032 84.5488C38.1263 84.4983 38.17 84.4545 38.2037 84.4545C38.2374 84.4545 38.2744 84.4882 38.2744 84.5319C38.2744 84.5589 38.2475 84.6127 38.2306 84.6296C37.9781 84.8989 37.527 85.0336 37.0859 85.0336C35.8368 85.0336 35.3184 84.0774 35.3184 83.3401C35.3184 82.1583 36.2005 81.2998 37.5371 81.2998C38.9511 81.2998 39.7221 82.3502 39.7221 83.6835Z" fill="#FBB900"/>
<path fill-rule="evenodd" clip-rule="evenodd" d="M40.6134 88.0199C40.5528 88.0199 40.4922 87.9694 40.4922 87.8987C40.4922 87.828 40.5797 87.7506 40.6639 87.6698C41.8793 86.5924 43.6031 85.2255 43.6031 83.3771C43.6031 81.9934 42.8523 81.7139 42.418 81.7139C42.0443 81.7139 41.7581 81.7813 41.4989 82.027C41.2901 82.229 41.1319 82.6432 41.1319 82.8687C41.1319 82.9563 41.1083 83.0371 41.0208 83.0371C40.977 83.0371 40.9501 82.9731 40.9433 82.8687C40.9332 82.7913 40.8895 82.0641 40.8895 81.8082C40.8895 81.7308 40.8996 81.6971 40.9938 81.6331C41.3339 81.458 41.8019 81.2998 42.5628 81.2998C44.0913 81.2998 44.7411 82.1415 44.7411 83.1684C44.7411 84.8652 42.8759 86.3466 41.7581 87.2489C41.7143 87.286 41.7312 87.3129 41.7749 87.3129H42.3641C42.5123 87.3129 43.5358 87.3028 43.8556 87.259C44.4549 87.1883 44.7411 86.8887 44.8455 86.4779C44.8724 86.3736 44.896 86.3365 44.9498 86.3365C45.0104 86.3365 45.0172 86.4173 45.0172 86.5049C45.0172 86.6463 44.8522 87.461 44.768 87.7573C44.6973 87.993 44.5593 88.0199 44.0105 88.0199H40.6134Z" fill="#FBB900"/>
<path fill-rule="evenodd" clip-rule="evenodd" d="M50.1262 81.4508C50.2912 81.4508 50.3349 81.4778 50.3349 81.5215C50.3349 81.572 50.3013 81.6427 50.2743 81.6764C49.5538 82.71 48.2004 86.1913 48.0725 87.3124C48.0523 87.4605 48.0725 87.5212 48.0725 87.6356C48.0725 87.8107 47.3688 88.1709 46.9782 88.1709C46.884 88.1709 46.857 88.144 46.857 88.0632C46.857 87.9757 46.8739 87.8444 46.9176 87.703C47.1601 86.8646 48.2711 84.2789 49.4663 82.2555H47.2207C46.9782 82.2555 46.6146 82.2723 46.4059 82.4137C46.251 82.5181 46.1365 82.8009 46.1197 82.9389C46.1096 83.0096 46.086 83.0534 46.0322 83.0534C45.9716 83.0534 45.9648 83.0096 45.9648 82.9221C45.9648 82.5989 46.0928 81.572 46.0928 81.4845C46.0928 81.3969 46.1298 81.3633 46.1803 81.3633C46.2342 81.3633 46.4328 81.4508 47.352 81.4508H50.1262Z" fill="#FBB900"/>
<path fill-rule="evenodd" clip-rule="evenodd" d="M14.7621 65.9771C14.7621 63.5025 14.7621 63.048 14.7285 62.5261C14.6948 61.974 14.5669 61.7147 14.0282 61.6002C13.9002 61.5666 13.6208 61.5497 13.3952 61.5497C13.2168 61.5497 13.1191 61.5194 13.1191 61.405C13.1191 61.2905 13.2302 61.2568 13.476 61.2568C14.3379 61.2568 15.3648 61.3073 15.7048 61.3073C16.257 61.3073 17.496 61.2568 18.001 61.2568C19.0245 61.2568 20.1153 61.3578 20.9941 61.9571C21.4486 62.2669 22.1018 63.0951 22.1018 64.1859C22.1018 65.3913 21.5967 66.4989 19.9537 67.8322C21.4015 69.6536 22.5226 71.1013 23.4821 72.1114C24.3945 73.0541 25.0612 73.1686 25.3069 73.2191C25.4854 73.2494 25.6302 73.2662 25.7615 73.2662C25.8928 73.2662 25.9567 73.3133 25.9567 73.3975C25.9567 73.5288 25.8423 73.5591 25.647 73.5591H24.1016C23.1892 73.5591 22.7852 73.4783 22.361 73.2494C21.6607 72.8757 21.0412 72.1114 20.1322 70.8589C19.479 69.9634 18.7316 68.8557 18.5195 68.6133C18.4387 68.5157 18.341 68.4988 18.2266 68.4988L16.8125 68.4651C16.7317 68.4651 16.6812 68.4988 16.6812 68.5965V68.8254C16.6812 70.3371 16.6812 71.6232 16.762 72.3067C16.8125 72.778 16.9102 73.1349 17.3983 73.2022C17.6407 73.2359 18.001 73.2662 18.1929 73.2662C18.3242 73.2662 18.3915 73.3133 18.3915 73.3975C18.3915 73.512 18.2771 73.5591 18.065 73.5591C17.1223 73.5591 15.9169 73.512 15.6745 73.512C15.3648 73.512 14.3379 73.5591 13.6881 73.5591C13.476 73.5591 13.3616 73.512 13.3616 73.3975C13.3616 73.3133 13.4255 73.2662 13.6208 73.2662C13.8666 73.2662 14.0618 73.2359 14.21 73.2022C14.5332 73.1349 14.614 72.778 14.6813 72.3067C14.7621 71.6232 14.7621 70.3371 14.7621 68.8389V65.9771ZM16.6812 67.2632C16.6812 67.4416 16.7149 67.5056 16.8293 67.5561C17.1694 67.6706 17.6576 67.7177 18.065 67.7177C18.7148 67.7177 18.9269 67.6537 19.2198 67.4416C19.708 67.0848 20.1793 66.334 20.1793 65.0007C20.1793 62.6911 18.6508 62.0245 17.6912 62.0245C17.2839 62.0245 16.991 62.0379 16.8293 62.0884C16.7149 62.1221 16.6812 62.1861 16.6812 62.3174V67.2632Z" fill="#FBB900"/>
<path fill-rule="evenodd" clip-rule="evenodd" d="M25.2754 67.4084C25.2754 64.6274 27.1137 61.0283 31.9955 61.0283C36.0491 61.0283 38.5675 63.3884 38.5675 67.1155C38.5675 70.8425 35.965 73.7885 31.8339 73.7885C27.1642 73.7885 25.2754 70.287 25.2754 67.4084ZM36.2915 67.7181C36.2915 64.0719 34.194 61.8128 31.5242 61.8128C29.6522 61.8128 27.521 62.8531 27.521 66.9034C27.521 70.287 29.393 72.9737 32.5174 72.9737C33.6553 72.9737 36.2915 72.4216 36.2915 67.7181Z" fill="#FBB900"/>
<path fill-rule="evenodd" clip-rule="evenodd" d="M41.1107 61.4525C41.1579 61.1765 41.2555 61.0283 41.3868 61.0283C41.5181 61.0283 41.6124 61.1125 41.8245 61.5333L46.2687 70.5833L50.6926 61.4189C50.8239 61.1596 50.9047 61.0283 51.0529 61.0283C51.1977 61.0283 51.2987 61.1933 51.3458 61.5333L52.8238 71.4923C52.972 72.5158 53.1369 72.9906 53.6217 73.1353C54.0965 73.2835 54.4197 73.2969 54.6318 73.2969C54.7799 73.2969 54.891 73.3138 54.891 73.4114C54.891 73.5427 54.6958 73.5898 54.4702 73.5898C54.0628 73.5898 51.8171 73.5595 51.1674 73.509C50.7903 73.4787 50.6926 73.4282 50.6926 73.3306C50.6926 73.2498 50.76 73.2027 50.8711 73.1522C50.9721 73.1185 51.0192 72.9064 50.9552 72.4519L49.9789 65.3749H49.9149L46.3663 72.6303C45.9926 73.3979 45.9118 73.5427 45.7636 73.5427C45.6189 73.5427 45.4539 73.2161 45.1947 72.7279C44.8041 71.9805 43.518 69.4924 43.3227 69.0346C43.1779 68.6945 42.2016 66.7721 41.6292 65.5533H41.5653L40.7202 71.8997C40.6865 72.1926 40.6697 72.4047 40.6697 72.664C40.6697 72.9737 40.8818 73.1185 41.1579 73.1858C41.4508 73.2498 41.6797 73.2666 41.8413 73.2666C41.9726 73.2666 42.0871 73.2969 42.0871 73.3811C42.0871 73.5259 41.939 73.5595 41.6966 73.5595C41.0131 73.5595 40.2791 73.509 39.9862 73.509C39.6765 73.509 38.8987 73.5595 38.3769 73.5595C38.2153 73.5595 38.084 73.5259 38.084 73.3811C38.084 73.2969 38.1816 73.2666 38.3432 73.2666C38.4745 73.2666 38.589 73.2666 38.8314 73.2161C39.2893 73.1185 39.4172 72.4855 39.498 71.93L41.1107 61.4525Z" fill="#FBB900"/>
<path fill-rule="evenodd" clip-rule="evenodd" d="M58.9478 69.4102C58.867 69.4102 58.8333 69.4439 58.7996 69.5415L57.9209 71.7704C57.7593 72.1777 57.6785 72.5649 57.6785 72.7636C57.6785 73.0531 57.8266 73.2652 58.3283 73.2652H58.5741C58.7693 73.2652 58.8165 73.2989 58.8165 73.3965C58.8165 73.5278 58.7188 73.5581 58.5404 73.5581C58.0219 73.5581 57.3216 73.511 56.8166 73.511C56.6381 73.511 55.7426 73.5581 54.8975 73.5581C54.6854 73.5581 54.5878 73.5278 54.5878 73.3965C54.5878 73.2989 54.6517 73.2652 54.783 73.2652C54.9278 73.2652 55.1568 73.2517 55.2881 73.2349C56.0355 73.1373 56.3452 72.5817 56.6684 71.7704L60.7557 61.6801C60.9476 61.2087 61.0487 61.0303 61.2103 61.0303C61.355 61.0303 61.4527 61.1784 61.6143 61.5521C62.0082 62.4477 64.6107 68.9557 65.6511 71.4269C66.2706 72.8915 66.7419 73.1204 67.0819 73.2012C67.3277 73.2517 67.5701 73.2652 67.7654 73.2652C67.8967 73.2652 67.9775 73.282 67.9775 73.3965C67.9775 73.5278 67.8327 73.5581 67.2301 73.5581C66.6443 73.5581 65.4558 73.5581 64.1528 73.5278C63.8633 73.511 63.668 73.511 63.668 73.3965C63.668 73.2989 63.732 73.2652 63.8936 73.2517C64.0081 73.2181 64.1225 73.0699 64.0417 72.878L62.7388 69.5247C62.7051 69.4439 62.658 69.4102 62.5772 69.4102H58.9478ZM62.2674 68.5955C62.3482 68.5955 62.3651 68.5483 62.3482 68.4978L60.8837 64.4981C60.8668 64.4307 60.85 64.3499 60.8029 64.3499C60.7557 64.3499 60.7221 64.4307 60.7052 64.4981L59.207 68.481C59.1902 68.5483 59.207 68.5955 59.2743 68.5955H62.2674Z" fill="#FBB900"/>
<path fill-rule="evenodd" clip-rule="evenodd" d="M49.2285 52.637C49.1544 52.4922 49.0265 52.27 48.8851 52.0107H46.4004C46.4408 52.0511 46.4745 52.0814 46.5216 52.1319C46.7472 52.2599 47.2185 52.5393 47.3801 52.6673C47.397 52.6807 47.4172 52.7009 47.4374 52.7178C47.7404 52.4249 48.4945 52.3744 49.077 52.7279C49.077 52.7279 49.1746 52.6673 49.2285 52.637Z" fill="#FBB900"/>
<path fill-rule="evenodd" clip-rule="evenodd" d="M37.0354 52.5054C36.9343 52.327 36.8872 52.162 36.8636 52.0105H32.4464C32.4565 52.4078 32.4565 52.7041 32.3993 52.7647C32.2444 52.9364 31.6687 52.6973 31.4902 52.8455C31.3791 52.9364 31.3522 53.0778 31.2815 53.5626H38.0185C37.2845 52.832 37.0993 52.6233 37.0354 52.5054Z" fill="#FBB900"/>
<path fill-rule="evenodd" clip-rule="evenodd" d="M70.3661 52.0098C70.228 52.4575 70.0126 53.1646 69.9082 53.5619H78.3488V52.0098H70.3661Z" fill="#FBB900"/>
<path fill-rule="evenodd" clip-rule="evenodd" d="M67.107 52.3161C67.1103 52.2151 67.117 52.1141 67.1238 52.0098H63.9152C63.7435 52.5316 63.5584 53.0535 63.3496 53.5619H66.3427C66.8982 53.4205 67.0868 53.1208 67.107 52.3161Z" fill="#FBB900"/>
<path fill-rule="evenodd" clip-rule="evenodd" d="M28.0908 52.01H3.29102V53.5621H27.2963C27.6431 53.2322 27.9023 52.7103 28.0908 52.01Z" fill="#FBB900"/>
<path fill-rule="evenodd" clip-rule="evenodd" d="M53.1216 52.3013C52.8758 52.2844 52.6906 52.2238 52.4617 52.0959C52.4011 52.0622 52.1385 51.8905 52.1385 51.8905C52.1385 51.9915 52.1419 52.2171 52.1452 52.3147C52.1654 52.5706 52.2126 53.2305 52.2361 53.4056L52.2395 53.4258C52.2429 53.4662 52.2462 53.5133 52.2496 53.5638H53.3505C53.1856 53.0217 53.1351 52.4797 53.1216 52.3013Z" fill="#FBB900"/>
<path fill-rule="evenodd" clip-rule="evenodd" d="M59.3857 52.7663C59.5137 52.7596 59.6248 52.7528 59.7258 52.7495C59.9513 52.7427 60.1298 52.736 60.1938 52.6922C60.2577 52.6518 60.3217 52.5003 60.3958 52.2344C60.4126 52.1603 60.4227 52.0862 60.4395 52.0088H57.0391C57.1838 52.1973 57.3185 52.4296 57.4565 52.7023C57.4734 52.736 57.4868 52.763 57.4936 52.7798C57.635 53.0895 57.6855 53.3454 57.6788 53.5642H58.3487C58.6282 53.1569 58.9514 52.7933 59.3857 52.7663Z" fill="#FBB900"/>
<path fill-rule="evenodd" clip-rule="evenodd" d="M79.6397 22.204L79.3569 20.6991L77.8553 20.386C77.7543 20.3657 67.8391 18.2884 59.0147 13.3594C46.4431 6.31611 42.2043 1.86857 42.1706 1.83154L40.4906 0L38.8106 1.8248C38.7668 1.86521 34.5213 6.32284 21.9564 13.3561C13.1388 18.2817 3.21345 20.3657 3.11244 20.386L1.61085 20.6991L1.33141 22.204C-0.419328 31.6142 -0.442896 41.0884 1.25734 50.3908L2.02497 54.0943L2.23707 54.9562C4.63423 64.7132 8.8764 73.8271 14.8457 82.0522C21.3268 90.9776 29.5586 98.4586 39.3156 104.283L40.4839 104.98L41.6555 104.283C51.4125 98.4586 59.6443 90.9776 66.122 82.0522C72.0947 73.8271 76.3369 64.7132 78.7341 54.9562L79.4747 51.7241L79.7104 50.3908C81.4174 41.0884 81.3938 31.6142 79.6397 22.204ZM76.9395 52.6735H76.9261C72.4853 72.7699 59.7824 90.7991 40.4839 102.324C21.1854 90.7991 8.69796 72.7699 4.25379 52.6735H4.26052C2.11587 42.9704 1.89703 32.7892 3.78917 22.6215C3.78917 22.6215 14.0579 20.5038 23.2863 15.3492C36.538 7.92544 40.6994 3.37353 40.6994 3.37353C40.6994 3.37353 44.8607 7.92544 58.1124 15.3492C67.3408 20.5038 77.6096 22.6215 77.6096 22.6215C79.5017 32.7892 79.0808 42.9704 76.9395 52.6735Z" fill="#FBB900"/>
</svg>
